<svg version="1.1" id="Layer_1" xmlns="http://www.w3.org/2000/svg" xmlns:xlink="http://www.w3.org/1999/xlink" x="0px" y="0px"
	 width="100%" viewBox="0 0 84 96" enable-background="new 0 0 84 96" xml:space="preserve">
<path fill="#FDFDFD" opacity="1.000000" stroke="none" 
	d="
M1.000000,32.000000 
	C1.000000,21.333338 1.000000,11.166674 1.000000,1.000008 
	C28.999987,1.000005 56.999973,1.000005 84.999969,1.000003 
	C84.999985,32.999973 84.999985,64.999947 84.999992,96.999939 
	C57.000034,96.999962 29.000071,96.999962 1.000053,96.999985 
	C1.000000,75.500000 1.000000,54.000000 1.000000,32.000000 
M31.944651,88.901527 
	C32.714672,92.165802 34.470604,92.802933 37.649387,90.571793 
	C37.753578,90.422112 37.857765,90.272438 38.774586,90.363647 
	C40.184452,90.370743 41.594315,90.377838 43.393040,90.915596 
	C44.264759,90.973259 45.136478,91.030922 46.477173,91.588066 
	C50.322502,92.432808 52.002682,90.201752 53.000000,87.000000 
	C53.000000,87.000000 52.997807,86.998070 53.693913,86.940727 
	C54.132896,85.964188 54.571880,84.987640 55.541588,83.815872 
	C55.904057,83.712532 56.266521,83.609184 57.347099,83.763191 
	C59.645390,82.374878 61.943684,80.986557 64.977676,79.400749 
	C65.988380,79.295074 66.999084,79.189400 68.481155,79.602280 
	C71.644028,80.491028 73.071907,79.190750 73.000000,76.000000 
	C73.000000,76.000000 73.010399,76.011299 73.757851,76.025696 
	C77.572906,74.956711 78.768570,72.662971 77.033852,68.145042 
	C77.033234,66.429161 77.032616,64.713287 77.548454,62.533203 
	C74.887100,57.608154 72.225754,52.683102 69.383095,46.874123 
	C69.299171,40.911228 69.215248,34.948334 69.627090,28.474865 
	C68.030014,24.530830 67.324409,19.771372 64.632690,16.828602 
	C60.296047,12.087503 54.711636,8.461045 49.493492,4.579979 
	C48.653061,3.954899 46.978912,4.450767 44.867687,4.317643 
	C42.357128,4.351225 39.846565,4.384808 36.556267,4.143730 
	C30.807360,4.881998 28.117907,9.952810 23.387156,13.267605 
	C21.219315,16.153799 19.051476,19.039995 16.250502,22.243931 
	C12.624166,23.949720 12.125525,26.627865 13.840842,30.840446 
	C14.051635,31.631266 14.262427,32.422085 14.301744,34.100616 
	C14.145157,38.735744 13.988569,43.370876 13.152022,48.015900 
	C8.448538,54.140079 4.411435,60.411354 5.012193,68.746094 
	C5.541727,76.092712 10.893359,80.638840 18.882534,79.515785 
	C19.238333,79.541779 19.594130,79.567764 20.192690,80.270889 
	C23.822075,82.810898 27.451460,85.350899 31.484650,88.057976 
	C31.484650,88.057976 31.903921,88.181557 31.944651,88.901527 
z"/>
<path fill="#262626" opacity="1.000000" stroke="none" 
	d="
M13.831983,48.006004 
	C13.988569,43.370876 14.145157,38.735744 14.701683,33.539787 
	C17.466642,28.459806 19.245193,23.471561 22.372326,19.562002 
	C25.140308,16.101454 29.409058,13.841326 33.337608,10.899822 
	C40.149082,5.471257 41.451309,5.559292 48.172142,10.354633 
	C50.470856,11.994775 53.315109,12.870322 56.113731,14.374374 
	C58.941227,17.400518 61.565113,20.147493 64.105263,23.296673 
	C67.682343,31.896009 66.796684,40.622391 67.195557,49.231686 
	C67.301231,51.512642 68.931503,53.724159 69.867416,55.965187 
	C71.537376,59.963894 73.211670,63.960793 74.537125,68.012474 
	C73.222313,69.783363 72.254539,71.500221 71.253830,73.215637 
	C71.220909,73.214211 71.221596,73.280128 70.829559,73.230286 
	C68.281265,74.446053 64.320839,72.801048 63.826305,77.197395 
	C63.588547,77.263725 63.116158,77.407104 62.937508,77.091263 
	C61.502754,76.169762 60.246655,75.564095 59.152344,74.715363 
	C59.886356,73.774040 60.458576,73.075768 61.381470,72.300217 
	C68.873337,71.713638 69.657814,70.592873 69.139816,61.852432 
	C68.175468,60.533180 66.940536,59.387779 65.446098,57.954781 
	C63.510670,51.241085 60.941334,45.086922 61.695221,38.087502 
	C62.289536,32.569607 61.439873,26.982315 57.717384,22.017626 
	C57.101135,21.180283 56.402817,20.711195 55.437290,20.180798 
	C54.712673,19.832850 54.255260,19.546215 53.826500,18.877872 
	C52.761528,17.804705 51.667900,17.113243 50.189156,16.363894 
	C47.873638,16.475002 45.943233,16.643995 43.582058,16.816519 
	C41.427540,16.830858 39.703789,16.841669 37.747044,16.547487 
	C35.391693,16.370762 32.576298,15.672224 31.266623,16.770020 
	C25.511284,21.594257 19.878866,26.566257 20.740744,35.453598 
	C21.645088,44.778835 20.528046,53.682400 14.432837,61.604843 
	C11.467074,65.459686 13.410710,69.805580 17.996929,72.539909 
	C17.965342,73.691513 17.934500,74.458969 17.519705,75.180618 
	C15.217203,74.370529 13.236724,73.728714 11.401060,72.800522 
	C10.094956,72.140091 8.983890,71.093941 7.664309,69.783676 
	C7.536084,67.547981 7.529331,65.748558 7.909970,63.916447 
	C9.028885,62.137463 9.760409,60.391163 10.523270,58.425865 
	C10.770430,57.532738 10.986255,56.858604 11.556037,56.145844 
	C12.729930,54.311180 13.549867,52.515141 14.452618,50.413063 
	C14.300948,49.406689 14.066465,48.706348 13.831983,48.006004 
z"/>
<path fill="#262626" opacity="1.000000" stroke="none" 
	d="
M58.990551,74.958427 
	C60.246655,75.564095 61.502754,76.169762 62.645237,77.325195 
	C59.548504,78.985336 56.221508,79.588890 53.662891,81.324913 
	C49.826878,83.927658 46.530212,87.325325 43.004181,90.384933 
	C41.594315,90.377838 40.184452,90.370743 38.306328,89.896606 
	C36.165524,88.192894 34.492981,86.956215 32.500336,85.558029 
	C31.709999,85.407814 31.239759,85.419083 30.783018,85.367828 
	C30.796518,85.305298 30.771305,85.179871 30.813330,84.811668 
	C29.407980,80.681725 27.862942,77.055519 22.320961,78.499557 
	C21.349566,78.420601 20.701830,78.369118 19.906281,78.021950 
	C19.140198,76.892982 18.521927,76.059700 17.903658,75.226418 
	C17.934500,74.458969 17.965342,73.691513 18.366467,72.494553 
	C19.480467,72.061714 20.224186,72.058395 21.134148,72.378296 
	C21.482197,72.979904 21.610779,73.320930 21.853716,73.527397 
	C26.155159,77.183098 46.311672,78.499504 51.646797,75.408821 
	C53.274879,75.080170 54.520660,74.806168 56.153824,74.667076 
	C57.357658,74.854134 58.174103,74.906281 58.990551,74.958427 
z"/>
<path fill="#888888" opacity="1.000000" stroke="none" 
	d="
M43.198608,90.650269 
	C46.530212,87.325325 49.826878,83.927658 53.662891,81.324913 
	C56.221508,79.588890 59.548504,78.985336 62.823887,77.641029 
	C63.116158,77.407104 63.588547,77.263725 64.197685,77.211655 
	C66.945076,75.866432 69.083336,74.573280 71.221596,73.280128 
	C71.221596,73.280128 71.220909,73.214211 71.569397,73.129562 
	C72.906639,71.349426 73.895393,69.653938 74.884155,67.958443 
	C73.211670,63.960793 71.537376,59.963894 69.867416,55.965187 
	C68.931503,53.724159 67.301231,51.512642 67.195557,49.231686 
	C66.796684,40.622391 67.682343,31.896009 64.434776,23.372753 
	C66.275795,25.026230 67.703560,27.005833 69.131325,28.985435 
	C69.215248,34.948334 69.299171,40.911228 69.330406,47.670227 
	C71.862473,53.310020 74.447235,58.153717 77.031990,62.997410 
	C77.032616,64.713287 77.033234,66.429161 76.773346,68.795250 
	C75.345360,71.634071 74.177872,73.822685 73.010391,76.011292 
	C73.010399,76.011299 73.000000,76.000000 72.665054,76.015656 
	C70.890007,77.048775 69.449898,78.066246 68.009789,79.083725 
	C66.999084,79.189400 65.988380,79.295074 64.255463,79.357925 
	C61.231834,80.712013 58.930412,82.108932 56.628990,83.505844 
	C56.266521,83.609184 55.904057,83.712532 54.963158,84.007050 
	C53.922421,85.131508 53.460114,86.064789 52.997807,86.998070 
	C52.997807,86.998070 53.000000,87.000000 52.646759,87.008362 
	C50.198410,88.374008 48.103302,89.731300 46.008198,91.088593 
	C45.136478,91.030922 44.264759,90.973259 43.198608,90.650269 
z"/>
<path fill="#BDBDBD" opacity="1.000000" stroke="none" 
	d="
M13.492002,48.010952 
	C14.066465,48.706348 14.300948,49.406689 14.166535,50.544914 
	C12.932452,52.716690 12.067266,54.450577 11.202080,56.184467 
	C10.986255,56.858604 10.770430,57.532738 10.225887,58.533554 
	C9.105640,60.556534 8.314110,62.252831 7.522579,63.949127 
	C7.529331,65.748558 7.536084,67.547981 7.654896,70.138924 
	C11.297193,73.758736 14.827431,76.587044 18.357666,79.415352 
	C10.893359,80.638840 5.541727,76.092712 5.012193,68.746094 
	C4.411435,60.411354 8.448538,54.140079 13.492002,48.010952 
z"/>
<path fill="#CBCBCB" opacity="1.000000" stroke="none" 
	d="
M69.379211,28.730150 
	C67.703560,27.005833 66.275795,25.026230 64.518509,22.970547 
	C61.565113,20.147493 58.941227,17.400518 56.105999,14.027071 
	C52.493156,10.409886 49.091656,7.419175 45.690159,4.428463 
	C46.978912,4.450767 48.653061,3.954899 49.493492,4.579979 
	C54.711636,8.461045 60.296047,12.087503 64.632690,16.828602 
	C67.324409,19.771372 68.030014,24.530830 69.379211,28.730150 
z"/>
<path fill="#7B7B7B" opacity="1.000000" stroke="none" 
	d="
M33.015247,11.051233 
	C29.409058,13.841326 25.140308,16.101454 22.372326,19.562002 
	C19.245193,23.471561 17.466642,28.459806 14.787421,33.095928 
	C14.262427,32.422085 14.051635,31.631266 14.138912,30.207222 
	C15.252533,27.024729 16.068085,24.475458 16.883635,21.926189 
	C19.051476,19.039995 21.219315,16.153799 24.072849,13.172890 
	C27.490244,11.646502 30.221947,10.214828 32.966595,9.160992 
	C32.991444,10.042964 33.003345,10.547098 33.015247,11.051233 
z"/>
<path fill="#838383" opacity="1.000000" stroke="none" 
	d="
M33.337608,10.899821 
	C33.003345,10.547098 32.991444,10.042964 33.121769,8.888248 
	C34.621334,6.964575 35.978668,5.691483 37.336006,4.418390 
	C39.846565,4.384808 42.357128,4.351225 45.278923,4.373054 
	C49.091656,7.419175 52.493156,10.409886 55.902382,13.747900 
	C53.315109,12.870322 50.470856,11.994775 48.172142,10.354633 
	C41.451309,5.559292 40.149082,5.471257 33.337608,10.899821 
z"/>
<path fill="#BDBDBD" opacity="1.000000" stroke="none" 
	d="
M20.054094,78.317642 
	C20.701830,78.369118 21.349566,78.420601 22.470406,78.786011 
	C25.552774,81.126579 28.162039,83.153229 30.771305,85.179871 
	C30.771305,85.179871 30.796518,85.305298 30.805855,85.676537 
	C30.903742,86.662148 30.992294,87.276527 31.080845,87.890900 
	C27.451460,85.350899 23.822075,82.810898 20.052357,79.716576 
	C20.055595,78.896919 20.102951,78.615379 20.054094,78.317642 
z"/>
<path fill="#CBCBCB" opacity="1.000000" stroke="none" 
	d="
M77.290222,62.765305 
	C74.447235,58.153717 71.862473,53.310020 69.421066,48.112190 
	C72.225754,52.683102 74.887100,57.608154 77.290222,62.765305 
z"/>
<path fill="#696969" opacity="1.000000" stroke="none" 
	d="
M19.906281,78.021957 
	C20.102951,78.615379 20.055595,78.896919 19.930977,79.378006 
	C19.594130,79.567764 19.238333,79.541779 18.620102,79.465569 
	C14.827431,76.587044 11.297193,73.758736 7.776368,70.575180 
	C8.983890,71.093941 10.094956,72.140091 11.401060,72.800522 
	C13.236724,73.728714 15.217203,74.370529 17.519705,75.180618 
	C18.521927,76.059700 19.140198,76.892982 19.906281,78.021957 
z"/>
<path fill="#CBCBCB" opacity="1.000000" stroke="none" 
	d="
M36.946136,4.281060 
	C35.978668,5.691483 34.621334,6.964575 33.108822,8.510412 
	C30.221947,10.214828 27.490244,11.646502 24.381546,13.042691 
	C28.117907,9.952810 30.807360,4.881998 36.946136,4.281060 
z"/>
<path fill="#BDBDBD" opacity="1.000000" stroke="none" 
	d="
M16.567068,22.085060 
	C16.068085,24.475458 15.252533,27.024729 14.138995,29.784172 
	C12.125525,26.627865 12.624166,23.949720 16.567068,22.085060 
z"/>
<path fill="#CBCBCB" opacity="1.000000" stroke="none" 
	d="
M46.242683,91.338333 
	C48.103302,89.731300 50.198410,88.374008 52.645775,87.007278 
	C52.002682,90.201752 50.322502,92.432808 46.242683,91.338333 
z"/>
<path fill="#CBCBCB" opacity="1.000000" stroke="none" 
	d="
M56.988045,83.634521 
	C58.930412,82.108932 61.231834,80.712013 63.887615,79.456673 
	C61.943684,80.986557 59.645390,82.374878 56.988045,83.634521 
z"/>
<path fill="#696969" opacity="1.000000" stroke="none" 
	d="
M32.820435,85.719528 
	C34.492981,86.956215 36.165524,88.192894 37.900009,89.776169 
	C37.857765,90.272438 37.753578,90.422112 37.145615,90.449387 
	C35.470932,89.461243 34.300022,88.595490 33.101803,87.473946 
	C32.989811,86.718613 32.905125,86.219070 32.820435,85.719528 
z"/>
<path fill="#CBCBCB" opacity="1.000000" stroke="none" 
	d="
M73.384125,76.018494 
	C74.177872,73.822685 75.345360,71.634071 76.777229,69.224075 
	C78.768570,72.662971 77.572906,74.956711 73.384125,76.018494 
z"/>
<path fill="#CBCBCB" opacity="1.000000" stroke="none" 
	d="
M68.245468,79.343002 
	C69.449898,78.066246 70.890007,77.048775 72.670540,76.021667 
	C73.071907,79.190750 71.644028,80.491028 68.245468,79.343002 
z"/>
<path fill="#CBCBCB" opacity="1.000000" stroke="none" 
	d="
M33.129112,87.729736 
	C34.300022,88.595490 35.470932,89.461243 36.916370,90.598663 
	C34.470604,92.802933 32.714672,92.165802 32.224701,88.412140 
	C32.712872,87.858421 32.920994,87.794075 33.129112,87.729736 
z"/>
<path fill="#888888" opacity="1.000000" stroke="none" 
	d="
M33.101803,87.473946 
	C32.920994,87.794075 32.712872,87.858421 32.204338,88.052155 
	C31.903921,88.181557 31.484650,88.057976 31.282749,87.974442 
	C30.992294,87.276527 30.903742,86.662148 30.792355,85.739067 
	C31.239759,85.419083 31.709999,85.407814 32.500340,85.558029 
	C32.905125,86.219070 32.989811,86.718613 33.101803,87.473946 
z"/>
<path fill="#CBCBCB" opacity="1.000000" stroke="none" 
	d="
M53.345860,86.969398 
	C53.460114,86.064789 53.922421,85.131508 54.697796,84.104660 
	C54.571880,84.987640 54.132896,85.964188 53.345860,86.969398 
z"/>
<path fill="#FEFEFE" opacity="1.000000" stroke="none" 
	d="
M37.980042,16.852480 
	C39.703789,16.841669 41.427540,16.830858 43.663567,17.125488 
	C44.776188,17.634472 45.376530,17.838018 46.022705,18.400532 
	C47.849930,19.687775 49.631321,20.616055 51.605278,21.589642 
	C51.797840,21.634949 52.148388,21.818407 52.108582,22.207724 
	C53.684929,25.790705 55.209076,29.037378 56.993275,32.134228 
	C57.359219,32.769398 58.698437,32.843822 59.688095,33.622864 
	C59.867039,40.044670 59.946918,46.020325 59.744476,52.236183 
	C59.758335,54.479206 59.333317,57.216053 60.485271,58.347897 
	C64.010269,61.811333 64.196838,65.545845 62.586967,69.873413 
	C61.851608,69.966164 61.427094,69.987061 60.726517,69.721481 
	C59.810364,69.314438 59.170471,69.089928 58.530155,69.088722 
	C47.387455,69.067757 36.244526,69.047142 25.102245,69.118980 
	C24.057341,69.125717 23.016441,69.753426 21.632870,70.093262 
	C20.450087,69.819649 19.608116,69.545609 18.845348,68.830612 
	C19.984005,65.013718 21.209734,61.678280 22.045401,58.247822 
	C22.617966,55.897400 22.647657,53.414734 22.919113,50.523888 
	C23.029135,44.411526 23.140072,38.766468 23.623734,33.077850 
	C27.963337,32.141880 27.047852,29.284235 26.623016,26.416691 
	C26.662903,26.225351 26.847895,25.880991 27.237747,25.911505 
	C28.676517,24.562788 29.725433,23.183558 30.832756,21.864969 
	C30.891161,21.925610 30.816393,21.774734 31.206102,21.847059 
	C33.400509,20.618814 35.205204,19.318247 37.270294,17.899792 
	C37.680470,17.472095 37.830257,17.162289 37.980042,16.852480 
z"/>
<path fill="#8B8B8B" opacity="1.000000" stroke="none" 
	d="
M26.847895,25.880991 
	C26.847895,25.880991 26.662903,26.225351 26.330671,26.573799 
	C25.082628,28.988634 24.166819,31.055019 23.251009,33.121407 
	C23.140072,38.766468 23.029135,44.411526 22.673708,50.773758 
	C20.587839,55.230591 18.854176,59.028576 16.871151,62.691559 
	C15.271385,65.646606 15.184554,67.924240 18.766144,69.271561 
	C19.608116,69.545609 20.450087,69.819649 21.667385,70.314285 
	C22.170649,70.802628 22.297886,71.070724 22.069740,71.537354 
	C21.466007,71.842064 21.216957,71.948570 20.967905,72.055077 
	C20.224186,72.058395 19.480467,72.061714 18.367212,72.110397 
	C13.410710,69.805580 11.467074,65.459686 14.432837,61.604843 
	C20.528046,53.682400 21.645088,44.778835 20.740744,35.453598 
	C19.878866,26.566257 25.511284,21.594257 31.266623,16.770020 
	C32.576298,15.672224 35.391693,16.370762 37.747044,16.547487 
	C37.830257,17.162289 37.680470,17.472095 36.906727,17.839123 
	C34.460644,19.189140 32.638519,20.481937 30.816393,21.774734 
	C30.816393,21.774734 30.891161,21.925610 30.504173,21.913826 
	C29.027422,23.228357 27.937658,24.554674 26.847895,25.880991 
z"/>
<path fill="#8B8B8B" opacity="1.000000" stroke="none" 
	d="
M60.026802,51.995983 
	C59.946918,46.020325 59.867039,40.044670 59.785889,33.264351 
	C57.239208,28.912592 54.693798,25.365499 52.148388,21.818405 
	C52.148388,21.818407 51.797840,21.634949 51.452576,21.302248 
	C49.397160,19.993553 47.687016,19.017559 45.976868,18.041565 
	C45.376530,17.838018 44.776188,17.634472 44.094337,17.121960 
	C45.943233,16.643995 47.873638,16.475002 50.313812,16.657135 
	C51.815002,17.758701 52.806423,18.509140 53.797848,19.259579 
	C54.255260,19.546215 54.712673,19.832850 55.531452,20.468033 
	C56.473648,21.339682 57.054478,21.862783 57.635307,22.385883 
	C61.439873,26.982315 62.289536,32.569607 61.695221,38.087502 
	C60.941334,45.086922 63.510670,51.241085 65.546097,58.255821 
	C66.893478,59.905064 67.881355,60.965672 68.869232,62.026276 
	C69.657814,70.592873 68.873337,71.713638 61.360260,71.995354 
	C60.994827,71.565002 61.001282,71.362228 61.004917,70.871414 
	C61.002258,70.391556 61.002419,70.199753 61.002575,70.007950 
	C61.427094,69.987061 61.851608,69.966164 62.948784,69.923676 
	C67.355408,68.951721 68.423897,66.658722 66.620338,63.317127 
	C64.547218,59.476093 62.235107,55.764053 60.026802,51.995983 
z"/>
<path fill="#404040" opacity="1.000000" stroke="none" 
	d="
M70.829559,73.230286 
	C69.083336,74.573280 66.945076,75.866432 64.435440,77.145325 
	C64.320839,72.801048 68.281265,74.446053 70.829559,73.230286 
z"/>
<path fill="#404040" opacity="1.000000" stroke="none" 
	d="
M74.537125,68.012474 
	C73.895393,69.653938 72.906639,71.349426 71.602318,73.130997 
	C72.254539,71.500221 73.222313,69.783363 74.537125,68.012474 
z"/>
<path fill="#696969" opacity="1.000000" stroke="none" 
	d="
M7.909971,63.916447 
	C8.314110,62.252831 9.105640,60.556534 10.194551,58.752548 
	C9.760409,60.391163 9.028885,62.137463 7.909971,63.916447 
z"/>
<path fill="#5B5B5B" opacity="1.000000" stroke="none" 
	d="
M61.007736,71.159470 
	C61.001282,71.362228 60.994827,71.565002 61.009583,72.072632 
	C60.458576,73.075768 59.886356,73.774040 59.152344,74.715363 
	C58.174103,74.906281 57.357658,74.854134 56.265522,74.390869 
	C57.034161,73.119759 58.078487,72.259773 59.430428,71.313614 
	C60.161274,71.204773 60.584503,71.182121 61.007736,71.159470 
z"/>
<path fill="#7B7B7B" opacity="1.000000" stroke="none" 
	d="
M11.556036,56.145844 
	C12.067266,54.450577 12.932452,52.716690 14.083721,50.850948 
	C13.549867,52.515141 12.729930,54.311180 11.556036,56.145844 
z"/>
<path fill="#454545" opacity="1.000000" stroke="none" 
	d="
M69.139816,61.852432 
	C67.881355,60.965672 66.893478,59.905064 65.805603,58.543415 
	C66.940536,59.387779 68.175468,60.533180 69.139816,61.852432 
z"/>
<path fill="#464646" opacity="1.000000" stroke="none" 
	d="
M53.826500,18.877872 
	C52.806423,18.509140 51.815002,17.758701 50.698925,16.715021 
	C51.667900,17.113243 52.761528,17.804705 53.826500,18.877872 
z"/>
<path fill="#464646" opacity="1.000000" stroke="none" 
	d="
M57.717384,22.017628 
	C57.054478,21.862783 56.473648,21.339682 55.798656,20.529345 
	C56.402817,20.711195 57.101135,21.180283 57.717384,22.017628 
z"/>
<path fill="#8B8B8B" opacity="1.000000" stroke="none" 
	d="
M59.122818,71.399788 
	C58.078487,72.259773 57.034161,73.119759 55.878136,74.255951 
	C54.520660,74.806168 53.274879,75.080170 51.183128,75.206062 
	C44.896488,75.015228 39.415108,75.358200 34.029953,74.789665 
	C30.628441,74.430557 27.370651,72.710098 24.346338,71.398178 
	C31.793406,71.817474 38.934589,72.763931 46.094624,72.938873 
	C50.422237,73.044594 54.779099,71.953270 59.122818,71.399788 
z"/>
<path fill="#5B5B5B" opacity="1.000000" stroke="none" 
	d="
M24.048397,71.600250 
	C27.370651,72.710098 30.628441,74.430557 34.029953,74.789665 
	C39.415108,75.358200 44.896488,75.015228 50.800827,75.260712 
	C46.311672,78.499504 26.155159,77.183098 21.853716,73.527397 
	C21.610779,73.320930 21.482197,72.979904 21.134148,72.378296 
	C21.216957,71.948570 21.466007,71.842064 22.333202,71.615234 
	C23.317028,71.530029 23.682713,71.565140 24.048397,71.600250 
z"/>
<path fill="#696969" opacity="1.000000" stroke="none" 
	d="
M30.813328,84.811668 
	C28.162039,83.153229 25.552774,81.126579 22.794067,78.813484 
	C27.862942,77.055519 29.407980,80.681725 30.813328,84.811668 
z"/>
<path fill="#D6D6D6" opacity="1.000000" stroke="none" 
	d="
M24.346338,71.398178 
	C23.682713,71.565140 23.317028,71.530029 22.687883,71.417038 
	C22.297886,71.070724 22.170649,70.802628 22.008198,70.313843 
	C23.016441,69.753426 24.057341,69.125717 25.102245,69.118980 
	C36.244526,69.047142 47.387455,69.067757 58.530155,69.088722 
	C59.170471,69.089928 59.810364,69.314438 60.726517,69.721481 
	C61.002419,70.199753 61.002258,70.391556 61.004917,70.871414 
	C60.584503,71.182121 60.161274,71.204773 59.430428,71.313614 
	C54.779099,71.953270 50.422237,73.044594 46.094624,72.938873 
	C38.934589,72.763931 31.793406,71.817474 24.346338,71.398178 
z"/>
<path fill="#D6D6D6" opacity="1.000000" stroke="none" 
	d="
M59.744476,52.236183 
	C62.235107,55.764053 64.547218,59.476093 66.620338,63.317127 
	C68.423897,66.658722 67.355408,68.951721 63.259621,69.851822 
	C64.196838,65.545845 64.010269,61.811333 60.485271,58.347897 
	C59.333317,57.216053 59.758335,54.479206 59.744476,52.236183 
z"/>
<path fill="#D6D6D6" opacity="1.000000" stroke="none" 
	d="
M18.845348,68.830612 
	C15.184554,67.924240 15.271385,65.646606 16.871151,62.691559 
	C18.854176,59.028576 20.587839,55.230591 22.674625,51.241058 
	C22.647657,53.414734 22.617966,55.897400 22.045401,58.247822 
	C21.209734,61.678280 19.984005,65.013718 18.845348,68.830612 
z"/>
<path fill="#D6D6D6" opacity="1.000000" stroke="none" 
	d="
M52.108582,22.207722 
	C54.693798,25.365499 57.239208,28.912592 59.686825,32.818199 
	C58.698437,32.843822 57.359219,32.769398 56.993275,32.134228 
	C55.209076,29.037378 53.684929,25.790705 52.108582,22.207722 
z"/>
<path fill="#D6D6D6" opacity="1.000000" stroke="none" 
	d="
M23.623734,33.077850 
	C24.166819,31.055019 25.082628,28.988634 26.290783,26.765139 
	C27.047852,29.284235 27.963337,32.141880 23.623734,33.077850 
z"/>
<path fill="#D6D6D6" opacity="1.000000" stroke="none" 
	d="
M31.206102,21.847059 
	C32.638519,20.481937 34.460644,19.189140 36.646332,17.957008 
	C35.205204,19.318247 33.400509,20.618814 31.206102,21.847059 
z"/>
<path fill="#D6D6D6" opacity="1.000000" stroke="none" 
	d="
M27.237747,25.911505 
	C27.937658,24.554674 29.027422,23.228357 30.445766,21.853184 
	C29.725433,23.183558 28.676517,24.562788 27.237747,25.911505 
z"/>
<path fill="#D6D6D6" opacity="1.000000" stroke="none" 
	d="
M46.022705,18.400532 
	C47.687016,19.017559 49.397160,19.993553 51.260010,21.256939 
	C49.631321,20.616055 47.849930,19.687775 46.022705,18.400532 
z"/>
</svg>