<svg version="1.1" id="Layer_1" xmlns="http://www.w3.org/2000/svg" xmlns:xlink="http://www.w3.org/1999/xlink" x="0px" y="0px"
	 width="100%" viewBox="0 0 256 144" enable-background="new 0 0 256 144" xml:space="preserve">
<path fill="#E5F8FF" opacity="1.000000" stroke="none" 
	d="
M1.000001,86.000000 
	C1.000000,77.979103 1.000000,69.958199 1.362593,61.400444 
	C2.448041,59.814373 3.405700,58.855621 3.851117,57.699516 
	C5.380595,53.729660 6.189005,49.387188 8.239035,45.728432 
	C19.624371,25.408659 37.310627,14.477520 60.423664,14.156865 
	C101.073898,13.592910 141.737854,13.921421 182.395401,14.064136 
	C190.423172,14.092315 198.274887,13.834187 206.432495,16.481159 
	C215.585739,19.451191 223.774002,23.423840 230.300369,30.005081 
	C248.124664,47.979240 254.027771,72.847298 244.232742,97.447327 
	C238.117676,112.805199 226.382828,123.019524 211.746841,129.201462 
	C204.084229,132.438004 195.664429,135.254150 186.634674,134.132828 
	C180.797607,133.407959 174.797379,133.997375 168.870255,133.997528 
	C149.945663,133.998016 131.021072,133.998642 112.096481,133.998672 
	C98.599342,133.998688 85.102051,133.959534 71.605103,134.010086 
	C61.667461,134.047318 51.952095,133.401596 42.250443,130.449570 
	C33.858753,127.896156 26.651089,123.968254 20.511635,117.957001 
	C12.813518,110.419655 7.361124,101.459770 4.099693,91.141571 
	C3.513323,89.286461 2.055483,87.706818 1.000001,86.000000 
M90.147804,116.581772 
	C91.768295,117.357323 93.388786,118.132874 95.853645,119.009804 
	C96.975616,118.875061 98.097595,118.740318 100.117104,118.741295 
	C117.340065,118.683914 134.563034,118.626534 152.480179,118.903122 
	C152.986893,118.975121 153.493591,119.047119 154.529816,119.609825 
	C155.826706,119.614159 157.575027,120.168617 158.347931,119.534393 
	C163.750549,115.101151 169.942886,111.095375 169.950531,102.884285 
	C169.962311,90.235924 170.106125,77.583992 169.814133,64.942352 
	C169.759552,62.578953 168.081329,60.170746 166.875366,57.932476 
	C163.866852,52.348675 158.938721,48.952881 153.583771,45.730213 
	C146.784393,41.638290 140.535172,36.640064 133.892899,32.269440 
	C133.044998,31.711515 131.259735,32.578129 129.112778,32.761456 
	C125.470390,32.624783 121.828011,32.488113 117.429413,32.174732 
	C116.024162,32.579842 114.370575,32.640003 113.252945,33.444622 
	C104.295235,39.893597 94.994484,45.981621 86.764999,53.271008 
	C83.364166,56.283344 78.693810,60.762230 81.950691,67.936203 
	C82.100151,80.909027 82.249603,93.881844 81.762215,107.230331 
	C81.622726,111.379364 85.759109,115.679321 90.085594,115.899147 
	C90.085594,115.899147 90.106987,115.911255 90.147804,116.581772 
z"/>
<path fill="#FEFFFF" opacity="1.000000" stroke="none" 
	d="
M1.000001,86.468658 
	C2.055483,87.706818 3.513323,89.286461 4.099693,91.141571 
	C7.361124,101.459770 12.813518,110.419655 20.511635,117.957001 
	C26.651089,123.968254 33.858753,127.896156 42.250443,130.449570 
	C51.952095,133.401596 61.667461,134.047318 71.605103,134.010086 
	C85.102051,133.959534 98.599342,133.998688 112.096481,133.998672 
	C131.021072,133.998642 149.945663,133.998016 168.870255,133.997528 
	C174.797379,133.997375 180.797607,133.407959 186.634674,134.132828 
	C195.664429,135.254150 204.084229,132.438004 211.746841,129.201462 
	C226.382828,123.019524 238.117676,112.805199 244.232742,97.447327 
	C254.027771,72.847298 248.124664,47.979240 230.300369,30.005081 
	C223.774002,23.423840 215.585739,19.451191 206.432495,16.481159 
	C198.274887,13.834187 190.423172,14.092315 182.395401,14.064136 
	C141.737854,13.921421 101.073898,13.592910 60.423664,14.156865 
	C37.310627,14.477520 19.624371,25.408659 8.239035,45.728432 
	C6.189005,49.387188 5.380595,53.729660 3.851117,57.699516 
	C3.405700,58.855621 2.448041,59.814373 1.362593,60.931793 
	C1.000000,41.011299 1.000000,21.022594 1.000000,1.016946 
	C86.273834,1.016946 171.547668,1.016946 256.910767,1.016946 
	C256.910767,48.913239 256.910767,96.826698 256.910767,144.870087 
	C171.666794,144.870087 86.333427,144.870087 1.000000,144.870087 
	C1.000000,125.582253 1.000000,106.259789 1.000001,86.468658 
z"/>
<path fill="#B7EAFF" opacity="1.000000" stroke="none" 
	d="
M129.908722,32.784798 
	C131.259735,32.578129 133.044998,31.711515 133.892899,32.269440 
	C140.535172,36.640064 146.784393,41.638290 153.583771,45.730213 
	C158.938721,48.952881 163.866852,52.348675 166.875366,57.932476 
	C168.081329,60.170746 169.759552,62.578953 169.814133,64.942352 
	C170.106125,77.583992 169.962311,90.235924 169.950531,102.884285 
	C169.942886,111.095375 163.750549,115.101151 158.347931,119.534393 
	C157.575027,120.168617 155.826706,119.614159 154.285889,119.068390 
	C154.097473,118.140442 154.152985,117.753929 154.532043,117.232574 
	C157.558594,114.335358 162.976547,114.391289 163.316742,108.896065 
	C163.431320,108.734886 163.586334,108.371010 163.902740,108.232224 
	C168.641541,104.535400 168.298920,99.843384 167.304626,94.539810 
	C167.295593,89.714783 167.316284,85.353294 167.550568,80.714233 
	C167.619995,78.625557 167.475845,76.814453 167.304047,74.585915 
	C167.289337,72.774925 167.302292,71.381386 167.535095,69.694862 
	C167.585037,67.456360 168.019165,65.155449 167.125168,63.635956 
	C164.963531,59.961903 162.788727,55.858116 159.522354,53.364120 
	C153.052322,48.423992 145.841553,44.453991 138.660583,39.945644 
	C137.558701,39.235008 136.733215,38.661709 135.876099,37.735451 
	C133.865891,35.849926 131.887299,34.317364 129.908722,32.784798 
z"/>
<path fill="#2AB6F9" opacity="1.000000" stroke="none" 
	d="
M163.202148,109.057243 
	C162.976547,114.391289 157.558594,114.335358 154.221848,117.144821 
	C152.987396,117.650993 152.386703,118.110077 151.785995,118.569153 
	C134.563034,118.626534 117.340065,118.683914 99.595375,118.400642 
	C98.669281,117.405251 98.264908,116.750504 98.275879,116.065933 
	C99.793404,116.029793 100.895592,116.023476 102.466560,116.021515 
	C118.626205,116.021515 134.317078,116.017166 150.378677,116.005905 
	C154.900330,113.685074 159.051239,111.371162 163.202148,109.057243 
z"/>
<path fill="#A3E3FF" opacity="1.000000" stroke="none" 
	d="
M81.929291,66.998924 
	C78.693810,60.762230 83.364166,56.283344 86.764999,53.271008 
	C94.994484,45.981621 104.295235,39.893597 113.252945,33.444622 
	C114.370575,32.640003 116.024162,32.579842 117.679718,32.552231 
	C116.955559,33.955700 115.981094,34.981674 114.802963,36.276653 
	C112.686562,37.649189 110.773819,38.752716 108.516319,39.912407 
	C104.068504,43.247356 99.965454,46.526150 95.866554,49.837799 
	C95.870705,49.870655 95.806709,49.853573 95.473541,49.914284 
	C89.381310,53.619904 84.186867,57.706593 83.209358,65.447876 
	C83.151169,66.168793 83.156631,66.584328 82.853889,67.002518 
	C82.340218,67.003082 82.134758,67.001007 81.929291,66.998924 
z"/>
<path fill="#54C7FE" opacity="1.000000" stroke="none" 
	d="
M81.939987,67.467560 
	C82.134758,67.001007 82.340218,67.003082 83.088181,66.985901 
	C83.630669,66.966644 84.101967,66.984215 84.057655,67.452934 
	C83.993958,76.854668 83.937927,85.787804 83.967232,94.720657 
	C83.989159,101.403709 86.392212,107.160637 91.085800,112.266998 
	C91.448616,113.022888 91.724159,113.511444 91.621040,114.001762 
	C90.484749,114.012497 89.727104,114.021477 88.668510,113.864380 
	C86.378059,111.417091 84.388557,109.135880 82.399055,106.854668 
	C82.249603,93.881844 82.100151,80.909027 81.939987,67.467560 
z"/>
<path fill="#67CEFE" opacity="1.000000" stroke="none" 
	d="
M115.006622,36.007645 
	C115.981094,34.981674 116.955559,33.955700 118.057823,32.640583 
	C121.828011,32.488113 125.470390,32.624783 129.510742,32.773125 
	C131.887299,34.317364 133.865891,35.849926 135.487457,37.722095 
	C134.093796,37.992779 133.057144,37.923855 131.852386,37.624733 
	C131.144073,37.222965 130.603851,37.051403 129.814880,36.591625 
	C126.384712,35.920269 123.203262,35.537128 119.653679,35.112854 
	C117.859238,35.383698 116.432930,35.695671 115.006622,36.007645 
z"/>
<path fill="#B7EAFF" opacity="1.000000" stroke="none" 
	d="
M82.080635,107.042496 
	C84.388557,109.135880 86.378059,111.417091 88.795212,114.102615 
	C89.507156,114.962151 89.791443,115.417381 90.075729,115.872604 
	C85.759109,115.679321 81.622726,111.379364 82.080635,107.042496 
z"/>
<path fill="#7AD4FE" opacity="1.000000" stroke="none" 
	d="
M90.080658,115.885880 
	C89.791443,115.417381 89.507156,114.962151 89.096176,114.268692 
	C89.727104,114.021477 90.484749,114.012497 92.032379,114.036240 
	C94.193687,114.096870 95.565018,114.124802 96.957825,114.437004 
	C97.273064,115.179436 97.566803,115.637604 97.860542,116.095764 
	C98.264908,116.750504 98.669281,117.405251 99.146606,118.332779 
	C98.097595,118.740318 96.975616,118.875061 95.285583,118.664467 
	C93.180672,117.516502 91.643829,116.713882 90.106987,115.911255 
	C90.106987,115.911255 90.085594,115.899147 90.080658,115.885880 
z"/>
<path fill="#B7EAFF" opacity="1.000000" stroke="none" 
	d="
M90.127396,116.246513 
	C91.643829,116.713882 93.180672,117.516502 94.863396,118.613777 
	C93.388786,118.132874 91.768295,117.357323 90.127396,116.246513 
z"/>
<path fill="#7AD4FE" opacity="1.000000" stroke="none" 
	d="
M152.133087,118.736145 
	C152.386703,118.110077 152.987396,117.650993 153.898285,117.279663 
	C154.152985,117.753929 154.097473,118.140442 154.021118,118.823036 
	C153.493591,119.047119 152.986893,118.975121 152.133087,118.736145 
z"/>
<path fill="#0FAFFB" opacity="1.000000" stroke="none" 
	d="
M163.316742,108.896065 
	C159.051239,111.371162 154.900330,113.685074 150.358368,115.596687 
	C148.474762,114.462975 147.040100,113.554337 145.475540,113.043556 
	C143.364624,112.354401 141.153763,111.971382 139.435028,111.326019 
	C143.918991,111.108475 147.953720,111.021896 152.180267,111.188202 
	C153.865112,110.248932 155.358139,109.056755 156.918060,107.927650 
	C156.984985,107.990715 156.865479,107.851097 157.222595,107.867706 
	C159.738037,106.946823 161.923340,106.023338 160.123276,102.659576 
	C160.371338,100.873878 160.599945,99.449837 161.147064,97.743675 
	C161.629105,92.338310 161.954346,87.213196 161.895187,82.092529 
	C161.860046,79.050941 161.219406,76.016350 160.849304,72.550499 
	C160.794662,69.860519 160.741745,67.598640 160.759796,64.971481 
	C159.569672,63.394527 158.308578,62.182854 156.806091,60.818283 
	C156.032944,60.127075 155.501160,59.588764 154.947601,58.694355 
	C153.511520,57.321800 152.097214,56.305344 150.483307,55.273453 
	C150.283707,55.258018 149.902618,55.135212 149.898941,54.772682 
	C148.848190,53.674141 147.801132,52.938126 146.480377,52.154396 
	C145.755875,51.803181 145.305054,51.499683 144.869125,50.825668 
	C143.142075,49.408085 141.400146,48.361012 139.462402,47.300720 
	C139.266602,47.287506 138.899399,47.148880 138.807251,46.892212 
	C138.397278,46.487492 138.079453,46.339447 137.465210,46.105537 
	C136.676254,45.399120 136.183731,44.778557 135.998505,44.017914 
	C137.232651,43.236744 138.159500,42.595657 139.389160,42.103291 
	C145.719666,46.585655 151.899857,50.728058 157.697617,55.350132 
	C159.915909,57.118584 161.375381,59.909027 162.969467,62.370506 
	C164.555984,64.820297 165.877533,67.441689 167.315262,69.987839 
	C167.302292,71.381386 167.289337,72.774925 166.980774,74.797241 
	C166.902420,77.281273 167.119690,79.136536 167.336975,80.991806 
	C167.316284,85.353294 167.295593,89.714783 166.973785,94.767715 
	C165.643860,99.763115 164.615097,104.067062 163.586334,108.371010 
	C163.586334,108.371010 163.431320,108.734886 163.316742,108.896065 
z"/>
<path fill="#5BC9FD" opacity="1.000000" stroke="none" 
	d="
M167.535095,69.694862 
	C165.877533,67.441689 164.555984,64.820297 162.969467,62.370506 
	C161.375381,59.909027 159.915909,57.118584 157.697617,55.350132 
	C151.899857,50.728058 145.719666,46.585655 139.363983,41.791656 
	C139.002991,40.915192 138.969986,40.499088 138.936981,40.082981 
	C145.841553,44.453991 153.052322,48.423992 159.522354,53.364120 
	C162.788727,55.858116 164.963531,59.961903 167.125168,63.635956 
	C168.019165,65.155449 167.585037,67.456360 167.535095,69.694862 
z"/>
<path fill="#0BAEFA" opacity="1.000000" stroke="none" 
	d="
M138.660583,39.945644 
	C138.969986,40.499088 139.002991,40.915192 139.061172,41.642937 
	C138.159500,42.595657 137.232651,43.236744 135.674942,44.020386 
	C133.698364,43.438320 132.352661,42.713707 131.021515,41.658394 
	C131.013855,40.886913 130.991592,40.446133 131.223358,39.820183 
	C131.658432,39.041660 131.839462,38.448296 132.020477,37.854931 
	C133.057144,37.923855 134.093796,37.992779 135.519104,38.075058 
	C136.733215,38.661709 137.558701,39.235008 138.660583,39.945644 
z"/>
<path fill="#5BC9FD" opacity="1.000000" stroke="none" 
	d="
M163.902740,108.232224 
	C164.615097,104.067062 165.643860,99.763115 167.003494,95.231262 
	C168.298920,99.843384 168.641541,104.535400 163.902740,108.232224 
z"/>
<path fill="#5BC9FD" opacity="1.000000" stroke="none" 
	d="
M167.550552,80.714233 
	C167.119690,79.136536 166.902420,77.281273 167.008423,75.214676 
	C167.475845,76.814453 167.619995,78.625557 167.550552,80.714233 
z"/>
<path fill="#04ACFD" opacity="1.000000" stroke="none" 
	d="
M138.985794,111.456985 
	C141.153763,111.971382 143.364624,112.354401 145.475540,113.043556 
	C147.040100,113.554337 148.474762,114.462975 149.987610,115.603592 
	C134.317078,116.017166 118.626205,116.021515 102.476151,115.661125 
	C103.345795,114.023293 104.674614,112.750206 106.459412,111.355652 
	C117.605522,111.308456 128.295654,111.382721 138.985794,111.456985 
z"/>
<path fill="#08ACFA" opacity="1.000000" stroke="none" 
	d="
M106.003441,111.477112 
	C104.674614,112.750206 103.345795,114.023293 102.007370,115.656776 
	C100.895592,116.023476 99.793404,116.029793 98.275879,116.065933 
	C97.566803,115.637604 97.273064,115.179436 96.978592,114.077194 
	C96.984535,112.954704 96.991203,112.476311 97.290375,111.972961 
	C98.053513,111.648720 98.524139,111.349411 99.434631,111.047981 
	C101.917480,111.189606 103.960457,111.333359 106.003441,111.477112 
z"/>
<path fill="#1AB3FB" opacity="1.000000" stroke="none" 
	d="
M114.802963,36.276649 
	C116.432930,35.695671 117.859238,35.383698 119.593773,35.470791 
	C119.592850,37.301140 119.283707,38.732422 118.829834,40.222610 
	C118.685112,40.281517 118.373260,40.301670 117.996048,40.237709 
	C114.558685,42.558239 109.566330,42.778999 108.672264,48.094872 
	C105.036163,50.607094 101.685173,52.932835 97.964355,55.205078 
	C94.760384,57.106956 91.926239,59.062332 88.794647,61.003426 
	C88.299164,60.974792 88.101151,60.960453 87.905663,60.578873 
	C89.580589,58.129299 91.283714,56.070660 92.914169,53.955990 
	C93.934898,52.632122 94.846268,51.223927 95.806709,49.853573 
	C95.806709,49.853573 95.870705,49.870655 96.240448,49.894077 
	C100.693817,46.563747 104.777451,43.209995 108.861084,39.856247 
	C110.773819,38.752716 112.686562,37.649189 114.802963,36.276649 
z"/>
<path fill="#54C7FE" opacity="1.000000" stroke="none" 
	d="
M95.473541,49.914284 
	C94.846268,51.223927 93.934898,52.632122 92.914169,53.955990 
	C91.283714,56.070660 89.580589,58.129299 87.877487,60.827126 
	C87.846779,61.442623 87.744034,61.930565 87.431007,61.997314 
	C85.836327,63.090210 84.554665,64.116356 83.273010,65.142502 
	C84.186867,57.706593 89.381310,53.619904 95.473541,49.914284 
z"/>
<path fill="#54C7FE" opacity="1.000000" stroke="none" 
	d="
M108.516319,39.912407 
	C104.777451,43.209995 100.693817,46.563747 96.236298,49.861221 
	C99.965454,46.526150 104.068504,43.247356 108.516319,39.912407 
z"/>
<path fill="#1AB3FB" opacity="1.000000" stroke="none" 
	d="
M83.209358,65.447876 
	C84.554665,64.116356 85.836327,63.090210 87.755554,62.025856 
	C88.607910,62.002682 88.822678,62.017712 89.038414,62.430679 
	C89.018837,63.890282 88.998291,64.951942 88.615540,66.013268 
	C86.869537,66.336685 85.485748,66.660454 84.101967,66.984215 
	C84.101967,66.984215 83.630669,66.966644 83.396378,66.983253 
	C83.156631,66.584328 83.151169,66.168793 83.209358,65.447876 
z"/>
<path fill="#08ACFA" opacity="1.000000" stroke="none" 
	d="
M84.057655,67.452934 
	C85.485748,66.660454 86.869537,66.336685 88.843216,66.025330 
	C89.433113,66.037735 89.887924,66.012474 89.902832,66.473022 
	C89.743690,78.836472 89.569649,90.739365 89.278839,103.041870 
	C90.798248,106.285042 92.434425,109.128586 93.686661,111.979889 
	C92.534645,111.991653 91.766586,111.995651 90.998520,111.999657 
	C86.392212,107.160637 83.989159,101.403709 83.967232,94.720657 
	C83.937927,85.787804 83.993958,76.854668 84.057655,67.452934 
z"/>
<path fill="#0EABF5" opacity="1.000000" stroke="none" 
	d="
M91.085800,112.266998 
	C91.766586,111.995651 92.534645,111.991653 94.051239,111.977295 
	C95.532463,111.977257 96.265160,111.987579 96.997864,111.997910 
	C96.991203,112.476311 96.984535,112.954704 96.957108,113.792923 
	C95.565018,114.124802 94.193687,114.096870 92.411026,114.034470 
	C91.724159,113.511444 91.448616,113.022888 91.085800,112.266998 
z"/>
<path fill="#0BAEFA" opacity="1.000000" stroke="none" 
	d="
M118.974564,40.163704 
	C119.283707,38.732422 119.592850,37.301140 119.961906,35.511925 
	C123.203262,35.537128 126.384712,35.920269 129.794388,36.981331 
	C130.012970,38.435150 130.003311,39.211044 129.782913,40.084553 
	C129.293030,40.348194 129.105591,40.586369 128.584015,40.886124 
	C125.097000,40.638271 122.035782,40.400990 118.974564,40.163704 
z"/>
<path fill="#1AB3FB" opacity="1.000000" stroke="none" 
	d="
M129.993668,39.986942 
	C130.003311,39.211044 130.012970,38.435150 130.043121,37.269547 
	C130.603851,37.051403 131.144073,37.222965 131.852386,37.624733 
	C131.839462,38.448296 131.658432,39.041660 130.979523,39.821533 
	C130.481644,40.008045 129.993668,39.986942 129.993668,39.986942 
z"/>
<path fill="#91DDFF" opacity="1.000000" stroke="none" 
	d="
M118.829834,40.222610 
	C122.035782,40.400990 125.097000,40.638271 128.731308,41.158531 
	C129.871918,41.624031 130.439423,41.806564 131.006943,41.989094 
	C132.352661,42.713707 133.698364,43.438320 135.367645,44.160465 
	C136.183731,44.778557 136.676254,45.399120 137.600922,46.323776 
	C138.321838,46.801537 138.610611,46.975208 138.899399,47.148880 
	C138.899399,47.148880 139.266602,47.287506 139.586060,47.614899 
	C141.555084,49.026924 143.204666,50.111553 144.854248,51.196182 
	C145.305054,51.499683 145.755875,51.803181 146.573059,52.470348 
	C147.927170,53.601082 148.914902,54.368145 149.902618,55.135212 
	C149.902618,55.135212 150.283707,55.258018 150.606873,55.578083 
	C152.276505,56.948914 153.622940,57.999683 154.969391,59.050453 
	C155.501160,59.588764 156.032944,60.127075 156.812500,61.160286 
	C158.269791,62.882381 159.479309,64.109573 160.688828,65.336769 
	C160.741745,67.598640 160.794662,69.860519 160.608490,72.882851 
	C160.522446,81.770805 160.675491,89.898308 160.828537,98.025803 
	C160.599945,99.449837 160.371338,100.873878 159.835388,102.825638 
	C158.640503,104.852615 157.752991,106.351852 156.865479,107.851089 
	C156.865479,107.851097 156.984985,107.990715 156.593826,107.971603 
	C154.797928,108.946770 153.393204,109.941040 151.988464,110.935310 
	C147.953720,111.021896 143.918991,111.108475 139.435028,111.326019 
	C128.295654,111.382721 117.605522,111.308456 106.459412,111.355652 
	C103.960457,111.333359 101.917480,111.189606 99.234497,110.772888 
	C95.528198,107.880699 92.461899,105.261475 89.395599,102.642258 
	C89.569649,90.739365 89.743690,78.836472 90.186081,66.276001 
	C93.081017,62.165142 95.707596,58.711857 98.334183,55.258575 
	C101.685173,52.932835 105.036163,50.607094 108.994133,47.990562 
	C112.525162,45.233742 115.449211,42.767704 118.373260,40.301670 
	C118.373260,40.301670 118.685112,40.281517 118.829834,40.222610 
M95.993591,61.623455 
	C92.332703,66.523338 91.501633,72.046440 91.841064,78.042740 
	C92.179184,84.015724 91.891769,90.022797 91.925591,96.014664 
	C91.964806,102.963058 97.822166,109.018509 104.650604,109.045235 
	C118.298950,109.098648 131.947739,109.090065 145.596161,109.046616 
	C152.071274,109.026001 158.019943,103.240158 158.092560,96.831474 
	C158.186874,88.510223 158.548309,80.154892 157.921844,71.880310 
	C157.660721,68.431206 156.024094,64.102089 153.494812,61.997650 
	C146.548935,56.218445 138.971222,51.133461 131.316940,46.289856 
	C124.204247,41.788963 119.927528,42.533783 113.744514,47.651924 
	C108.134315,52.295929 102.311783,56.683441 95.993591,61.623455 
z"/>
<path fill="#39BEFC" opacity="1.000000" stroke="none" 
	d="
M161.147064,97.743675 
	C160.675491,89.898308 160.522446,81.770805 160.610199,73.310959 
	C161.219406,76.016350 161.860046,79.050941 161.895187,82.092529 
	C161.954346,87.213196 161.629105,92.338310 161.147064,97.743675 
z"/>
<path fill="#39BEFC" opacity="1.000000" stroke="none" 
	d="
M144.869125,50.825668 
	C143.204666,50.111553 141.555084,49.026924 139.781860,47.628117 
	C141.400146,48.361012 143.142075,49.408085 144.869125,50.825668 
z"/>
<path fill="#39BEFC" opacity="1.000000" stroke="none" 
	d="
M157.222595,107.867706 
	C157.752991,106.351852 158.640503,104.852615 159.815918,103.187302 
	C161.923340,106.023338 159.738037,106.946823 157.222595,107.867706 
z"/>
<path fill="#39BEFC" opacity="1.000000" stroke="none" 
	d="
M152.180267,111.188202 
	C153.393204,109.941040 154.797928,108.946770 156.526917,107.908539 
	C155.358139,109.056755 153.865112,110.248932 152.180267,111.188202 
z"/>
<path fill="#39BEFC" opacity="1.000000" stroke="none" 
	d="
M154.947601,58.694351 
	C153.622940,57.999683 152.276505,56.948914 150.806488,55.593517 
	C152.097214,56.305344 153.511520,57.321800 154.947601,58.694351 
z"/>
<path fill="#39BEFC" opacity="1.000000" stroke="none" 
	d="
M160.759796,64.971481 
	C159.479309,64.109573 158.269791,62.882381 157.053864,61.313183 
	C158.308578,62.182854 159.569672,63.394527 160.759796,64.971481 
z"/>
<path fill="#39BEFC" opacity="1.000000" stroke="none" 
	d="
M149.898941,54.772682 
	C148.914902,54.368145 147.927170,53.601082 146.846756,52.518063 
	C147.801132,52.938126 148.848190,53.674141 149.898941,54.772682 
z"/>
<path fill="#39BEFC" opacity="1.000000" stroke="none" 
	d="
M138.807251,46.892208 
	C138.610611,46.975208 138.321838,46.801537 137.897339,46.409634 
	C138.079453,46.339447 138.397278,46.487492 138.807251,46.892208 
z"/>
<path fill="#39BEFC" opacity="1.000000" stroke="none" 
	d="
M131.021515,41.658394 
	C130.439423,41.806564 129.871918,41.624031 129.157104,41.169098 
	C129.105591,40.586369 129.293030,40.348194 129.782913,40.084553 
	C129.993668,39.986942 130.481644,40.008045 130.725494,40.006699 
	C130.991592,40.446133 131.013855,40.886913 131.021515,41.658394 
z"/>
<path fill="#39BEFC" opacity="1.000000" stroke="none" 
	d="
M89.278839,103.041870 
	C92.461899,105.261475 95.528198,107.880699 98.794632,110.775009 
	C98.524139,111.349411 98.053513,111.648720 97.290375,111.972961 
	C96.265160,111.987579 95.532463,111.977257 94.435181,111.969528 
	C92.434425,109.128586 90.798248,106.285042 89.278839,103.041870 
z"/>
<path fill="#39BEFC" opacity="1.000000" stroke="none" 
	d="
M97.964355,55.205078 
	C95.707596,58.711857 93.081017,62.165142 90.171173,65.815445 
	C89.887924,66.012474 89.433113,66.037735 89.205429,66.025673 
	C88.998291,64.951942 89.018837,63.890282 89.045837,62.176384 
	C89.065559,61.355343 89.078827,61.186527 89.092102,61.017712 
	C91.926239,59.062332 94.760384,57.106956 97.964355,55.205078 
z"/>
<path fill="#39BEFC" opacity="1.000000" stroke="none" 
	d="
M117.996048,40.237709 
	C115.449211,42.767704 112.525162,45.233742 109.279243,47.804085 
	C109.566330,42.778999 114.558685,42.558239 117.996048,40.237709 
z"/>
<path fill="#08ACFA" opacity="1.000000" stroke="none" 
	d="
M88.794647,61.003426 
	C89.078827,61.186527 89.065559,61.355343 89.044876,61.778450 
	C88.822678,62.017712 88.607910,62.002682 88.068588,61.959106 
	C87.744034,61.930565 87.846779,61.442623 87.874954,61.194370 
	C88.101151,60.960453 88.299164,60.974792 88.794647,61.003426 
z"/>
<path fill="#E1F7FF" opacity="1.000000" stroke="none" 
	d="
M96.288223,61.403740 
	C102.311783,56.683441 108.134315,52.295929 113.744514,47.651924 
	C119.927528,42.533783 124.204247,41.788963 131.316940,46.289856 
	C138.971222,51.133461 146.548935,56.218445 153.494812,61.997650 
	C156.024094,64.102089 157.660721,68.431206 157.921844,71.880310 
	C158.548309,80.154892 158.186874,88.510223 158.092560,96.831474 
	C158.019943,103.240158 152.071274,109.026001 145.596161,109.046616 
	C131.947739,109.090065 118.298950,109.098648 104.650604,109.045235 
	C97.822166,109.018509 91.964806,102.963058 91.925591,96.014664 
	C91.891769,90.022797 92.179184,84.015724 91.841064,78.042740 
	C91.501633,72.046440 92.332703,66.523338 96.288223,61.403740 
M121.933502,83.584198 
	C121.438026,88.778671 120.835800,93.965981 120.487091,99.170288 
	C120.277878,102.292755 122.085403,103.630165 125.156776,103.601913 
	C128.295471,103.573021 129.716415,102.030754 129.711700,98.979881 
	C129.706314,95.484436 129.769623,91.988098 129.710999,88.493698 
	C129.616455,82.856209 128.491409,82.044540 121.933502,83.584198 
z"/>
<path fill="#32BAFA" opacity="1.000000" stroke="none" 
	d="
M122.257095,83.385750 
	C128.491409,82.044540 129.616455,82.856209 129.710999,88.493698 
	C129.769623,91.988098 129.706314,95.484436 129.711700,98.979881 
	C129.716415,102.030754 128.295471,103.573021 125.156776,103.601913 
	C122.085403,103.630165 120.277878,102.292755 120.487091,99.170288 
	C120.835800,93.965981 121.438026,88.778671 122.257095,83.385750 
z"/>
</svg>