<svg version="1.1" id="Layer_1" xmlns="http://www.w3.org/2000/svg" xmlns:xlink="http://www.w3.org/1999/xlink" x="0px" y="0px"
	 width="100%" viewBox="0 0 96 64" enable-background="new 0 0 96 64" xml:space="preserve">
<path fill="#F5F5F5" opacity="1.000000" stroke="none" 
	d="
M65.000000,65.000000 
	C43.333332,65.000000 22.166666,65.000000 1.000000,65.000000 
	C1.000000,43.666668 1.000000,22.333334 1.000000,1.000000 
	C33.000000,1.000000 65.000000,1.000000 97.000000,1.000000 
	C97.000000,22.333334 97.000000,43.666668 97.000000,65.000000 
	C86.500000,65.000000 76.000000,65.000000 65.000000,65.000000 
M86.015343,17.182676 
	C87.570374,14.805000 88.533203,12.498985 84.512405,10.389093 
	C84.025154,10.530247 83.537910,10.671399 82.162109,10.454156 
	C60.728149,10.402212 39.294197,10.338749 17.860212,10.321164 
	C16.224295,10.319822 14.588112,10.643151 12.281706,10.412056 
	C11.785114,10.524837 11.288523,10.637617 10.010801,10.840878 
	C8.505754,13.191975 7.499250,15.482357 11.495792,17.589449 
	C11.980233,17.455507 12.464675,17.321568 13.837876,17.544819 
	C34.940289,17.597610 56.042686,17.664307 77.145126,17.680290 
	C79.113953,17.681782 81.083015,17.362387 83.726807,17.596575 
	C84.228683,17.494490 84.730553,17.392405 86.015343,17.182676 
M43.500202,48.550079 
	C34.018364,48.554817 24.536486,48.546185 15.054704,48.572304 
	C12.143210,48.580326 9.255340,48.501472 9.240577,52.789768 
	C9.225230,57.247562 12.333993,56.819740 15.122616,56.824066 
	C37.080463,56.858124 59.038399,56.856003 80.996269,56.832352 
	C83.831291,56.829300 86.877823,57.134205 86.818375,52.719769 
	C86.760429,48.417057 83.809090,48.581852 80.930412,48.574890 
	C68.787071,48.545513 56.643627,48.555256 43.500202,48.550079 
M36.500008,28.856668 
	C29.180714,28.866699 21.861399,28.890957 14.542135,28.879919 
	C11.515071,28.875355 8.902730,29.037716 8.806923,33.214611 
	C8.706327,37.600262 11.283892,37.970882 14.622669,37.964958 
	C36.913219,37.925407 59.203880,37.936794 81.494492,37.952579 
	C84.528130,37.954727 87.138763,37.806812 87.236031,33.633488 
	C87.338028,29.257765 84.751289,28.859415 81.415802,28.867130 
	C66.777298,28.900986 52.138622,28.866285 36.500008,28.856668 
z"/>
<path fill="#424242" opacity="1.000000" stroke="none" 
	d="
M44.000214,48.550385 
	C56.643627,48.555256 68.787071,48.545513 80.930412,48.574890 
	C83.809090,48.581852 86.760429,48.417057 86.818375,52.719769 
	C86.877823,57.134205 83.831291,56.829300 80.996269,56.832352 
	C59.038399,56.856003 37.080463,56.858124 15.122616,56.824066 
	C12.333993,56.819740 9.225230,57.247562 9.240577,52.789768 
	C9.255340,48.501472 12.143210,48.580326 15.054704,48.572304 
	C24.536486,48.546185 34.018364,48.554817 44.000214,48.550385 
z"/>
<path fill="#222222" opacity="1.000000" stroke="none" 
	d="
M83.051971,17.191980 
	C81.083015,17.362387 79.113953,17.681782 77.145126,17.680290 
	C56.042686,17.664307 34.940289,17.597610 13.435395,16.911961 
	C13.005960,14.457925 12.979006,12.636744 12.952052,10.815565 
	C14.588112,10.643151 16.224295,10.319822 17.860212,10.321164 
	C39.294197,10.338749 60.728149,10.402212 82.566338,11.088193 
	C82.997704,13.545480 83.024834,15.368731 83.051971,17.191980 
z"/>
<path fill="#7A7A7A" opacity="1.000000" stroke="none" 
	d="
M37.000008,28.856558 
	C52.138622,28.866285 66.777298,28.900986 81.415802,28.867130 
	C84.751289,28.859415 87.338028,29.257765 87.236031,33.633488 
	C87.138763,37.806812 84.528130,37.954727 81.494492,37.952579 
	C59.203880,37.936794 36.913219,37.925407 14.622669,37.964958 
	C11.283892,37.970882 8.706327,37.600262 8.806923,33.214611 
	C8.902730,29.037716 11.515071,28.875355 14.542135,28.879919 
	C21.861399,28.890957 29.180714,28.866699 37.000008,28.856558 
M50.500015,30.798082 
	C38.841209,30.804392 27.180862,30.722334 15.525483,30.925413 
	C14.016406,30.951708 12.533000,32.451405 11.037704,33.268600 
	C12.534781,34.199318 14.025288,35.928257 15.529925,35.940643 
	C37.013996,36.117493 58.500465,36.119133 79.984383,35.934109 
	C81.398560,35.921936 82.796776,34.057392 84.202423,33.054466 
	C82.795227,32.305454 81.400848,30.937002 79.978775,30.907595 
	C70.489159,30.711357 60.993626,30.800934 50.500015,30.798082 
z"/>
<path fill="#7B7B7B" opacity="1.000000" stroke="none" 
	d="
M10.791231,17.249258 
	C7.499250,15.482357 8.505754,13.191975 10.463405,11.258116 
	C10.874415,13.533320 10.832824,15.391290 10.791231,17.249258 
z"/>
<path fill="#424242" opacity="1.000000" stroke="none" 
	d="
M11.143512,17.419353 
	C10.832824,15.391290 10.874415,13.533320 10.853970,11.212875 
	C11.288523,10.637617 11.785114,10.524837 12.616879,10.613811 
	C12.979006,12.636744 13.005960,14.457925 12.991015,16.733366 
	C12.464675,17.321568 11.980233,17.455507 11.143512,17.419353 
z"/>
<path fill="#424242" opacity="1.000000" stroke="none" 
	d="
M83.389389,17.394278 
	C83.024834,15.368731 82.997704,13.545480 83.010612,11.267391 
	C83.537910,10.671399 84.025154,10.530247 84.806946,11.017145 
	C85.145134,13.526904 85.188782,15.408613 85.232430,17.290321 
	C84.730553,17.392405 84.228683,17.494490 83.389389,17.394278 
z"/>
<path fill="#7B7B7B" opacity="1.000000" stroke="none" 
	d="
M85.623886,17.236500 
	C85.188782,15.408613 85.145134,13.526904 85.166733,11.177079 
	C88.533203,12.498985 87.570374,14.805000 85.623886,17.236500 
z"/>
<path fill="#242424" opacity="1.000000" stroke="none" 
	d="
M51.000015,30.797884 
	C60.993626,30.800934 70.489159,30.711357 79.978775,30.907595 
	C81.400848,30.937002 82.795227,32.305454 84.202423,33.054466 
	C82.796776,34.057392 81.398560,35.921936 79.984383,35.934109 
	C58.500465,36.119133 37.013996,36.117493 15.529925,35.940643 
	C14.025288,35.928257 12.534781,34.199318 11.037704,33.268600 
	C12.533000,32.451405 14.016406,30.951708 15.525483,30.925413 
	C27.180862,30.722334 38.841209,30.804392 51.000015,30.797884 
z"/>
</svg>