<svg version="1.1" id="Layer_1" xmlns="http://www.w3.org/2000/svg" xmlns:xlink="http://www.w3.org/1999/xlink" x="0px" y="0px"
	 width="100%" viewBox="0 0 100 92" enable-background="new 0 0 100 92" xml:space="preserve">
<path fill="#FDFDFD" opacity="1.000000" stroke="none" 
	d="
M62.000000,1.000000 
	C74.983826,1.000000 87.967644,1.000000 100.975739,1.000000 
	C100.975739,31.612316 100.975739,62.224659 100.975739,92.918503 
	C67.762657,92.918503 34.525043,92.918503 1.143717,92.918503 
	C1.143717,62.333797 1.143717,31.666998 1.143717,1.000000 
	C10.419206,1.000000 19.740944,1.000000 29.521072,1.352466 
	C29.672039,2.824625 29.364616,3.944318 28.719120,5.199602 
	C25.578609,7.188889 22.776175,9.042584 19.696823,11.007803 
	C18.895382,11.707915 18.370855,12.296505 17.503874,12.932966 
	C13.612847,17.958670 9.862881,22.810797 6.632108,27.986982 
	C5.593237,29.651409 5.923419,32.170345 5.541792,34.581047 
	C5.790778,35.611294 6.125247,36.358841 6.408054,37.425072 
	C6.183147,38.806004 6.009902,39.868252 5.489594,40.922569 
	C5.362816,41.976192 5.583099,43.037750 5.949759,44.430618 
	C6.225658,46.516514 6.355182,48.271095 6.213972,50.210670 
	C5.904695,51.266754 5.866151,52.137840 5.574966,53.264137 
	C4.259575,57.083702 5.860595,59.422203 8.873009,61.460564 
	C9.250802,62.574406 9.581611,63.360477 9.917706,64.506516 
	C12.327438,72.557022 18.442213,76.969971 24.855844,80.691559 
	C29.011169,83.102722 33.811028,84.964615 38.534298,85.689125 
	C44.062592,86.537125 49.834858,86.124718 55.476715,85.813545 
	C61.677261,85.471565 67.216217,83.371475 71.374649,78.017715 
	C72.774895,78.872429 73.801773,79.730583 74.839478,80.575432 
	C77.148300,82.455147 79.462555,84.328201 81.849548,86.564972 
	C84.112617,87.886520 86.254745,89.379601 88.508980,89.574234 
	C89.574043,89.666176 90.853882,87.270500 92.024864,85.601807 
	C92.009613,84.134392 92.005898,83.067101 92.231720,81.834740 
	C91.978294,81.109642 91.495323,80.549622 91.007225,79.994408 
	C91.002098,79.999207 91.009392,79.988640 90.993713,79.638809 
	C88.740227,77.111397 86.502419,74.933815 84.113052,72.440094 
	C82.666512,71.723999 81.371544,71.324051 80.023590,70.558144 
	C80.317322,69.290924 80.477661,68.247360 81.040024,67.510719 
	C85.877190,61.174641 90.114799,54.670906 88.805908,46.087261 
	C88.557632,44.459072 88.636337,42.748718 88.788498,41.096943 
	C89.888100,29.160809 83.637642,20.377848 76.177200,12.255473 
	C75.020889,10.996562 72.472946,11.015865 70.307999,10.392300 
	C69.701759,10.320049 69.356094,10.299565 68.970863,9.951223 
	C68.360924,8.965411 67.790535,8.307458 67.185677,7.314375 
	C65.791092,6.285548 64.430984,5.591850 63.027779,4.559749 
	C62.656452,3.147563 62.328228,2.073781 62.000000,1.000000 
z"/>
<path fill="#D6D6D6" opacity="1.000000" stroke="none" 
	d="
M61.531342,1.000000 
	C62.328228,2.073781 62.656452,3.147563 62.657837,4.570502 
	C59.217739,4.230799 56.104488,3.541937 52.672031,2.867798 
	C51.241558,3.051822 50.130291,3.221124 48.625275,3.276603 
	C47.149418,3.227217 46.067314,3.291653 44.782635,3.079875 
	C43.204189,2.781889 41.828316,2.760118 40.066479,2.552340 
	C36.139408,3.265560 32.598301,4.164786 29.057192,5.064012 
	C29.364616,3.944318 29.672039,2.824625 29.989731,1.352466 
	C40.354229,1.000000 50.708454,1.000000 61.531342,1.000000 
z"/>
<path fill="#2D2D2D" opacity="1.000000" stroke="none" 
	d="
M5.836656,40.930504 
	C6.009902,39.868252 6.183147,38.806004 6.785019,37.318676 
	C7.981922,34.510178 8.750198,32.126751 9.589177,29.437864 
	C9.742078,28.722586 9.824277,28.312769 10.233479,27.790751 
	C11.549490,25.701107 12.538498,23.723667 13.612809,21.522434 
	C13.698112,21.298641 13.860423,20.847982 14.176847,20.769894 
	C15.607916,20.108988 16.722559,19.526171 18.131790,19.060722 
	C18.987265,19.472174 19.548149,19.766254 19.934338,20.355747 
	C15.583551,26.140535 11.863389,31.816685 12.168400,39.593399 
	C12.149011,41.864449 12.027688,43.697945 12.158156,45.513340 
	C12.722306,53.363243 15.187343,60.411652 21.150030,66.286804 
	C22.176010,67.392784 23.102962,68.181351 24.157890,69.286102 
	C33.895802,78.783669 45.416935,79.488251 57.537529,76.795891 
	C58.902935,76.492599 59.846252,74.289124 61.231651,72.854233 
	C61.833759,72.707115 62.189526,72.672585 62.930588,72.818672 
	C68.206451,72.466957 75.692520,65.024956 76.717407,59.472710 
	C76.877426,58.804211 76.957237,58.419403 77.369942,57.994484 
	C78.496712,56.973198 79.290596,55.992016 80.331116,55.230782 
	C81.044701,56.632530 81.511642,57.814327 81.834366,59.314529 
	C80.668358,61.920391 79.646568,64.207848 78.579247,66.705742 
	C78.533707,66.916176 78.310486,67.284409 77.932068,67.232124 
	C75.056602,69.810364 72.559570,72.440895 69.731491,75.208786 
	C63.940060,77.608467 58.479668,79.870789 52.615936,82.081192 
	C51.182590,82.571114 50.152592,83.112953 48.670815,83.622208 
	C45.797817,83.517570 43.376595,83.445518 40.864201,82.996246 
	C35.411453,80.590645 30.049877,78.562263 24.376911,76.447540 
	C23.314198,75.958328 22.562874,75.555458 21.847408,74.785233 
	C20.838800,73.731590 19.794333,73.045303 18.599382,72.141388 
	C18.180380,71.697113 17.911861,71.470474 17.716213,70.895958 
	C16.470142,69.088501 15.151203,67.628922 13.742654,65.954185 
	C13.653044,65.739037 13.478495,65.306816 13.603874,64.953308 
	C12.481853,61.400688 11.234452,58.201572 10.235586,54.815681 
	C9.672194,53.411621 8.860266,52.194324 7.858264,50.705757 
	C7.273695,50.298214 6.879200,50.161945 6.484704,50.025681 
	C6.355182,48.271095 6.225658,46.516514 6.185066,44.069252 
	C6.128216,42.561214 5.982436,41.745857 5.836656,40.930504 
z"/>
<path fill="#A4A4A4" opacity="1.000000" stroke="none" 
	d="
M78.310486,67.284409 
	C78.310486,67.284409 78.533707,66.916176 78.845413,66.523926 
	C83.472092,60.471722 86.709999,54.410088 86.341049,46.552246 
	C86.356873,44.080978 86.328545,42.044331 86.519562,39.733871 
	C85.684250,32.447620 84.245705,25.598635 78.611618,20.287075 
	C78.552376,20.063389 78.320328,19.662973 78.250656,19.330593 
	C75.568115,16.859314 72.955246,14.720413 70.324493,12.354559 
	C70.393936,11.566426 70.481247,11.005247 70.568558,10.444067 
	C72.472946,11.015865 75.020889,10.996562 76.177200,12.255473 
	C83.637642,20.377848 89.888100,29.160809 88.788498,41.096943 
	C88.636337,42.748718 88.557632,44.459072 88.805908,46.087261 
	C90.114799,54.670906 85.877190,61.174641 81.040024,67.510719 
	C80.477661,68.247360 80.317322,69.290924 80.015350,70.806427 
	C80.060104,71.420662 80.087662,71.916046 79.756386,71.924759 
	C78.612320,71.284004 77.799538,70.634552 77.133545,69.716652 
	C77.623726,68.726944 77.967110,68.005676 78.310486,67.284409 
z"/>
<path fill="#272727" opacity="1.000000" stroke="none" 
	d="
M78.320328,19.662975 
	C78.320328,19.662973 78.552376,20.063389 78.417114,20.665771 
	C78.877151,22.682114 79.428917,24.116516 80.080482,25.504047 
	C80.683731,26.788675 82.066750,28.097639 81.937408,29.266535 
	C81.441566,33.747440 83.791718,36.864441 86.300232,40.007679 
	C86.328545,42.044331 86.356873,44.080978 85.988800,46.688477 
	C83.632843,50.939129 81.101341,54.442841 81.978577,58.996124 
	C81.511642,57.814327 81.044701,56.632530 80.294052,54.851357 
	C79.874489,53.763351 79.738617,53.274719 79.674225,52.336819 
	C79.819916,46.091389 80.864166,40.084064 79.662880,34.565559 
	C78.693581,30.112818 75.014389,26.249975 72.524055,21.821060 
	C71.598076,20.729937 70.685463,19.943184 69.768257,18.821274 
	C68.145309,17.045797 66.526955,15.605477 64.958626,13.810013 
	C65.406288,12.877742 65.803917,12.300615 66.491028,11.732674 
	C67.523811,11.254265 68.267113,10.766673 69.010422,10.279081 
	C69.356094,10.299565 69.701759,10.320049 70.307999,10.392300 
	C70.481247,11.005247 70.393936,11.566426 70.310303,12.718365 
	C72.982758,15.427074 75.651543,17.545025 78.320328,19.662975 
z"/>
<path fill="#C9C9C9" opacity="1.000000" stroke="none" 
	d="
M17.643345,71.243835 
	C17.911861,71.470474 18.180380,71.697113 18.643887,72.458984 
	C19.829765,73.713676 20.820658,74.433136 21.811550,75.152596 
	C22.562874,75.555458 23.314198,75.958328 24.465963,76.767792 
	C29.517973,81.087173 34.411236,84.372650 40.955372,83.373466 
	C43.376595,83.445518 45.797817,83.517570 48.937752,83.812637 
	C50.771725,84.027420 51.886993,84.019180 53.408989,84.040993 
	C59.543068,81.708046 65.270424,79.345039 70.999695,77.240295 
	C71.003143,77.670753 71.004669,77.842934 71.006195,78.015114 
	C67.216217,83.371475 61.677261,85.471565 55.476715,85.813545 
	C49.834858,86.124718 44.062592,86.537125 38.534298,85.689125 
	C33.811028,84.964615 29.011169,83.102722 24.855844,80.691559 
	C18.442213,76.969971 12.327438,72.557022 10.237571,64.501404 
	C11.527597,64.526489 12.503046,64.916656 13.478495,65.306816 
	C13.478495,65.306816 13.653044,65.739037 13.717758,66.305603 
	C15.069431,68.329391 16.356388,69.786613 17.643345,71.243835 
z"/>
<path fill="#BDBDBD" opacity="1.000000" stroke="none" 
	d="
M9.906476,27.902952 
	C9.824277,28.312769 9.742078,28.722586 9.282282,29.530079 
	C7.812214,31.384621 6.719745,32.841488 5.627275,34.298351 
	C5.923419,32.170345 5.593237,29.651409 6.632108,27.986982 
	C9.862881,22.810797 13.612847,17.958670 17.552193,13.276381 
	C17.911695,14.263321 17.880421,14.954720 17.815182,15.695822 
	C17.781218,15.745524 17.673130,15.798557 17.340893,15.858556 
	C15.959243,17.561697 14.909833,19.204840 13.860423,20.847982 
	C13.860423,20.847982 13.698112,21.298641 13.286463,21.610903 
	C11.885368,23.916428 10.895923,25.909689 9.906476,27.902952 
z"/>
<path fill="#A4A4A4" opacity="1.000000" stroke="none" 
	d="
M28.719120,5.199603 
	C32.598301,4.164786 36.139408,3.265560 39.928108,2.743702 
	C39.779163,3.386890 39.382618,3.652709 38.609741,3.921537 
	C35.692078,5.093496 33.150753,6.262446 30.314430,7.492943 
	C29.628687,7.647898 29.237944,7.741305 28.507347,7.841542 
	C26.650774,9.044693 25.134052,10.241014 23.335506,11.524149 
	C22.677763,11.726822 22.301844,11.842682 21.631334,11.920036 
	C20.882408,11.553114 20.428074,11.224697 19.973738,10.896280 
	C22.776175,9.042584 25.578609,7.188889 28.719120,5.199603 
z"/>
<path fill="#7D7D7D" opacity="1.000000" stroke="none" 
	d="
M13.603874,64.953308 
	C12.503046,64.916656 11.527597,64.526489 10.232284,64.141441 
	C9.581611,63.360477 9.250802,62.574406 8.979984,61.081337 
	C7.969186,57.919209 6.898396,55.464066 5.827607,53.008926 
	C5.866151,52.137840 5.904695,51.266754 6.213971,50.210674 
	C6.879200,50.161945 7.273695,50.298214 7.848642,51.042389 
	C8.681747,52.767685 9.334399,53.885067 9.987051,55.002453 
	C11.234452,58.201572 12.481853,61.400688 13.603874,64.953308 
z"/>
<path fill="#A4A4A4" opacity="1.000000" stroke="none" 
	d="
M52.991234,2.853076 
	C56.104488,3.541937 59.217739,4.230799 62.700935,4.908907 
	C64.430984,5.591850 65.791092,6.285548 66.808640,7.434733 
	C65.678680,7.860111 64.891273,7.830001 63.852886,7.748857 
	C63.432293,7.716169 63.262676,7.734516 62.935555,7.628907 
	C62.778042,7.504951 62.398273,7.376611 62.220528,7.116917 
	C61.048481,6.526099 60.054184,6.194975 58.817520,5.611806 
	C56.713848,4.524199 54.852543,3.688637 52.991234,2.853076 
z"/>
<path fill="#CECECE" opacity="1.000000" stroke="none" 
	d="
M71.374649,78.017715 
	C71.004669,77.842934 71.003143,77.670753 71.297165,77.073273 
	C73.224411,77.149231 74.856102,77.650490 76.560791,78.412682 
	C76.708405,78.838120 76.783035,79.002625 76.892349,79.495346 
	C78.197289,80.946342 79.467545,82.069130 80.762680,83.201935 
	C80.787560,83.211952 80.806641,83.262077 80.843781,83.554611 
	C81.322205,84.497505 81.763496,85.147858 82.098160,85.900620 
	C81.991524,86.003036 81.774590,86.203972 81.774590,86.203972 
	C79.462555,84.328201 77.148300,82.455147 74.839478,80.575432 
	C73.801773,79.730583 72.774895,78.872429 71.374649,78.017715 
z"/>
<path fill="#CECECE" opacity="1.000000" stroke="none" 
	d="
M92.036400,86.001938 
	C90.853882,87.270500 89.574043,89.666176 88.508980,89.574234 
	C86.254745,89.379601 84.112617,87.886520 81.849548,86.564972 
	C81.774590,86.203972 81.991524,86.003036 82.336929,86.067001 
	C83.205208,86.320305 83.728096,86.509651 84.470810,86.907204 
	C86.617996,86.801422 88.545357,86.487427 90.736107,86.164795 
	C91.345131,86.104759 91.690765,86.053345 92.036400,86.001938 
z"/>
<path fill="#7D7D7D" opacity="1.000000" stroke="none" 
	d="
M5.541792,34.581047 
	C6.719745,32.841488 7.812214,31.384621 9.211578,29.835541 
	C8.750198,32.126751 7.981922,34.510178 6.836680,36.999992 
	C6.125247,36.358841 5.790778,35.611294 5.541792,34.581047 
z"/>
<path fill="#BDBDBD" opacity="1.000000" stroke="none" 
	d="
M5.574965,53.264137 
	C6.898396,55.464066 7.969186,57.919209 8.933000,60.753574 
	C5.860595,59.422203 4.259575,57.083702 5.574965,53.264137 
z"/>
<path fill="#CECECE" opacity="1.000000" stroke="none" 
	d="
M84.264618,72.756233 
	C86.502419,74.933815 88.740227,77.111397 90.636673,79.664970 
	C89.822479,80.078613 89.349632,80.116249 88.727127,79.960602 
	C88.355827,79.526466 88.107895,79.316696 87.873924,78.783081 
	C86.898903,77.671677 85.883614,76.915192 84.715652,75.968620 
	C84.348763,75.531174 84.106712,75.314987 83.900330,74.810272 
	C83.906425,74.061440 83.849030,73.632301 83.909149,73.090652 
	C84.026672,72.978149 84.264618,72.756233 84.264618,72.756233 
z"/>
<path fill="#7D7D7D" opacity="1.000000" stroke="none" 
	d="
M19.696823,11.007803 
	C20.428074,11.224697 20.882408,11.553114 21.639549,12.290398 
	C20.577951,13.681549 19.213547,14.663834 17.849144,15.646118 
	C17.880421,14.954720 17.911695,14.263321 17.894650,13.228508 
	C18.370855,12.296505 18.895382,11.707915 19.696823,11.007803 
z"/>
<path fill="#878787" opacity="1.000000" stroke="none" 
	d="
M88.876785,80.153893 
	C89.349632,80.116249 89.822479,80.078613 90.652359,80.014801 
	C91.009392,79.988640 91.002098,79.999207 90.995743,80.297592 
	C91.326981,81.063927 91.664581,81.531868 92.002182,81.999817 
	C92.005898,83.067101 92.009613,84.134392 92.024864,85.601807 
	C91.690765,86.053345 91.345131,86.104759 90.598923,85.787552 
	C89.757828,83.663918 89.317307,81.908905 88.876785,80.153893 
z"/>
<path fill="#5B5B5B" opacity="1.000000" stroke="none" 
	d="
M64.103867,7.799891 
	C64.891273,7.830001 65.678680,7.860111 66.843124,7.769862 
	C67.790535,8.307458 68.360924,8.965411 68.970863,9.951223 
	C68.267113,10.766673 67.523811,11.254265 66.401855,11.434278 
	C65.383423,10.017764 64.743645,8.908828 64.103867,7.799891 
z"/>
<path fill="#CECECE" opacity="1.000000" stroke="none" 
	d="
M80.087662,71.916046 
	C80.087662,71.916046 80.060104,71.420662 80.068344,71.172379 
	C81.371544,71.324051 82.666512,71.723999 84.113052,72.440094 
	C84.264618,72.756233 84.026672,72.978149 83.598930,72.990875 
	C82.143349,72.641090 81.115501,72.278572 80.087662,71.916046 
z"/>
<path fill="#BDBDBD" opacity="1.000000" stroke="none" 
	d="
M5.489594,40.922569 
	C5.982436,41.745857 6.128216,42.561214 6.038689,43.737938 
	C5.583099,43.037750 5.362816,41.976192 5.489594,40.922569 
z"/>
<path fill="#CECECE" opacity="1.000000" stroke="none" 
	d="
M92.231720,81.834740 
	C91.664581,81.531868 91.326981,81.063927 91.000870,80.292793 
	C91.495323,80.549622 91.978294,81.109642 92.231720,81.834740 
z"/>
<path fill="#272727" opacity="1.000000" stroke="none" 
	d="
M17.815182,15.695821 
	C19.213547,14.663834 20.577951,13.681549 21.934139,12.328903 
	C22.301844,11.842682 22.677763,11.726822 23.695118,11.677591 
	C25.840101,10.441051 27.343649,9.137881 28.847198,7.834712 
	C29.237944,7.741305 29.628687,7.647898 30.721954,7.651134 
	C33.957394,6.850814 36.490314,5.953851 39.417339,5.041744 
	C41.536034,4.469764 43.260620,3.912927 44.985207,3.356091 
	C46.067314,3.291653 47.149418,3.227217 48.688869,3.596923 
	C52.436760,5.321709 55.727306,6.612353 59.449749,7.921862 
	C60.720520,7.752689 61.559399,7.564651 62.398273,7.376611 
	C62.398273,7.376611 62.778042,7.504951 62.860786,8.006090 
	C61.922344,8.825035 60.920551,9.258273 59.875473,9.433848 
	C58.270039,9.703563 56.634853,9.796196 54.643009,9.935138 
	C53.791458,9.806281 53.309196,9.706256 52.566315,9.404015 
	C50.861862,9.492982 49.418030,9.784163 47.613461,10.244917 
	C46.195919,10.478780 45.139111,10.543072 43.911186,10.247306 
	C40.930603,10.059953 38.121140,10.232656 34.968842,10.301795 
	C33.707577,11.046184 32.789146,11.894137 31.571238,12.966150 
	C27.847662,15.459970 24.423565,17.729731 20.776554,20.010227 
	C20.553640,20.020966 20.109034,20.060333 20.109034,20.060333 
	C19.548149,19.766254 18.987265,19.472174 18.169514,18.667305 
	C17.832808,17.370531 17.752970,16.584545 17.673130,15.798557 
	C17.673130,15.798557 17.781218,15.745524 17.815182,15.695821 
z"/>
<path fill="#545454" opacity="1.000000" stroke="none" 
	d="
M59.017853,7.902997 
	C55.727306,6.612353 52.436760,5.321709 49.082619,3.710746 
	C50.130291,3.221124 51.241558,3.051822 52.672031,2.867798 
	C54.852543,3.688637 56.713848,4.524199 58.796761,5.952693 
	C59.018196,6.998082 59.018024,7.450540 59.017853,7.902997 
z"/>
<path fill="#545454" opacity="1.000000" stroke="none" 
	d="
M44.782635,3.079876 
	C43.260620,3.912927 41.536034,4.469764 39.406036,4.756958 
	C38.995777,4.297720 38.990925,4.108125 38.986076,3.918529 
	C39.382618,3.652709 39.779163,3.386890 40.314072,2.929708 
	C41.828316,2.760118 43.204189,2.781889 44.782635,3.079876 
z"/>
<path fill="#FEFEFE" opacity="1.000000" stroke="none" 
	d="
M44.082302,10.607364 
	C45.139111,10.543072 46.195919,10.478780 47.805931,10.513649 
	C49.222626,10.797606 50.086117,10.982403 50.975643,11.520012 
	C52.839531,13.115109 54.614269,14.466275 56.528866,15.576179 
	C60.109894,17.652121 63.759079,19.612293 67.407501,21.569181 
	C68.673088,22.247993 70.020432,22.774355 71.517349,23.685066 
	C73.130188,27.123222 74.724365,30.182362 75.947685,33.383236 
	C78.643707,40.437546 79.295311,47.413712 75.137321,54.325626 
	C74.201805,55.880764 74.418449,58.129005 73.938583,60.353256 
	C70.030067,64.644905 66.287674,68.641472 62.545288,72.638046 
	C62.189526,72.672585 61.833759,72.707115 61.074982,72.570175 
	C60.495441,72.273727 60.318913,72.148758 59.935760,71.781403 
	C55.546726,70.339661 52.188828,71.296265 49.558067,75.289780 
	C47.429329,75.299408 45.725838,75.285431 43.876553,74.927841 
	C42.260406,73.617538 40.898788,72.360840 39.291878,71.758369 
	C37.329643,71.022675 34.630806,71.486984 33.174416,70.299355 
	C26.926685,65.204590 19.023506,61.280132 18.691046,51.439922 
	C18.650188,50.230621 16.378721,49.096687 15.074896,47.474483 
	C14.816496,44.275764 14.624145,41.530396 14.546471,38.796730 
	C14.661146,38.808437 14.870263,38.905499 15.256145,38.912254 
	C19.367786,37.552441 19.368355,34.748600 18.530699,31.342760 
	C18.630066,30.740826 18.665852,30.392948 19.037697,29.918549 
	C20.600897,27.601528 21.828035,25.411030 23.389328,23.111177 
	C24.429211,21.958622 25.134941,20.915422 25.891590,19.911758 
	C25.942509,19.951294 25.874495,19.841761 26.225086,19.853838 
	C27.806583,18.588707 29.037489,17.311497 30.482914,15.828131 
	C31.472652,15.451513 32.247868,15.281054 33.262447,15.356480 
	C36.246731,14.912439 40.003101,16.330427 41.318832,11.965656 
	C42.450733,11.487877 43.266518,11.047621 44.082302,10.607364 
z"/>
<path fill="#9D9D9D" opacity="1.000000" stroke="none" 
	d="
M74.104706,60.058182 
	C74.418449,58.129005 74.201805,55.880764 75.137321,54.325626 
	C79.295311,47.413712 78.643707,40.437546 75.947685,33.383236 
	C74.724365,30.182362 73.130188,27.123222 71.700851,23.446514 
	C71.977440,22.637306 72.257423,22.381369 72.537415,22.125431 
	C75.014389,26.249975 78.693581,30.112818 79.662880,34.565559 
	C80.864166,40.084064 79.819916,46.091389 79.368286,52.469795 
	C78.339592,54.712894 77.688324,56.373741 77.037048,58.034592 
	C76.957237,58.419403 76.877426,58.804211 76.406853,59.535370 
	C75.378960,59.940544 74.741837,59.999367 74.104706,60.058182 
z"/>
<path fill="#808080" opacity="1.000000" stroke="none" 
	d="
M60.142380,72.023796 
	C60.318913,72.148758 60.495441,72.273727 60.828636,72.682747 
	C59.846252,74.289124 58.902935,76.492599 57.537529,76.795891 
	C45.416935,79.488251 33.895802,78.783669 24.357452,69.075844 
	C24.562225,68.409271 24.695415,68.269135 25.127384,68.291275 
	C26.726851,69.158890 27.959793,70.062912 29.340460,70.533714 
	C34.207047,72.193230 39.124306,73.704155 44.022343,75.271454 
	C45.725838,75.285431 47.429329,75.299408 49.825851,75.476501 
	C53.726715,74.434341 56.934547,73.229065 60.142380,72.023796 
z"/>
<path fill="#878787" opacity="1.000000" stroke="none" 
	d="
M79.756386,71.924759 
	C81.115501,72.278572 82.143349,72.641090 83.481415,73.103378 
	C83.849030,73.632301 83.906425,74.061440 83.540237,74.744339 
	C81.234070,74.396332 79.351494,73.794563 77.314827,73.143547 
	C76.958733,75.299927 76.723267,76.725838 76.487801,78.151741 
	C74.856102,77.650490 73.224411,77.149231 71.295242,76.815002 
	C65.270424,79.345039 59.543068,81.708046 53.410061,83.727669 
	C53.009361,82.967224 53.014320,82.550171 53.019279,82.133110 
	C58.479668,79.870789 63.940060,77.608467 70.092560,75.195839 
	C72.852036,73.358719 74.919395,71.671906 76.986748,69.985092 
	C77.799538,70.634552 78.612320,71.284004 79.756386,71.924759 
z"/>
<path fill="#8E8E8E" opacity="1.000000" stroke="none" 
	d="
M14.431794,38.785023 
	C14.624145,41.530396 14.816496,44.275764 15.005264,47.869534 
	C17.535200,54.338188 20.068720,59.958447 22.216331,65.683929 
	C21.570618,65.849220 21.310810,65.909302 21.051003,65.969391 
	C15.187343,60.411652 12.722306,53.363243 12.158156,45.513340 
	C12.027688,43.697945 12.149011,41.864449 12.448708,39.543053 
	C13.305896,38.959553 13.868845,38.872288 14.431794,38.785023 
z"/>
<path fill="#676767" opacity="1.000000" stroke="none" 
	d="
M73.938583,60.353256 
	C74.741837,59.999367 75.378960,59.940544 76.326645,59.819061 
	C75.692520,65.024956 68.206451,72.466957 62.930588,72.818665 
	C66.287674,68.641472 70.030067,64.644905 73.938583,60.353256 
z"/>
<path fill="#545454" opacity="1.000000" stroke="none" 
	d="
M81.834366,59.314529 
	C81.101341,54.442841 83.632843,50.939129 85.944656,47.123093 
	C86.709999,54.410088 83.472092,60.471722 78.890953,66.313492 
	C79.646568,64.207848 80.668358,61.920391 81.834366,59.314529 
z"/>
<path fill="#5B5B5B" opacity="1.000000" stroke="none" 
	d="
M14.546471,38.796730 
	C13.868845,38.872288 13.305896,38.959553 12.462639,39.097168 
	C11.863389,31.816685 15.583551,26.140535 19.934338,20.355747 
	C20.109034,20.060333 20.553640,20.020966 20.846382,20.419926 
	C21.289644,21.350258 21.440166,21.881630 21.440315,22.646275 
	C21.126822,23.211765 20.963701,23.543983 20.469669,23.934319 
	C19.478556,25.046530 18.818354,26.100624 17.985376,27.394098 
	C17.634607,28.400423 17.456614,29.167364 16.957668,30.100235 
	C16.154875,31.571127 15.673032,32.876091 15.042757,34.422226 
	C14.886303,36.077431 14.878283,37.491463 14.870263,38.905499 
	C14.870263,38.905499 14.661146,38.808437 14.546471,38.796730 
z"/>
<path fill="#7D7D7D" opacity="1.000000" stroke="none" 
	d="
M40.864201,82.996246 
	C34.411236,84.372650 29.517973,81.087173 24.777355,76.854141 
	C30.049877,78.562263 35.411453,80.590645 40.864201,82.996246 
z"/>
<path fill="#545454" opacity="1.000000" stroke="none" 
	d="
M77.133545,69.716652 
	C74.919395,71.671906 72.852036,73.358719 70.423607,75.058479 
	C72.559570,72.440895 75.056602,69.810364 77.932068,67.232124 
	C77.967110,68.005676 77.623726,68.726944 77.133545,69.716652 
z"/>
<path fill="#7D7D7D" opacity="1.000000" stroke="none" 
	d="
M10.233479,27.790751 
	C10.895923,25.909689 11.885368,23.916428 13.201160,21.834694 
	C12.538498,23.723667 11.549490,25.701107 10.233479,27.790751 
z"/>
<path fill="#7D7D7D" opacity="1.000000" stroke="none" 
	d="
M17.340893,15.858556 
	C17.752970,16.584545 17.832808,17.370531 17.874924,18.549936 
	C16.722559,19.526171 15.607916,20.108988 14.176847,20.769894 
	C14.909833,19.204840 15.959243,17.561697 17.340893,15.858556 
z"/>
<path fill="#7D7D7D" opacity="1.000000" stroke="none" 
	d="
M17.716213,70.895958 
	C16.356388,69.786613 15.069431,68.329391 13.807369,66.520752 
	C15.151203,67.628922 16.470142,69.088501 17.716213,70.895958 
z"/>
<path fill="#676767" opacity="1.000000" stroke="none" 
	d="
M77.369942,57.994484 
	C77.688324,56.373741 78.339592,54.712894 79.296806,52.919067 
	C79.738617,53.274719 79.874489,53.763351 80.047409,54.631409 
	C79.290596,55.992016 78.496712,56.973198 77.369942,57.994484 
z"/>
<path fill="#464646" opacity="1.000000" stroke="none" 
	d="
M10.235587,54.815681 
	C9.334399,53.885067 8.681747,52.767685 8.038715,51.313667 
	C8.860266,52.194324 9.672194,53.411621 10.235587,54.815681 
z"/>
<path fill="#7D7D7D" opacity="1.000000" stroke="none" 
	d="
M52.615936,82.081192 
	C53.014320,82.550171 53.009361,82.967224 53.003334,83.697609 
	C51.886993,84.019180 50.771725,84.027420 49.389526,83.845230 
	C50.152592,83.112953 51.182590,82.571114 52.615936,82.081192 
z"/>
<path fill="#7D7D7D" opacity="1.000000" stroke="none" 
	d="
M21.847408,74.785233 
	C20.820658,74.433136 19.829765,73.713676 18.794369,72.676620 
	C19.794333,73.045303 20.838800,73.731590 21.847408,74.785233 
z"/>
<path fill="#808080" opacity="1.000000" stroke="none" 
	d="
M21.150030,66.286804 
	C21.310810,65.909302 21.570618,65.849220 22.417675,65.883926 
	C23.612816,66.695473 24.220711,67.412239 24.828606,68.128998 
	C24.695415,68.269135 24.562225,68.409271 24.229475,68.759666 
	C23.102962,68.181351 22.176010,67.392784 21.150030,66.286804 
z"/>
<path fill="#545454" opacity="1.000000" stroke="none" 
	d="
M86.519562,39.733871 
	C83.791718,36.864441 81.441566,33.747440 81.937408,29.266535 
	C82.066750,28.097639 80.683731,26.788675 80.080482,25.504047 
	C79.428917,24.116516 78.877151,22.682114 78.476349,20.889460 
	C84.245705,25.598635 85.684250,32.447620 86.519562,39.733871 
z"/>
<path fill="#545454" opacity="1.000000" stroke="none" 
	d="
M78.250656,19.330595 
	C75.651543,17.545025 72.982758,15.427074 70.328171,12.945318 
	C72.955246,14.720413 75.568115,16.859314 78.250656,19.330595 
z"/>
<path fill="#C9C9C9" opacity="1.000000" stroke="none" 
	d="
M72.524055,21.821060 
	C72.257423,22.381369 71.977440,22.637306 71.513947,23.131796 
	C70.020432,22.774355 68.673088,22.247993 67.407501,21.569181 
	C63.759079,19.612293 60.109894,17.652121 56.528866,15.576179 
	C54.614269,14.466275 52.839531,13.115109 51.272366,11.323179 
	C52.015926,10.756912 52.488792,10.740288 53.139420,11.037766 
	C58.802395,13.953391 64.287621,16.554913 69.772842,19.156433 
	C70.685463,19.943184 71.598076,20.729937 72.524055,21.821060 
z"/>
<path fill="#8E8E8E" opacity="1.000000" stroke="none" 
	d="
M69.768257,18.821276 
	C64.287621,16.554913 58.802395,13.953391 53.086784,10.760933 
	C52.846573,9.982074 52.836754,9.794152 52.826931,9.606230 
	C53.309196,9.706256 53.791458,9.806281 54.820633,10.250202 
	C58.547897,11.784451 61.728249,12.974802 64.908600,14.165155 
	C66.526955,15.605477 68.145309,17.045797 69.768257,18.821276 
z"/>
<path fill="#3A3A3A" opacity="1.000000" stroke="none" 
	d="
M64.958626,13.810011 
	C61.728249,12.974802 58.547897,11.784451 55.189919,10.279034 
	C56.634853,9.796196 58.270039,9.703563 59.875473,9.433848 
	C60.920551,9.258273 61.922344,8.825035 63.018295,8.130045 
	C63.262676,7.734516 63.432293,7.716169 63.852886,7.748857 
	C64.743645,8.908828 65.383423,10.017764 66.112381,11.425095 
	C65.803917,12.300615 65.406288,12.877742 64.958626,13.810011 
z"/>
<path fill="#5B5B5B" opacity="1.000000" stroke="none" 
	d="
M38.609741,3.921538 
	C38.990925,4.108125 38.995777,4.297720 39.011932,4.772102 
	C36.490314,5.953851 33.957394,6.850814 31.016951,7.589586 
	C33.150753,6.262446 35.692078,5.093496 38.609741,3.921538 
z"/>
<path fill="#5B5B5B" opacity="1.000000" stroke="none" 
	d="
M28.507347,7.841541 
	C27.343649,9.137881 25.840101,10.441051 23.976942,11.590778 
	C25.134052,10.241014 26.650774,9.044693 28.507347,7.841541 
z"/>
<path fill="#5B5B5B" opacity="1.000000" stroke="none" 
	d="
M59.449749,7.921862 
	C59.018024,7.450540 59.018196,6.998082 59.039127,6.204738 
	C60.054184,6.194975 61.048481,6.526099 62.220528,7.116918 
	C61.559399,7.564651 60.720520,7.752689 59.449749,7.921862 
z"/>
<path fill="#404040" opacity="1.000000" stroke="none" 
	d="
M76.560791,78.412682 
	C76.723267,76.725838 76.958733,75.299927 77.314827,73.143547 
	C79.351494,73.794563 81.234070,74.396332 83.476746,75.064026 
	C84.106712,75.314987 84.348763,75.531174 84.762512,76.287453 
	C85.919258,77.576920 86.876465,78.357460 87.833664,79.138000 
	C88.107895,79.316696 88.355827,79.526466 88.727127,79.960602 
	C89.317307,81.908905 89.757828,83.663918 90.335533,85.796181 
	C88.545357,86.487427 86.617996,86.801422 84.451630,86.559616 
	C83.077293,85.089905 81.941963,84.175987 80.806641,83.262077 
	C80.806641,83.262077 80.787560,83.211952 80.811752,82.847504 
	C79.509850,81.377747 78.183762,80.272430 76.857674,79.167122 
	C76.783035,79.002625 76.708405,78.838120 76.560791,78.412682 
z"/>
<path fill="#878787" opacity="1.000000" stroke="none" 
	d="
M76.892349,79.495346 
	C78.183762,80.272430 79.509850,81.377747 80.786873,82.837486 
	C79.467545,82.069130 78.197289,80.946342 76.892349,79.495346 
z"/>
<path fill="#878787" opacity="1.000000" stroke="none" 
	d="
M80.843781,83.554611 
	C81.941963,84.175987 83.077293,85.089905 84.231796,86.351402 
	C83.728096,86.509651 83.205208,86.320305 82.443558,85.964584 
	C81.763496,85.147858 81.322205,84.497505 80.843781,83.554611 
z"/>
<path fill="#878787" opacity="1.000000" stroke="none" 
	d="
M87.873924,78.783081 
	C86.876465,78.357460 85.919258,77.576920 84.915192,76.477547 
	C85.883614,76.915192 86.898903,77.671677 87.873924,78.783081 
z"/>
<path fill="#8E8E8E" opacity="1.000000" stroke="none" 
	d="
M21.590691,22.413002 
	C21.440166,21.881630 21.289644,21.350258 21.069294,20.409187 
	C24.423565,17.729731 27.847662,15.459970 31.922140,13.164873 
	C32.811451,13.261025 33.050385,13.382514 33.230389,13.769054 
	C33.121998,14.392935 33.072540,14.751764 33.023079,15.110595 
	C32.247868,15.281054 31.472652,15.451513 30.140785,15.900730 
	C28.347588,17.400246 27.111040,18.621002 25.874493,19.841759 
	C25.874495,19.841761 25.942509,19.951294 25.578518,19.960636 
	C24.479887,20.691481 23.745245,21.412981 22.770199,22.167213 
	C22.219437,22.282761 21.906403,22.353781 21.590691,22.413002 
z"/>
<path fill="#8E8E8E" opacity="1.000000" stroke="none" 
	d="
M43.911186,10.247307 
	C43.266518,11.047621 42.450733,11.487877 40.926949,11.915440 
	C38.431255,12.199407 36.643570,12.496067 34.866230,12.485916 
	C35.021614,11.587856 35.166645,10.996608 35.311676,10.405360 
	C38.121140,10.232656 40.930603,10.059953 43.911186,10.247307 
z"/>
<path fill="#3A3A3A" opacity="1.000000" stroke="none" 
	d="
M52.566315,9.404015 
	C52.836754,9.794152 52.846573,9.982074 52.909027,10.446830 
	C52.488792,10.740288 52.015926,10.756912 51.246334,10.970368 
	C50.086117,10.982403 49.222626,10.797606 48.166664,10.344076 
	C49.418030,9.784163 50.861862,9.492982 52.566315,9.404015 
z"/>
<path fill="#545454" opacity="1.000000" stroke="none" 
	d="
M34.968842,10.301795 
	C35.166645,10.996608 35.021614,11.587856 34.600494,12.594213 
	C33.979378,13.174215 33.634350,13.339109 33.289322,13.504004 
	C33.050385,13.382514 32.811451,13.261025 32.221619,12.940814 
	C32.789146,11.894137 33.707577,11.046184 34.968842,10.301795 
z"/>
<path fill="#D6D6D6" opacity="1.000000" stroke="none" 
	d="
M25.127384,68.291275 
	C24.220711,67.412239 23.612816,66.695473 22.803581,65.778709 
	C20.068720,59.958447 17.535200,54.338188 15.071314,48.322880 
	C16.378721,49.096687 18.650188,50.230621 18.691046,51.439922 
	C19.023506,61.280132 26.926685,65.204590 33.174416,70.299355 
	C34.630806,71.486984 37.329643,71.022675 39.291878,71.758369 
	C40.898788,72.360840 42.260406,73.617538 43.876553,74.927834 
	C39.124306,73.704155 34.207047,72.193230 29.340460,70.533714 
	C27.959793,70.062912 26.726851,69.158890 25.127384,68.291275 
z"/>
<path fill="#D6D6D6" opacity="1.000000" stroke="none" 
	d="
M59.935760,71.781403 
	C56.934547,73.229065 53.726715,74.434341 50.251099,75.452881 
	C52.188828,71.296265 55.546726,70.339661 59.935760,71.781403 
z"/>
<path fill="#D6D6D6" opacity="1.000000" stroke="none" 
	d="
M21.440315,22.646275 
	C21.906403,22.353781 22.219437,22.282761 22.771212,22.438652 
	C23.026810,22.858419 23.040993,23.039476 23.055176,23.220533 
	C21.828035,25.411030 20.600897,27.601528 18.799208,29.914236 
	C17.917496,29.926655 17.602150,29.892609 17.278618,29.934307 
	C17.456614,29.167364 17.634607,28.400423 18.310635,27.319199 
	C19.472639,25.962011 20.136612,24.919107 20.800583,23.876202 
	C20.963701,23.543983 21.126822,23.211765 21.440315,22.646275 
z"/>
<path fill="#D6D6D6" opacity="1.000000" stroke="none" 
	d="
M15.256145,38.912254 
	C14.878283,37.491463 14.886303,36.077431 15.345476,34.361786 
	C16.686792,33.239059 17.576956,32.417938 18.467121,31.596817 
	C19.368355,34.748600 19.367786,37.552441 15.256145,38.912254 
z"/>
<path fill="#C9C9C9" opacity="1.000000" stroke="none" 
	d="
M33.230389,13.769054 
	C33.634350,13.339109 33.979378,13.174215 34.590141,12.901026 
	C36.643570,12.496067 38.431255,12.199407 40.610828,11.952964 
	C40.003101,16.330427 36.246731,14.912439 33.262444,15.356480 
	C33.072540,14.751764 33.121998,14.392935 33.230389,13.769054 
z"/>
<path fill="#C9C9C9" opacity="1.000000" stroke="none" 
	d="
M26.225086,19.853836 
	C27.111040,18.621002 28.347588,17.400246 29.926262,16.106888 
	C29.037489,17.311497 27.806583,18.588707 26.225086,19.853836 
z"/>
<path fill="#8E8E8E" opacity="1.000000" stroke="none" 
	d="
M18.530701,31.342762 
	C17.576956,32.417938 16.686792,33.239059 15.493909,34.120613 
	C15.673032,32.876091 16.154875,31.571127 16.957668,30.100235 
	C17.602150,29.892609 17.917496,29.926655 18.463146,30.040758 
	C18.665852,30.392948 18.630066,30.740826 18.530701,31.342762 
z"/>
<path fill="#C9C9C9" opacity="1.000000" stroke="none" 
	d="
M23.389328,23.111177 
	C23.040993,23.039476 23.026810,22.858419 23.011616,22.405922 
	C23.745245,21.412981 24.479887,20.691481 25.527599,19.921101 
	C25.134941,20.915422 24.429211,21.958622 23.389328,23.111177 
z"/>
<path fill="#8E8E8E" opacity="1.000000" stroke="none" 
	d="
M20.469671,23.934319 
	C20.136612,24.919107 19.472639,25.962011 18.483410,27.079815 
	C18.818354,26.100624 19.478556,25.046530 20.469671,23.934319 
z"/>
</svg>