<svg version="1.1" id="Layer_1" xmlns="http://www.w3.org/2000/svg" xmlns:xlink="http://www.w3.org/1999/xlink" x="0px" y="0px"
	 width="100%" viewBox="0 0 104 100" enable-background="new 0 0 104 100" xml:space="preserve">
<path fill="#FDFDFD" opacity="1.000000" stroke="none" 
	d="
M57.000000,101.000000 
	C38.000004,101.000000 19.500006,101.000000 1.000007,101.000000 
	C1.000005,67.666679 1.000005,34.333351 1.000003,1.000021 
	C35.666653,1.000014 70.333305,1.000014 104.999969,1.000007 
	C104.999977,34.333313 104.999977,67.666626 104.999985,100.999969 
	C89.166664,101.000000 73.333336,101.000000 57.000000,101.000000 
M63.195946,78.161110 
	C63.195946,78.161110 63.217239,78.277954 62.455799,78.092102 
	C59.023090,79.005936 59.187191,81.359650 60.103741,84.665573 
	C60.092812,85.103828 60.081879,85.542076 59.521111,86.429420 
	C59.177776,92.262489 62.764835,96.226608 67.641068,94.398758 
	C68.415100,94.359749 69.189133,94.320740 70.360970,94.811676 
	C71.238365,94.857826 72.115761,94.903976 73.385727,95.496971 
	C77.040070,95.056587 81.210838,90.846199 81.512070,86.639198 
	C81.803101,82.574570 80.549126,79.098343 75.398819,77.626854 
	C76.281227,77.108788 77.125374,76.505760 78.052948,76.087982 
	C81.319260,74.616867 84.614220,73.209328 88.569748,71.685562 
	C89.549660,70.070923 90.529579,68.456291 91.979630,66.176651 
	C92.396645,63.107784 92.813652,60.038918 93.947319,56.890198 
	C98.209877,52.400795 96.885040,46.918034 96.670364,40.748302 
	C96.662155,35.961136 96.653938,31.173971 96.824020,25.697462 
	C95.893082,25.091595 94.962151,24.485727 93.533379,23.483768 
	C92.750381,22.601622 91.967384,21.719475 91.009018,20.951206 
	C91.009018,20.951206 91.167847,20.814922 91.208725,20.238295 
	C91.112579,19.864792 91.016434,19.491289 90.915535,18.389606 
	C89.853928,17.664358 88.792328,16.939110 87.077820,16.168400 
	C86.058266,16.294975 85.038712,16.421551 83.031219,16.372200 
	C82.697739,16.346247 82.364258,16.320295 81.756187,16.061892 
	C81.160965,15.734064 80.565735,15.406236 79.827103,14.270717 
	C79.177025,13.857648 78.529091,13.087785 77.876556,13.083871 
	C62.916378,12.994133 47.955704,12.987883 32.362999,12.942622 
	C31.942310,12.933772 31.521620,12.924921 31.037580,13.004131 
	C31.037580,13.004131 31.087786,12.912930 31.087412,12.194093 
	C30.321995,9.691983 29.616146,7.101779 25.131317,8.716574 
	C20.839624,8.581702 16.547934,8.446831 11.460505,8.175601 
	C7.404171,9.728189 9.067666,13.185497 9.456417,15.729714 
	C9.609369,16.730719 12.369284,17.715769 14.062042,18.004503 
	C16.291109,18.384714 18.638456,18.071486 20.985716,17.997332 
	C20.985716,17.997332 20.946892,18.062128 20.981932,18.984148 
	C21.175863,23.444935 21.369795,27.905722 21.490679,33.225739 
	C21.472082,37.811314 21.453485,42.396889 20.801662,47.273148 
	C20.550131,48.362282 20.561316,49.613640 20.005007,50.514584 
	C15.990576,57.015953 18.677259,63.234081 21.264877,69.072998 
	C22.794336,72.524200 25.468851,76.002495 30.958454,75.615974 
	C31.364250,75.685654 31.770046,75.755341 32.013702,76.530632 
	C31.296249,78.014053 30.578794,79.497467 29.842695,81.751213 
	C30.002148,82.224472 30.161598,82.697723 30.050209,83.919029 
	C30.121809,85.232674 30.193409,86.546310 29.824711,88.480164 
	C29.806782,88.985519 29.788855,89.490868 29.327271,90.440186 
	C31.017605,96.707352 36.090553,95.656189 40.790302,96.072853 
	C46.304169,96.561691 47.994637,92.157486 49.679222,88.915062 
	C50.782467,86.791573 49.248417,83.223534 48.693390,80.341423 
	C48.372498,78.675095 47.650253,77.086052 47.822384,75.150841 
	C52.971878,75.274559 58.121368,75.398277 63.089039,76.423347 
	C63.153027,77.030235 63.217010,77.637123 63.195946,78.161110 
z"/>
<path fill="#292929" opacity="1.000000" stroke="none" 
	d="
M63.270863,75.521996 
	C58.121368,75.398277 52.971878,75.274559 47.132164,75.067703 
	C45.625801,74.963707 44.809662,74.942856 43.708694,74.636642 
	C38.269241,74.450699 33.141075,74.483475 28.851770,70.887840 
	C26.869186,69.225876 24.816065,67.648064 22.738319,65.686127 
	C22.595146,64.645439 22.508575,63.950726 22.591661,62.802147 
	C22.638426,59.144863 22.515533,55.941448 22.445187,52.348320 
	C22.502533,50.382706 22.507334,48.806805 22.667534,46.841690 
	C23.255793,44.329483 23.688658,42.206497 24.500986,39.973114 
	C25.146923,36.831116 25.413397,33.799511 25.712046,30.347328 
	C25.802273,27.947374 25.860323,25.968002 26.184803,23.992107 
	C26.628643,23.995302 26.806049,23.995018 27.247404,24.102970 
	C28.015791,24.474855 28.520229,24.738504 29.026497,25.441704 
	C28.743164,31.302967 28.457998,36.724682 28.157688,42.559860 
	C28.743582,45.449234 29.344620,47.925144 30.005219,50.778332 
	C30.072788,52.703548 30.080795,54.251480 30.061415,55.822304 
	C30.034027,55.845188 30.007065,55.912930 30.137220,55.337990 
	C29.992655,54.482033 29.717932,54.201019 29.284878,53.834671 
	C25.742350,55.695271 24.278919,57.945210 28.121727,61.338299 
	C30.717834,68.067253 30.793898,68.128662 35.451897,67.109749 
	C39.420414,67.140266 42.920105,67.187172 46.418858,67.148758 
	C56.214520,67.041214 66.009796,66.898422 76.079285,67.056068 
	C77.134232,67.355721 77.915108,67.368851 79.022949,67.560745 
	C81.102486,67.119431 82.855057,66.499336 85.003525,65.910721 
	C86.192818,65.959358 86.986221,65.976524 87.815414,66.347824 
	C86.644928,67.941879 85.646141,69.850952 84.194946,70.300934 
	C79.082802,71.886063 73.814262,72.965919 68.607559,74.247620 
	C67.040031,74.633484 65.480629,75.052391 63.747761,75.393257 
	C63.578022,75.330353 63.270863,75.521996 63.270863,75.521996 
z"/>
<path fill="#858585" opacity="1.000000" stroke="none" 
	d="
M63.917500,75.456161 
	C65.480629,75.052391 67.040031,74.633484 68.607559,74.247620 
	C73.814262,72.965919 79.082802,71.886063 84.194946,70.300934 
	C85.646141,69.850952 86.644928,67.941879 87.997131,66.011108 
	C88.828934,62.906521 89.514801,60.492790 90.517128,58.010910 
	C91.305870,57.525982 91.778152,57.109200 92.490509,56.778011 
	C92.897270,56.899086 93.063972,56.934570 93.230667,56.970051 
	C92.813652,60.038918 92.396645,63.107784 91.433876,66.584991 
	C89.891518,68.588104 88.894913,70.182884 87.898308,71.777672 
	C84.614220,73.209328 81.319260,74.616867 78.052948,76.087982 
	C77.125374,76.505760 76.281227,77.108788 75.694443,78.223045 
	C80.496078,86.535583 79.981148,89.307236 72.993156,94.950134 
	C72.115761,94.903976 71.238365,94.857826 70.292313,94.205040 
	C74.625977,91.319687 76.214966,87.599564 74.935135,82.992912 
	C74.580917,81.717934 72.652054,80.327293 71.218018,80.006111 
	C66.343155,78.914299 63.613983,81.875214 61.675713,85.870407 
	C61.604248,86.017715 61.501705,86.149948 61.183910,86.260605 
	C60.681335,86.072456 60.386929,85.988556 60.070950,85.980331 
	C60.081879,85.542076 60.092812,85.103828 60.338772,84.113724 
	C61.454948,81.800568 62.336090,80.039261 63.217239,78.277954 
	C63.217239,78.277954 63.195946,78.161110 63.574944,78.194237 
	C67.181427,77.261032 65.442230,76.360008 63.917500,75.456161 
z"/>
<path fill="#353535" opacity="1.000000" stroke="none" 
	d="
M30.265011,87.859955 
	C30.193409,86.546310 30.121809,85.232674 30.527985,83.512878 
	C34.587856,78.725853 39.288658,78.550430 44.504913,79.804871 
	C44.977417,80.590668 45.251930,81.140015 45.342674,82.143265 
	C45.300846,85.177864 45.442780,87.758560 45.284935,90.562790 
	C42.257275,94.442955 38.769894,94.838737 34.800858,92.811913 
	C33.290112,90.929993 31.777561,89.394974 30.265011,87.859955 
z"/>
<path fill="#E4E4E4" opacity="1.000000" stroke="none" 
	d="
M32.995121,12.966069 
	C47.955704,12.987883 62.916378,12.994133 77.876556,13.083871 
	C78.529091,13.087785 79.177025,13.857648 79.659134,14.850663 
	C79.301079,16.118023 79.110992,16.805435 78.514038,17.320889 
	C70.668701,16.972511 63.230949,16.750799 55.791553,16.632566 
	C48.528980,16.517145 41.264732,16.507414 34.053543,16.144388 
	C33.735622,14.880353 33.365372,13.923211 32.995121,12.966069 
z"/>
<path fill="#2B2B2B" opacity="1.000000" stroke="none" 
	d="
M61.413643,86.289200 
	C61.501705,86.149948 61.604248,86.017715 61.675713,85.870407 
	C63.613983,81.875214 66.343155,78.914299 71.218018,80.006111 
	C72.652054,80.327293 74.580917,81.717934 74.935135,82.992912 
	C76.214966,87.599564 74.625977,91.319687 70.093407,93.940071 
	C69.189133,94.320740 68.415100,94.359749 67.183365,94.164253 
	C66.086327,93.334145 65.446991,92.738548 64.881973,91.788055 
	C63.861305,90.302170 62.766323,89.171173 61.639908,87.746246 
	C61.543533,87.064613 61.478588,86.676910 61.413643,86.289200 
z"/>
<path fill="#D2D2D2" opacity="1.000000" stroke="none" 
	d="
M34.799053,93.158813 
	C38.769894,94.838737 42.257275,94.442955 45.604824,90.426361 
	C48.816116,87.038704 49.307137,84.186058 45.526443,81.689354 
	C45.251930,81.140015 44.977417,80.590668 44.462029,79.536606 
	C43.818481,78.683960 43.415813,78.336021 43.001621,77.656921 
	C42.993481,76.883911 42.996868,76.442062 43.239902,75.889389 
	C43.650871,75.493050 43.822197,75.207527 43.993523,74.922005 
	C44.809662,74.942856 45.625801,74.963707 46.775291,75.223389 
	C47.650253,77.086052 48.372498,78.675095 48.693390,80.341423 
	C49.248417,83.223534 50.782467,86.791573 49.679222,88.915062 
	C47.994637,92.157486 46.304169,96.561691 40.790302,96.072853 
	C36.090553,95.656189 31.017605,96.707352 29.875635,90.325607 
	C31.882351,91.193626 33.340702,92.176216 34.799053,93.158813 
z"/>
<path fill="#666666" opacity="1.000000" stroke="none" 
	d="
M92.250435,56.692421 
	C91.778152,57.109200 91.305870,57.525982 90.436539,57.541779 
	C90.366539,50.754051 91.047073,44.360386 90.922203,37.982491 
	C90.794807,31.475161 92.931770,23.856483 84.360847,20.298523 
	C83.666275,20.010191 83.425659,18.628283 82.773857,17.366499 
	C82.392677,16.750422 82.211731,16.522383 82.030777,16.294342 
	C82.364258,16.320295 82.697739,16.346247 83.643463,16.802132 
	C86.559761,18.426348 88.863800,19.620636 91.167847,20.814922 
	C91.167847,20.814922 91.009018,20.951206 91.062012,21.296499 
	C91.787155,26.146471 92.858437,30.635736 93.033165,35.159630 
	C93.265572,41.176830 92.799522,47.221008 92.551025,53.592438 
	C92.395813,54.851658 92.323120,55.772041 92.250435,56.692421 
z"/>
<path fill="#A8A8A8" opacity="1.000000" stroke="none" 
	d="
M92.633537,53.253597 
	C92.799522,47.221008 93.265572,41.176830 93.033165,35.159630 
	C92.858437,30.635736 91.787155,26.146471 91.149689,21.239559 
	C91.967384,21.719475 92.750381,22.601622 93.863167,23.995449 
	C95.010544,25.133688 95.828140,25.760246 96.645721,26.386806 
	C96.653938,31.173971 96.662155,35.961136 96.340942,41.360680 
	C95.358276,43.602753 94.574669,45.194382 94.084824,46.871796 
	C93.474426,48.962082 93.106285,51.123116 92.633537,53.253597 
z"/>
<path fill="#858585" opacity="1.000000" stroke="none" 
	d="
M43.013145,77.988091 
	C43.415813,78.336021 43.818481,78.683960 44.264042,79.300156 
	C39.288658,78.550430 34.587856,78.725853 30.663406,83.138855 
	C30.161598,82.697723 30.002148,82.224472 30.184706,81.259933 
	C32.028397,79.595390 33.530075,78.422119 35.673275,76.747627 
	C33.930790,76.287964 33.053318,76.056496 32.175842,75.825020 
	C31.770046,75.755341 31.364250,75.685654 30.513248,75.281708 
	C27.643673,71.975655 25.219299,69.003876 22.794926,66.032097 
	C24.816065,67.648064 26.869186,69.225876 28.851770,70.887840 
	C33.141075,74.483475 38.269241,74.450699 43.708694,74.636642 
	C43.822197,75.207527 43.650871,75.493050 42.933350,75.913872 
	C42.062756,76.469154 41.738358,76.889130 41.413963,77.309105 
	C41.947025,77.535431 42.480083,77.761765 43.013145,77.988091 
z"/>
<path fill="#C9C9C9" opacity="1.000000" stroke="none" 
	d="
M22.738321,65.686127 
	C25.219299,69.003876 27.643673,71.975655 30.208847,75.230011 
	C25.468851,76.002495 22.794336,72.524200 21.264877,69.072998 
	C18.677259,63.234081 15.990576,57.015953 20.005007,50.514584 
	C20.561316,49.613640 20.550131,48.362282 21.384861,47.202644 
	C22.149420,47.165066 22.330778,47.197987 22.512136,47.230907 
	C22.507334,48.806805 22.502533,50.382706 22.141960,52.553787 
	C21.998127,56.517982 22.210066,59.887001 22.422005,63.256016 
	C22.508575,63.950726 22.595146,64.645439 22.738321,65.686127 
z"/>
<path fill="#858585" opacity="1.000000" stroke="none" 
	d="
M22.667534,46.841690 
	C22.330778,47.197987 22.149420,47.165066 21.701475,47.057304 
	C21.453485,42.396889 21.472082,37.811314 21.834106,32.569439 
	C22.464167,28.197479 22.895346,24.483271 22.932600,20.765114 
	C22.941561,19.870840 21.643740,18.963474 20.946892,18.062128 
	C20.946892,18.062128 20.985716,17.997332 20.971237,17.713490 
	C20.937180,17.012648 20.917603,16.595650 21.247547,16.099705 
	C22.946405,16.388828 24.295738,16.756897 25.700134,17.508795 
	C25.804276,18.927006 25.853359,19.961390 25.674599,21.187860 
	C25.603960,22.249510 25.761168,23.119068 25.918373,23.988628 
	C25.860323,25.968002 25.802273,27.947374 25.368568,30.517723 
	C24.702450,34.100300 24.411985,37.091904 24.121521,40.083508 
	C23.688658,42.206497 23.255793,44.329483 22.667534,46.841690 
z"/>
<path fill="#8A8A8A" opacity="1.000000" stroke="none" 
	d="
M12.256241,8.311959 
	C16.547934,8.446831 20.839624,8.581702 25.686329,9.070654 
	C27.856821,10.587466 29.472303,11.750198 31.087786,12.912931 
	C31.087786,12.912930 31.037580,13.004131 31.028669,13.320074 
	C31.036295,14.587235 31.052830,15.538455 30.739769,16.519712 
	C29.099800,15.396410 27.945644,13.556885 26.450211,13.216436 
	C21.675091,12.129345 16.773281,11.598751 11.909230,10.529184 
	C12.017459,9.574056 12.136849,8.943007 12.256241,8.311959 
z"/>
<path fill="#D2D2D2" opacity="1.000000" stroke="none" 
	d="
M73.189438,95.223557 
	C79.981148,89.307236 80.496078,86.535583 75.934738,78.457901 
	C80.549126,79.098343 81.803101,82.574570 81.512070,86.639198 
	C81.210838,90.846199 77.040070,95.056587 73.189438,95.223557 
z"/>
<path fill="#E4E4E4" opacity="1.000000" stroke="none" 
	d="
M92.551025,53.592438 
	C93.106285,51.123116 93.474426,48.962082 94.084824,46.871796 
	C94.574669,45.194382 95.358276,43.602753 96.335869,41.801949 
	C96.885040,46.918034 98.209877,52.400795 93.588989,56.930122 
	C93.063972,56.934570 92.897270,56.899086 92.490509,56.778015 
	C92.323120,55.772041 92.395813,54.851658 92.551025,53.592438 
z"/>
<path fill="#C9C9C9" opacity="1.000000" stroke="none" 
	d="
M11.858373,8.243780 
	C12.136849,8.943007 12.017459,9.574056 11.606646,10.778158 
	C10.419155,14.883385 11.874443,16.306835 15.407288,16.089458 
	C17.228807,15.977380 19.067236,16.140100 20.898026,16.178652 
	C20.917603,16.595650 20.937180,17.012648 20.945854,17.743027 
	C18.638456,18.071486 16.291109,18.384714 14.062042,18.004503 
	C12.369284,17.715769 9.609369,16.730719 9.456417,15.729714 
	C9.067666,13.185497 7.404171,9.728189 11.858373,8.243780 
z"/>
<path fill="#D2D2D2" opacity="1.000000" stroke="none" 
	d="
M61.183910,86.260605 
	C61.478588,86.676910 61.543533,87.064613 61.411243,87.939919 
	C62.411892,89.665993 63.609779,90.904472 64.807663,92.142952 
	C65.446991,92.738548 66.086327,93.334145 66.804901,94.248093 
	C62.764835,96.226608 59.177776,92.262489 59.796028,86.204880 
	C60.386929,85.988556 60.681335,86.072456 61.183910,86.260605 
z"/>
<path fill="#C9C9C9" opacity="1.000000" stroke="none" 
	d="
M20.964413,18.523138 
	C21.643740,18.963474 22.941561,19.870840 22.932600,20.765114 
	C22.895346,24.483271 22.464167,28.197479 21.870628,32.139824 
	C21.369795,27.905722 21.175863,23.444935 20.964413,18.523138 
z"/>
<path fill="#A8A8A8" opacity="1.000000" stroke="none" 
	d="
M91.188286,20.526608 
	C88.863800,19.620636 86.559761,18.426348 84.137436,16.890095 
	C85.038712,16.421551 86.058266,16.294975 87.504074,16.506336 
	C88.926979,17.602110 89.923637,18.359947 90.920288,19.117786 
	C91.016434,19.491289 91.112579,19.864792 91.188286,20.526608 
z"/>
<path fill="#C9C9C9" opacity="1.000000" stroke="none" 
	d="
M32.094772,76.177826 
	C33.053318,76.056496 33.930790,76.287964 35.673275,76.747627 
	C33.530075,78.422119 32.028397,79.595390 30.194027,80.874771 
	C30.578794,79.497467 31.296249,78.014053 32.094772,76.177826 
z"/>
<path fill="#C9C9C9" opacity="1.000000" stroke="none" 
	d="
M31.087599,12.553513 
	C29.472303,11.750198 27.856821,10.587466 26.134937,9.099020 
	C29.616146,7.101779 30.321995,9.691983 31.087599,12.553513 
z"/>
<path fill="#858585" opacity="1.000000" stroke="none" 
	d="
M34.800858,92.811913 
	C33.340702,92.176216 31.882351,91.193626 30.097462,90.103622 
	C29.788855,89.490868 29.806782,88.985519 30.044861,88.170059 
	C31.777561,89.394974 33.290112,90.929993 34.800858,92.811913 
z"/>
<path fill="#C9C9C9" opacity="1.000000" stroke="none" 
	d="
M31.069365,16.489674 
	C31.052830,15.538455 31.036295,14.587235 31.060345,13.276044 
	C31.521620,12.924921 31.942310,12.933772 32.679062,12.954346 
	C33.365372,13.923211 33.735622,14.880353 33.886833,16.349493 
	C32.801651,16.737553 31.935507,16.613613 31.069365,16.489674 
z"/>
<path fill="#D2D2D2" opacity="1.000000" stroke="none" 
	d="
M62.836517,78.185028 
	C62.336090,80.039261 61.454948,81.800568 60.330647,83.784981 
	C59.187191,81.359650 59.023090,79.005936 62.836517,78.185028 
z"/>
<path fill="#A8A8A8" opacity="1.000000" stroke="none" 
	d="
M88.234024,71.731613 
	C88.894913,70.182884 89.891518,68.588104 91.198807,66.917488 
	C90.529579,68.456291 89.549660,70.070923 88.234024,71.731613 
z"/>
<path fill="#A8A8A8" opacity="1.000000" stroke="none" 
	d="
M81.893478,16.178116 
	C82.211731,16.522383 82.392677,16.750422 82.369591,17.327238 
	C81.084015,17.614960 80.002457,17.553904 78.920906,17.492847 
	C79.110992,16.805435 79.301079,16.118023 79.730835,15.254509 
	C80.565735,15.406236 81.160965,15.734064 81.893478,16.178116 
z"/>
<path fill="#E4E4E4" opacity="1.000000" stroke="none" 
	d="
M96.734879,26.042133 
	C95.828140,25.760246 95.010544,25.133688 94.112083,24.193493 
	C94.962151,24.485727 95.893082,25.091595 96.734879,26.042133 
z"/>
<path fill="#E4E4E4" opacity="1.000000" stroke="none" 
	d="
M90.917908,18.753696 
	C89.923637,18.359947 88.926979,17.602110 87.830521,16.529068 
	C88.792328,16.939110 89.853928,17.664358 90.917908,18.753696 
z"/>
<path fill="#D2D2D2" opacity="1.000000" stroke="none" 
	d="
M63.747761,75.393257 
	C65.442230,76.360008 67.181427,77.261032 63.617470,78.235687 
	C63.217010,77.637123 63.153027,77.030235 63.179951,75.972672 
	C63.270863,75.521996 63.578022,75.330353 63.747761,75.393257 
z"/>
<path fill="#FEFEFE" opacity="1.000000" stroke="none" 
	d="
M30.088802,55.799416 
	C30.080795,54.251480 30.072788,52.703548 30.320522,50.424011 
	C30.727783,48.134449 30.879303,46.576485 31.275932,45.022442 
	C31.521042,45.026360 32.011047,45.004082 32.375813,44.996185 
	C34.536697,43.969208 36.332817,42.950130 38.407890,41.907776 
	C39.125412,41.581295 39.563976,41.278099 40.470955,40.963066 
	C53.572559,40.967228 66.209274,41.158104 78.837021,40.903831 
	C83.223412,40.815510 84.329659,42.446095 83.903870,46.430523 
	C83.675072,48.571487 84.164894,50.789246 84.252258,53.366272 
	C84.396881,54.218929 84.619720,54.677662 84.635559,55.453659 
	C84.238518,56.501904 84.048492,57.232880 83.495377,58.014694 
	C82.893387,59.445957 82.654495,60.826385 82.387146,62.258545 
	C82.358681,62.310272 82.278015,62.396515 81.912590,62.293777 
	C80.832100,63.221573 80.117043,64.252113 79.368546,65.312347 
	C79.335106,65.342041 79.291565,65.420166 78.976845,65.303635 
	C77.709824,65.714584 76.757530,66.242065 75.805229,66.769547 
	C66.009796,66.898422 56.214520,67.041214 46.418858,67.148758 
	C42.920105,67.187172 39.420414,67.140266 35.548119,66.838280 
	C35.118076,66.360916 35.061069,66.177582 34.996510,65.608871 
	C33.355576,62.082142 31.722189,58.940777 30.088802,55.799416 
z"/>
<path fill="#272727" opacity="1.000000" stroke="none" 
	d="
M83.858467,57.963860 
	C84.048492,57.232880 84.238518,56.501904 84.963028,55.436661 
	C86.652298,51.815666 88.232697,48.607166 88.854836,45.222527 
	C89.644325,40.927471 87.611420,38.501545 82.447433,39.089539 
	C67.585808,39.108730 53.187149,39.131489 38.584072,38.743420 
	C38.542629,36.546848 38.705605,34.761108 39.209461,33.079460 
	C40.372486,32.895485 41.194633,32.607407 42.465302,32.325714 
	C56.282410,32.230698 69.650993,32.129303 83.373047,32.187759 
	C84.496964,32.282349 85.267395,32.217087 86.245415,32.394073 
	C87.283035,31.743879 88.973419,30.456865 88.779503,30.034023 
	C88.228897,28.833462 86.908661,27.985865 85.898949,26.673168 
	C85.261429,25.913565 84.616394,25.480097 83.929344,24.760345 
	C83.261795,24.290329 82.636261,24.106592 81.630020,23.921621 
	C80.505737,23.774796 79.762177,23.629208 78.992638,23.097914 
	C78.110283,22.142391 77.257858,21.083055 76.396935,21.076109 
	C63.260483,20.970100 50.122543,20.961241 36.986343,21.081438 
	C35.988770,21.090567 35.001659,22.243065 33.642426,22.903681 
	C31.858330,23.629570 30.441500,24.315861 29.024668,25.002153 
	C28.520229,24.738504 28.015791,24.474855 27.253124,23.729446 
	C26.993666,22.500305 26.992434,21.752924 27.263496,20.772648 
	C26.905552,19.401489 26.275312,18.263227 25.645073,17.124966 
	C24.295738,16.756897 22.946405,16.388828 21.247547,16.099705 
	C19.067236,16.140100 17.228807,15.977380 15.407288,16.089458 
	C11.874443,16.306835 10.419155,14.883385 11.617807,11.102238 
	C16.773281,11.598751 21.675091,12.129345 26.450211,13.216436 
	C27.945644,13.556885 29.099800,15.396410 30.739769,16.519712 
	C31.935507,16.613613 32.801651,16.737553 33.834503,16.656387 
	C41.264732,16.507414 48.528980,16.517145 55.791553,16.632566 
	C63.230949,16.750799 70.668701,16.972511 78.514038,17.320889 
	C80.002457,17.553904 81.084015,17.614960 82.569832,17.715277 
	C83.425659,18.628283 83.666275,20.010191 84.360847,20.298523 
	C92.931770,23.856483 90.794807,31.475161 90.922203,37.982491 
	C91.047073,44.360386 90.366539,50.754051 90.120079,57.609924 
	C89.514801,60.492790 88.828934,62.906521 87.961349,65.656975 
	C86.986221,65.976524 86.192818,65.959358 85.043457,65.548691 
	C84.598038,63.759869 84.508560,62.364555 84.416382,60.575748 
	C84.228607,59.442791 84.043533,58.703327 83.858467,57.963860 
z"/>
<path fill="#535353" opacity="1.000000" stroke="none" 
	d="
M29.026497,25.441704 
	C30.441500,24.315861 31.858330,23.629570 33.669193,23.173225 
	C34.053772,23.759642 34.044323,24.116108 33.686253,24.662991 
	C28.928890,29.325357 30.096636,34.821125 30.436831,40.499084 
	C30.299660,41.254646 30.249245,41.692013 29.860714,42.105171 
	C29.072678,42.102779 28.622757,42.124584 28.172834,42.146393 
	C28.457998,36.724682 28.743164,31.302967 29.026497,25.441704 
z"/>
<path fill="#858585" opacity="1.000000" stroke="none" 
	d="
M35.004059,65.994247 
	C35.061069,66.177582 35.118076,66.360916 35.078861,66.815720 
	C30.793898,68.128662 30.717834,68.067253 28.181448,60.905510 
	C28.545383,58.071007 28.994299,55.995506 29.443211,53.920002 
	C29.717932,54.201019 29.992655,54.482033 30.143320,55.760811 
	C30.024693,60.731022 29.805588,64.824654 35.004059,65.994247 
z"/>
<path fill="#858585" opacity="1.000000" stroke="none" 
	d="
M84.419083,60.969246 
	C84.508560,62.364555 84.598038,63.759869 84.647568,65.517212 
	C82.855057,66.499336 81.102486,67.119431 79.059120,67.303360 
	C78.942749,66.384857 79.117157,65.902512 79.291565,65.420166 
	C79.291565,65.420166 79.335106,65.342041 79.669678,65.251419 
	C80.762169,64.239372 81.520096,63.317947 82.278015,62.396515 
	C82.278015,62.396515 82.358681,62.310272 82.646400,62.112503 
	C83.429115,61.599571 83.924103,61.284409 84.419083,60.969246 
z"/>
<path fill="#D2D2D2" opacity="1.000000" stroke="none" 
	d="
M34.996510,65.608871 
	C29.805588,64.824654 30.024693,60.731022 30.013165,56.335754 
	C30.007065,55.912930 30.034027,55.845188 30.061415,55.822304 
	C31.722189,58.940777 33.355576,62.082142 34.996510,65.608871 
z"/>
<path fill="#858585" opacity="1.000000" stroke="none" 
	d="
M28.157688,42.559860 
	C28.622757,42.124584 29.072678,42.102779 29.993843,42.374039 
	C30.653666,43.450916 30.842245,44.234718 31.030823,45.018524 
	C30.879303,46.576485 30.727783,48.134449 30.260960,50.046730 
	C29.344620,47.925144 28.743582,45.449234 28.157688,42.559860 
z"/>
<path fill="#858585" opacity="1.000000" stroke="none" 
	d="
M22.591661,62.802147 
	C22.210066,59.887001 21.998127,56.517982 22.089417,52.943501 
	C22.515533,55.941448 22.638426,59.144863 22.591661,62.802147 
z"/>
<path fill="#535353" opacity="1.000000" stroke="none" 
	d="
M24.500986,39.973114 
	C24.411985,37.091904 24.702450,34.100300 25.336391,30.938305 
	C25.413397,33.799511 25.146923,36.831116 24.500986,39.973114 
z"/>
<path fill="#494949" opacity="1.000000" stroke="none" 
	d="
M29.284878,53.834671 
	C28.994299,55.995506 28.545383,58.071007 28.036747,60.579300 
	C24.278919,57.945210 25.742350,55.695271 29.284878,53.834671 
z"/>
<path fill="#D2D2D2" opacity="1.000000" stroke="none" 
	d="
M78.976845,65.303635 
	C79.117157,65.902512 78.942749,66.384857 78.732162,67.124588 
	C77.915108,67.368851 77.134232,67.355721 76.079285,67.056068 
	C76.757530,66.242065 77.709824,65.714584 78.976845,65.303635 
z"/>
<path fill="#535353" opacity="1.000000" stroke="none" 
	d="
M26.991201,21.005545 
	C26.992434,21.752924 26.993666,22.500305 26.989176,23.621210 
	C26.806049,23.995018 26.628643,23.995302 26.184805,23.992107 
	C25.761168,23.119068 25.603960,22.249510 25.947021,21.189575 
	C26.628593,21.001316 26.809898,21.003429 26.991201,21.005545 
z"/>
<path fill="#858585" opacity="1.000000" stroke="none" 
	d="
M45.342678,82.143265 
	C49.307137,84.186058 48.816116,87.038704 45.904602,90.202827 
	C45.442780,87.758560 45.300846,85.177864 45.342678,82.143265 
z"/>
<path fill="#858585" opacity="1.000000" stroke="none" 
	d="
M64.881973,91.788055 
	C63.609779,90.904472 62.411892,89.665993 61.442673,88.233841 
	C62.766323,89.171173 63.861305,90.302170 64.881973,91.788055 
z"/>
<path fill="#A8A8A8" opacity="1.000000" stroke="none" 
	d="
M43.001621,77.656921 
	C42.480083,77.761765 41.947025,77.535431 41.413963,77.309105 
	C41.738358,76.889130 42.062756,76.469154 42.693703,76.024696 
	C42.996868,76.442062 42.993481,76.883911 43.001621,77.656921 
z"/>
<path fill="#292929" opacity="1.000000" stroke="none" 
	d="
M27.263496,20.772648 
	C26.809898,21.003429 26.628593,21.001316 26.174866,20.997486 
	C25.853359,19.961390 25.804276,18.927006 25.700134,17.508795 
	C26.275312,18.263227 26.905552,19.401489 27.263496,20.772648 
z"/>
<path fill="#FBFBFB" opacity="1.000000" stroke="none" 
	d="
M83.019577,32.027908 
	C69.650993,32.129303 56.282410,32.230698 42.347946,32.005905 
	C40.810902,32.111599 39.839745,32.543484 38.868584,32.975365 
	C38.705605,34.761108 38.542629,36.546848 38.393650,38.977955 
	C38.368622,39.820995 38.329597,40.018669 38.172676,40.404057 
	C38.079494,41.038200 38.104214,41.484631 38.128937,41.931057 
	C36.332817,42.950130 34.536697,43.969208 32.408569,44.617294 
	C32.987194,37.937916 33.897827,31.629526 35.266136,25.144783 
	C41.534554,24.925972 47.347084,24.959084 53.155571,24.821531 
	C60.094948,24.657200 67.030869,24.346836 73.964645,24.298157 
	C74.438164,24.517687 74.915314,24.538782 75.765152,24.803955 
	C80.419609,25.414742 84.277664,26.199223 83.019577,32.027908 
z"/>
<path fill="#858585" opacity="1.000000" stroke="none" 
	d="
M38.290573,40.216339 
	C38.329597,40.018669 38.368622,39.820995 38.598068,39.388783 
	C53.187149,39.131489 67.585808,39.108730 82.681633,39.337250 
	C86.821182,42.082916 87.304604,48.881607 84.330460,52.972355 
	C84.164894,50.789246 83.675072,48.571487 83.903870,46.430523 
	C84.329659,42.446095 83.223412,40.815510 78.837021,40.903831 
	C66.209274,41.158104 53.572559,40.967228 40.256535,40.708931 
	C39.145992,40.383202 38.718281,40.299770 38.290573,40.216339 
z"/>
<path fill="#D2D2D2" opacity="1.000000" stroke="none" 
	d="
M34.808460,25.321136 
	C33.897827,31.629526 32.987194,37.937916 32.043808,44.625191 
	C32.011047,45.004082 31.521042,45.026360 31.275932,45.022442 
	C30.842245,44.234718 30.653666,43.450916 30.331959,42.398243 
	C30.249245,41.692013 30.299660,41.254646 30.752869,40.313934 
	C32.208755,34.862522 33.261848,29.914463 34.484543,24.990778 
	C34.654148,25.015150 34.808460,25.321136 34.808460,25.321136 
z"/>
<path fill="#494949" opacity="1.000000" stroke="none" 
	d="
M84.252251,53.366272 
	C87.304604,48.881607 86.821182,42.082916 83.144592,39.340813 
	C87.611420,38.501545 89.644325,40.927471 88.854836,45.222527 
	C88.232697,48.607166 86.652298,51.815666 85.170044,55.119400 
	C84.619720,54.677662 84.396881,54.218929 84.252251,53.366272 
z"/>
<path fill="#D2D2D2" opacity="1.000000" stroke="none" 
	d="
M81.912598,62.293777 
	C81.520096,63.317947 80.762169,64.239372 79.703117,65.221725 
	C80.117043,64.252113 80.832100,63.221573 81.912598,62.293777 
z"/>
<path fill="#D2D2D2" opacity="1.000000" stroke="none" 
	d="
M84.416382,60.575752 
	C83.924103,61.284409 83.429115,61.599571 82.674866,62.060776 
	C82.654495,60.826385 82.893387,59.445957 83.495377,58.014694 
	C84.043533,58.703327 84.228607,59.442791 84.416382,60.575752 
z"/>
<path fill="#D2D2D2" opacity="1.000000" stroke="none" 
	d="
M38.172676,40.404057 
	C38.718281,40.299770 39.145992,40.383202 39.788120,40.720768 
	C39.563976,41.278099 39.125412,41.581295 38.407890,41.907776 
	C38.104214,41.484631 38.079494,41.038200 38.172676,40.404057 
z"/>
<path fill="#353535" opacity="1.000000" stroke="none" 
	d="
M35.266136,25.144783 
	C34.808460,25.321136 34.654148,25.015150 34.485008,24.829758 
	C34.315872,24.644367 34.034874,24.472574 34.034874,24.472574 
	C34.044323,24.116108 34.053772,23.759642 34.036457,23.133629 
	C35.001659,22.243065 35.988770,21.090567 36.986343,21.081438 
	C50.122543,20.961241 63.260483,20.970100 76.396935,21.076109 
	C77.257858,21.083055 78.110283,22.142391 78.391495,23.209362 
	C76.602264,23.844883 75.388191,23.983253 74.200470,24.130028 
	C74.226822,24.138430 73.968285,24.099726 73.968285,24.099726 
	C67.030869,24.346836 60.094948,24.657200 53.155571,24.821531 
	C47.347084,24.959084 41.534554,24.925972 35.266136,25.144783 
z"/>
<path fill="#A5A5A5" opacity="1.000000" stroke="none" 
	d="
M74.174118,24.121624 
	C75.388191,23.983253 76.602264,23.844883 78.417480,23.595066 
	C79.762177,23.629208 80.505737,23.774796 81.783508,24.184902 
	C82.868927,24.648487 83.420151,24.847557 83.971367,25.046627 
	C84.616394,25.480097 85.261429,25.913565 85.625511,26.801783 
	C85.575653,28.888298 85.806740,30.520063 86.037827,32.151829 
	C85.267395,32.217087 84.496964,32.282349 83.373047,32.187759 
	C84.277664,26.199223 80.419609,25.414742 75.441833,24.751759 
	C74.555275,24.344196 74.364700,24.232910 74.174118,24.121624 
z"/>
<path fill="#4F4F4F" opacity="1.000000" stroke="none" 
	d="
M86.245407,32.394073 
	C85.806740,30.520063 85.575653,28.888298 85.618004,27.127918 
	C86.908661,27.985865 88.228897,28.833462 88.779503,30.034023 
	C88.973419,30.456865 87.283035,31.743879 86.245407,32.394073 
z"/>
<path fill="#A5A5A5" opacity="1.000000" stroke="none" 
	d="
M39.209461,33.079460 
	C39.839745,32.543484 40.810902,32.111599 41.899422,31.999523 
	C41.194633,32.607407 40.372486,32.895485 39.209461,33.079460 
z"/>
<path fill="#535353" opacity="1.000000" stroke="none" 
	d="
M83.929344,24.760345 
	C83.420151,24.847557 82.868927,24.648487 82.164223,24.186138 
	C82.636261,24.106592 83.261795,24.290329 83.929344,24.760345 
z"/>
<path fill="#A5A5A5" opacity="1.000000" stroke="none" 
	d="
M33.686253,24.662991 
	C34.034874,24.472574 34.315872,24.644367 34.315407,24.805386 
	C33.261848,29.914463 32.208755,34.862522 30.839622,39.995735 
	C30.096636,34.821125 28.928890,29.325357 33.686253,24.662991 
z"/>
<path fill="#272727" opacity="1.000000" stroke="none" 
	d="
M74.200470,24.130028 
	C74.364700,24.232910 74.555275,24.344196 75.069153,24.507679 
	C74.915314,24.538782 74.438164,24.517687 73.964645,24.298157 
	C73.968285,24.099726 74.226822,24.138430 74.200470,24.130028 
z"/>
</svg>