<svg version="1.1" id="Layer_1" xmlns="http://www.w3.org/2000/svg" xmlns:xlink="http://www.w3.org/1999/xlink" x="0px" y="0px"
	 width="100%" viewBox="0 0 96 92" enable-background="new 0 0 96 92" xml:space="preserve">
<path fill="#FCFCFC" opacity="1.000000" stroke="none" 
	d="
M36.000000,93.000000 
	C24.347971,93.000000 12.695943,93.000000 1.021957,93.000000 
	C1.021957,62.386459 1.021957,31.772903 1.021957,1.079672 
	C32.906570,1.079672 64.813385,1.079672 96.860107,1.079672 
	C96.860107,31.666245 96.860107,62.333023 96.860107,93.000000 
	C85.909676,93.000000 74.923492,93.000000 63.485435,92.656952 
	C63.987286,90.867210 64.941025,89.420532 65.971130,87.730759 
	C66.101021,87.164864 66.154541,86.842049 66.374863,86.435295 
	C66.772507,86.250664 66.978767,86.113129 67.175095,86.112061 
	C67.189743,86.285370 67.505501,86.431328 67.725739,86.632477 
	C70.283554,85.492027 72.621140,84.150421 75.305649,82.774239 
	C77.205795,81.466682 79.072777,80.427139 80.235802,78.863869 
	C81.823616,76.729630 82.875351,74.196579 84.392441,71.651855 
	C84.735710,71.302254 84.843460,71.135307 85.316185,71.009583 
	C87.124321,69.036606 88.567490,67.022400 90.352089,64.975281 
	C91.143066,63.629887 91.592621,62.317417 92.116928,60.594204 
	C92.433266,52.790428 92.674850,45.397392 93.156487,37.853134 
	C93.168030,37.135536 92.939529,36.569160 92.710777,35.717819 
	C92.679794,35.054317 92.649055,34.675777 92.718842,33.942154 
	C91.871582,32.731457 90.923790,31.875835 89.901848,30.648041 
	C88.107834,26.794226 87.033752,22.733721 84.537041,19.948450 
	C78.908409,13.669279 72.452690,7.551163 64.154610,5.679444 
	C57.418346,4.160009 50.089245,5.268864 42.721119,5.246775 
	C42.016212,5.322445 41.613262,5.363408 40.800694,5.255521 
	C36.867168,4.429781 33.983330,5.422285 31.463665,8.419304 
	C30.043072,8.604120 29.011885,8.749889 27.785667,8.662201 
	C26.762825,9.329655 25.935013,10.230568 24.786959,11.243183 
	C23.359520,12.276260 22.252321,13.197635 20.819618,14.115669 
	C19.965881,14.690410 19.437647,15.268490 18.787502,16.066107 
	C18.422504,16.509628 18.179413,16.733614 17.601601,16.994278 
	C16.511993,18.021667 15.757109,19.012377 14.869190,20.279932 
	C14.243164,21.448576 13.750174,22.340374 12.883036,23.201962 
	C11.783483,24.223534 11.058077,25.275318 10.274258,26.649071 
	C10.056358,27.605402 9.896872,28.239763 9.399607,28.960821 
	C6.347371,30.379492 5.463730,32.484886 6.346763,35.799839 
	C6.244145,42.823551 6.190981,49.404911 5.889083,56.130966 
	C5.846506,56.855717 6.052662,57.435783 6.267402,58.344357 
	C6.316258,59.328564 6.356530,59.984264 6.271551,61.026390 
	C7.180436,62.538582 8.214572,63.664341 9.440952,65.091995 
	C9.888242,66.804459 10.143285,68.215012 10.304428,69.989853 
	C11.123588,70.916191 12.036647,71.478241 13.210524,72.077621 
	C13.643618,72.080673 13.815893,72.046410 14.132590,72.296844 
	C14.359056,72.996040 14.441100,73.410545 14.190312,73.955803 
	C15.933820,76.035660 18.010159,77.984756 20.357891,80.045288 
	C21.256714,80.606697 21.884144,81.056671 22.610851,81.795151 
	C23.516232,82.667297 24.322336,83.250923 25.125465,84.182144 
	C26.419813,85.322746 27.717138,86.115753 29.331402,86.965164 
	C30.456385,87.311783 31.264427,87.601997 32.085163,88.251373 
	C33.398571,90.073685 34.699287,91.536842 36.000000,93.000000 
z"/>
<path fill="#868686" opacity="1.000000" stroke="none" 
	d="
M66.208061,86.519241 
	C66.154541,86.842049 66.101021,87.164864 65.610901,87.766006 
	C63.429611,88.748833 61.571434,89.266563 59.984535,90.230774 
	C59.091763,90.773239 58.646736,92.052605 58.000000,93.000000 
	C56.933331,93.000000 55.866657,93.000000 54.598572,92.690369 
	C53.250332,91.715057 52.103504,91.049370 51.125954,90.046562 
	C55.954090,87.187180 60.739147,85.254845 66.208061,86.519241 
z"/>
<path fill="#D2D2D2" opacity="1.000000" stroke="none" 
	d="
M36.444168,93.000000 
	C34.699287,91.536842 33.398571,90.073685 32.473450,88.218956 
	C37.264542,88.965012 41.680038,90.102638 45.898651,91.445938 
	C45.134510,92.101074 44.567253,92.550537 44.000000,93.000000 
	C41.629444,93.000000 39.258884,93.000000 36.444168,93.000000 
z"/>
<path fill="#D2D2D2" opacity="1.000000" stroke="none" 
	d="
M58.416664,93.000000 
	C58.646736,92.052605 59.091763,90.773239 59.984535,90.230774 
	C61.571434,89.266563 63.429611,88.748833 65.534531,88.009094 
	C64.941025,89.420532 63.987286,90.867210 63.016777,92.656952 
	C61.611111,93.000000 60.222221,93.000000 58.416664,93.000000 
z"/>
<path fill="#FCFCFC" opacity="1.000000" stroke="none" 
	d="
M44.454109,93.000000 
	C44.567253,92.550537 45.134510,92.101074 46.116707,91.355553 
	C46.912331,90.979309 47.077900,90.746292 47.420219,90.393997 
	C48.860275,90.412933 49.908474,90.398308 50.956676,90.383682 
	C52.103504,91.049370 53.250332,91.715057 54.198578,92.690369 
	C50.969406,93.000000 47.938812,93.000000 44.454109,93.000000 
z"/>
<path fill="#2B2B2B" opacity="1.000000" stroke="none" 
	d="
M84.951218,70.968353 
	C84.843460,71.135307 84.735710,71.302254 84.087738,71.653847 
	C82.048706,72.588493 80.549896,73.338509 78.994202,73.753372 
	C76.928017,72.621635 74.918716,71.825043 72.574173,71.001633 
	C71.367249,70.747681 70.495567,70.520554 69.459366,70.121292 
	C69.067917,69.726944 68.834229,69.512054 68.777740,69.016708 
	C67.484245,67.997025 66.006821,67.265137 64.175995,66.501144 
	C62.894924,66.286270 61.967258,66.103508 60.983780,65.552864 
	C56.891014,61.334476 42.643909,60.644081 38.653664,64.169762 
	C38.229736,64.544334 38.202106,65.367439 37.647461,66.070618 
	C36.376347,66.322403 35.448395,66.486023 34.164291,66.480194 
	C32.577122,67.595032 31.346104,68.879311 29.961279,70.259048 
	C29.807470,70.354515 29.458485,70.450882 29.094048,70.336601 
	C27.551867,70.506134 26.374123,70.789948 24.814159,71.085457 
	C22.038500,71.744591 19.645061,72.392036 17.139603,72.670303 
	C15.519692,70.114281 16.936676,65.739334 12.123427,65.588356 
	C11.832855,64.300613 11.676381,63.349434 11.658545,61.998169 
	C10.620587,59.023621 9.443993,56.449158 8.188294,53.426117 
	C8.173857,49.030243 8.238522,45.082943 8.634008,41.044628 
	C9.783494,38.817410 10.602160,36.681206 11.452928,34.216309 
	C11.188644,28.829987 14.409297,25.226271 17.416899,22.098179 
	C21.794006,17.545719 27.050714,13.838979 32.296516,9.786812 
	C33.625256,9.710032 34.589855,9.618073 35.969528,9.673639 
	C37.255821,9.872820 38.127037,9.924476 38.999252,10.297403 
	C39.001633,11.046438 39.003025,11.474200 38.632568,11.956551 
	C33.894657,14.516368 28.799829,16.277882 25.320122,19.687643 
	C18.847788,26.029879 11.929115,32.629139 13.164036,43.614403 
	C13.169489,47.642548 13.187617,51.223789 13.129320,55.202507 
	C13.421360,57.361351 13.563634,59.220795 14.264795,60.837902 
	C14.563360,61.526485 16.030827,61.708248 17.189781,62.399437 
	C19.235697,69.025192 22.300800,69.438629 27.416712,65.504494 
	C30.943783,62.792179 35.757671,61.753231 40.291901,60.259781 
	C46.726330,60.352871 52.865334,60.152615 59.391273,59.960518 
	C61.272461,60.218693 62.766708,60.468716 64.235352,61.104118 
	C65.568703,62.226585 66.927643,62.963673 68.483231,63.743698 
	C68.679878,63.786633 69.057999,63.924732 69.069115,64.257469 
	C69.726753,65.055557 70.373268,65.520912 71.190247,66.296082 
	C74.440323,69.316307 77.591064,69.957184 81.136032,67.113129 
	C81.929070,68.197647 82.453827,69.101639 83.184128,70.034195 
	C83.655449,70.118683 83.923233,70.162300 84.341537,70.427444 
	C84.643776,70.763641 84.797493,70.865997 84.951218,70.968353 
z"/>
<path fill="#9D9D9D" opacity="1.000000" stroke="none" 
	d="
M85.316185,71.009583 
	C84.797493,70.865997 84.643776,70.763641 84.660065,70.196320 
	C85.592049,68.513390 86.354027,67.295441 87.221725,65.703949 
	C87.427811,64.051338 87.528183,62.772259 87.910202,61.313263 
	C89.088257,58.736954 89.984673,56.340569 90.948700,53.491001 
	C90.983643,49.371853 90.950974,45.705879 90.989311,41.656265 
	C90.087349,38.840263 89.114395,36.407906 88.088745,33.629734 
	C87.729218,32.161442 87.422394,31.038960 87.098129,29.574444 
	C85.889862,27.678682 84.699051,26.124956 83.473610,24.277391 
	C83.360397,23.597187 83.281799,23.210823 83.135109,22.495966 
	C80.727646,20.108635 78.388283,18.049795 75.963707,15.689825 
	C75.253952,14.912248 74.629402,14.435802 73.805763,13.697306 
	C71.711250,12.331202 69.815834,11.227147 67.541214,10.009107 
	C65.602707,9.749041 64.043396,9.602961 62.329773,9.150898 
	C59.742363,8.002218 57.309269,7.159520 54.435295,6.227732 
	C50.702534,6.201859 47.410652,6.265075 43.902763,6.168994 
	C43.465527,5.743820 43.244297,5.477944 43.023071,5.212068 
	C50.089245,5.268864 57.418346,4.160009 64.154610,5.679444 
	C72.452690,7.551163 78.908409,13.669279 84.537041,19.948450 
	C87.033752,22.733721 88.107834,26.794226 89.917030,30.978588 
	C90.877022,32.553288 91.747673,33.425262 92.618317,34.297237 
	C92.649055,34.675777 92.679794,35.054317 92.528915,35.884987 
	C92.537010,36.892868 92.726730,37.448612 92.916443,38.004356 
	C92.674850,45.397392 92.433266,52.790428 91.790741,60.722878 
	C90.930092,62.510921 90.470383,63.759560 90.010666,65.008194 
	C88.567490,67.022400 87.124321,69.036606 85.316185,71.009583 
z"/>
<path fill="#262626" opacity="1.000000" stroke="none" 
	d="
M72.909409,71.028450 
	C74.918716,71.825043 76.928017,72.621635 78.942863,74.085815 
	C76.136055,76.941292 73.207863,78.999695 70.558800,81.370064 
	C69.172935,82.610123 68.277420,84.398178 67.160454,85.938744 
	C66.978767,86.113129 66.772507,86.250664 66.374863,86.435295 
	C60.739147,85.254845 55.954090,87.187180 51.125954,90.046562 
	C49.908474,90.398308 48.860275,90.412933 47.272087,90.070137 
	C45.835110,89.442528 44.938126,89.172340 43.983196,88.551147 
	C41.611698,87.494293 39.298149,86.788437 36.597374,86.061752 
	C33.141308,84.683441 30.072472,83.325951 27.049725,81.645645 
	C27.756491,80.868774 28.417164,80.414711 29.448189,79.968002 
	C31.075090,80.649788 32.262585,81.625488 33.603275,81.932770 
	C36.022202,82.487175 38.532764,82.641754 41.437752,82.961014 
	C47.247589,82.976433 52.624729,82.994148 58.254719,83.293304 
	C61.641544,84.097145 64.987366,84.992874 65.277084,79.832733 
	C66.629707,79.376465 67.652039,79.008301 69.056747,78.728874 
	C73.494255,77.512520 72.902618,74.137177 72.909409,71.028450 
z"/>
<path fill="#989898" opacity="1.000000" stroke="none" 
	d="
M8.303187,41.135647 
	C8.238522,45.082943 8.173857,49.030243 8.115803,53.800556 
	C9.254911,57.215134 10.387409,59.806694 11.519907,62.398254 
	C11.676381,63.349434 11.832855,64.300613 12.077009,65.950836 
	C12.772517,68.437302 13.380343,70.224731 13.988171,72.012154 
	C13.815893,72.046410 13.643618,72.080673 13.132444,71.774414 
	C11.995142,70.831116 11.196735,70.228348 10.398329,69.625572 
	C10.143285,68.215012 9.888242,66.804459 9.406451,64.754250 
	C8.252069,62.956390 7.324435,61.798176 6.396802,60.639961 
	C6.356530,59.984264 6.316258,59.328564 6.447853,58.177380 
	C6.459085,57.116688 6.298451,56.551479 6.137817,55.986275 
	C6.190981,49.404911 6.244145,42.823551 6.645574,35.656002 
	C7.908354,33.004585 8.822869,30.939356 9.737385,28.874126 
	C9.896872,28.239763 10.056358,27.605402 10.572178,26.540539 
	C11.704734,25.150749 12.480959,24.191460 13.257183,23.232172 
	C13.750174,22.340374 14.243164,21.448576 15.211985,20.259672 
	C16.437317,18.960911 17.186819,17.959253 17.936321,16.957598 
	C18.179413,16.733614 18.422504,16.509628 19.116713,16.076910 
	C20.093594,15.285119 20.619358,14.702064 21.145123,14.119009 
	C22.252321,13.197635 23.359520,12.276260 25.107481,11.202372 
	C26.492395,10.331790 27.236546,9.613725 27.980698,8.895658 
	C29.011885,8.749889 30.043072,8.604120 31.494343,8.767733 
	C31.920408,9.308620 31.926390,9.540127 31.932371,9.771633 
	C27.050714,13.838979 21.794006,17.545719 17.416899,22.098179 
	C14.409297,25.226271 11.188644,28.829987 11.160132,34.368790 
	C9.991219,36.945198 9.147203,39.040421 8.303187,41.135647 
z"/>
<path fill="#868686" opacity="1.000000" stroke="none" 
	d="
M27.003635,81.968460 
	C30.072472,83.325951 33.141308,84.683441 36.799461,86.341751 
	C39.606228,87.395760 41.823685,88.148956 44.041142,88.902161 
	C44.938126,89.172340 45.835110,89.442528 46.880230,90.036575 
	C47.077900,90.746292 46.912331,90.979309 46.313591,91.149879 
	C41.680038,90.102638 37.264542,88.965012 32.460758,87.859802 
	C31.264427,87.601997 30.456385,87.311783 29.211594,86.664749 
	C27.559380,85.483459 26.343910,84.659004 25.128441,83.834549 
	C24.322336,83.250923 23.516232,82.667297 22.828144,81.577774 
	C23.089066,80.927361 23.231968,80.782845 23.663389,80.793167 
	C24.969151,81.288162 25.986393,81.628319 27.003635,81.968460 
z"/>
<path fill="#4F4F4F" opacity="1.000000" stroke="none" 
	d="
M67.175095,86.112061 
	C68.277420,84.398178 69.172935,82.610123 70.558800,81.370064 
	C73.207863,78.999695 76.136055,76.941292 78.999741,74.420959 
	C80.549896,73.338509 82.048706,72.588493 83.852211,71.836487 
	C82.875351,74.196579 81.823616,76.729630 80.235802,78.863869 
	C79.072777,80.427139 77.205795,81.466682 75.094650,82.503395 
	C72.192986,83.655197 69.849243,85.043266 67.505501,86.431328 
	C67.505501,86.431328 67.189743,86.285370 67.175095,86.112061 
z"/>
<path fill="#9D9D9D" opacity="1.000000" stroke="none" 
	d="
M32.296516,9.786812 
	C31.926390,9.540127 31.920408,9.308620 31.883749,8.728685 
	C33.983330,5.422285 36.867168,4.429781 40.696220,5.566248 
	C39.185726,7.192588 37.370087,8.359352 35.554451,9.526115 
	C34.589855,9.618073 33.625256,9.710032 32.296516,9.786812 
z"/>
<path fill="#434343" opacity="1.000000" stroke="none" 
	d="
M14.132591,72.296844 
	C13.380343,70.224731 12.772517,68.437302 12.211107,66.287399 
	C16.936676,65.739334 15.519692,70.114281 17.069998,72.935410 
	C17.056416,73.743370 17.000412,73.917046 16.642902,74.182846 
	C15.735311,74.124992 15.129227,73.975021 14.523144,73.825043 
	C14.441100,73.410545 14.359056,72.996040 14.132591,72.296844 
z"/>
<path fill="#4F4F4F" opacity="1.000000" stroke="none" 
	d="
M35.969528,9.673639 
	C37.370087,8.359352 39.185726,7.192588 41.105835,5.715098 
	C41.613262,5.363408 42.016212,5.322445 42.721119,5.246775 
	C43.244297,5.477944 43.465527,5.743820 43.823006,6.482956 
	C42.305588,7.962854 40.651924,8.969494 38.998257,9.976131 
	C38.127037,9.924476 37.255821,9.872820 35.969528,9.673639 
z"/>
<path fill="#868686" opacity="1.000000" stroke="none" 
	d="
M67.725739,86.632477 
	C69.849243,85.043266 72.192986,83.655197 74.747726,82.537971 
	C72.621140,84.150421 70.283554,85.492027 67.725739,86.632477 
z"/>
<path fill="#D7D7D7" opacity="1.000000" stroke="none" 
	d="
M14.190311,73.955811 
	C15.129227,73.975021 15.735311,74.124992 16.619888,74.383537 
	C17.341940,74.923340 17.785498,75.354561 18.133781,76.116913 
	C18.721169,77.609985 19.403833,78.771919 20.086496,79.933861 
	C18.010159,77.984756 15.933820,76.035660 14.190311,73.955811 
z"/>
<path fill="#D7D7D7" opacity="1.000000" stroke="none" 
	d="
M9.399606,28.960821 
	C8.822869,30.939356 7.908354,33.004585 6.695027,35.213654 
	C5.463730,32.484886 6.347371,30.379492 9.399606,28.960821 
z"/>
<path fill="#868686" opacity="1.000000" stroke="none" 
	d="
M20.357891,80.045288 
	C19.403833,78.771919 18.721169,77.609985 18.420008,76.074341 
	C19.168324,75.821754 19.535139,75.942863 19.946026,76.387634 
	C20.679449,77.104553 21.368801,77.497810 22.209515,78.118790 
	C22.680099,78.506729 22.999321,78.666946 23.259399,79.129547 
	C23.258459,79.834061 23.316664,80.236198 23.374870,80.638329 
	C23.231968,80.782845 23.089066,80.927361 22.728867,81.289261 
	C21.884144,81.056671 21.256714,80.606697 20.357891,80.045288 
z"/>
<path fill="#D2D2D2" opacity="1.000000" stroke="none" 
	d="
M25.125465,84.182144 
	C26.343910,84.659004 27.559380,85.483459 28.894655,86.608337 
	C27.717138,86.115753 26.419813,85.322746 25.125465,84.182144 
z"/>
<path fill="#D2D2D2" opacity="1.000000" stroke="none" 
	d="
M90.352097,64.975281 
	C90.470383,63.759560 90.930092,62.510921 91.715988,61.133614 
	C91.592621,62.317417 91.143066,63.629887 90.352097,64.975281 
z"/>
<path fill="#D7D7D7" opacity="1.000000" stroke="none" 
	d="
M6.271551,61.026390 
	C7.324435,61.798176 8.252069,62.956390 9.214205,64.452347 
	C8.214572,63.664341 7.180436,62.538582 6.271551,61.026390 
z"/>
<path fill="#D7D7D7" opacity="1.000000" stroke="none" 
	d="
M27.785667,8.662201 
	C27.236546,9.613725 26.492395,10.331790 25.427721,11.090668 
	C25.935013,10.230568 26.762825,9.329655 27.785667,8.662201 
z"/>
<path fill="#D2D2D2" opacity="1.000000" stroke="none" 
	d="
M92.718842,33.942154 
	C91.747673,33.425262 90.877022,32.553288 89.991188,31.350763 
	C90.923790,31.875835 91.871582,32.731457 92.718842,33.942154 
z"/>
<path fill="#D7D7D7" opacity="1.000000" stroke="none" 
	d="
M17.601601,16.994278 
	C17.186819,17.959253 16.437317,18.960911 15.345020,19.982826 
	C15.757109,19.012377 16.511993,18.021667 17.601601,16.994278 
z"/>
<path fill="#D7D7D7" opacity="1.000000" stroke="none" 
	d="
M12.883036,23.201962 
	C12.480959,24.191460 11.704734,25.150749 10.630590,26.218571 
	C11.058077,25.275318 11.783483,24.223534 12.883036,23.201962 
z"/>
<path fill="#D7D7D7" opacity="1.000000" stroke="none" 
	d="
M10.304428,69.989853 
	C11.196735,70.228348 11.995142,70.831116 12.871628,71.737091 
	C12.036647,71.478241 11.123588,70.916191 10.304428,69.989853 
z"/>
<path fill="#D7D7D7" opacity="1.000000" stroke="none" 
	d="
M20.819618,14.115669 
	C20.619358,14.702064 20.093594,15.285119 19.238621,15.857372 
	C19.437647,15.268490 19.965881,14.690410 20.819618,14.115669 
z"/>
<path fill="#D2D2D2" opacity="1.000000" stroke="none" 
	d="
M93.156494,37.853134 
	C92.726730,37.448612 92.537010,36.892868 92.529160,36.169952 
	C92.939529,36.569160 93.168030,37.135536 93.156494,37.853134 
z"/>
<path fill="#D7D7D7" opacity="1.000000" stroke="none" 
	d="
M5.889083,56.130966 
	C6.298451,56.551479 6.459085,57.116688 6.439269,57.848869 
	C6.052662,57.435783 5.846506,56.855717 5.889083,56.130966 
z"/>
<path fill="#919191" opacity="1.000000" stroke="none" 
	d="
M13.205746,54.805027 
	C13.187617,51.223789 13.169489,47.642548 13.523520,43.582470 
	C14.367813,43.188637 14.839949,43.273643 15.282690,43.774315 
	C13.237152,51.076965 18.833946,56.271637 19.546339,62.596031 
	C19.608339,63.146465 23.171494,64.073799 24.653156,63.546627 
	C28.887381,62.040104 32.886868,59.873821 37.365669,58.019211 
	C43.672874,56.694416 40.534481,53.667355 39.417229,50.919601 
	C41.415718,51.334541 43.048328,51.771690 44.798031,52.522865 
	C46.876740,56.350384 48.889629,56.902794 51.310978,52.947098 
	C52.074413,52.876987 52.507549,52.801708 53.254780,52.785233 
	C54.193562,52.346008 54.818249,51.847973 55.807449,51.315948 
	C59.182930,48.848999 62.193905,46.416046 65.446426,43.933815 
	C65.687973,43.884541 66.172630,43.977562 66.089172,44.329006 
	C63.572849,47.956646 61.139980,51.232841 58.432961,54.878220 
	C59.657928,58.222324 63.046944,58.479763 66.745224,58.735916 
	C68.954132,60.324276 70.997040,61.634655 73.017410,62.968063 
	C72.994888,62.991089 73.048042,62.957657 73.145523,63.306934 
	C74.677551,66.338051 76.528152,67.070145 79.226318,64.592606 
	C80.633003,59.129982 82.379349,54.013836 82.881027,48.778423 
	C83.993576,37.168243 73.279404,18.478765 59.836079,16.609612 
	C57.770370,15.860051 55.891556,15.417439 53.750916,14.675488 
	C51.325333,14.253392 49.161583,14.130635 46.914116,13.801401 
	C46.562366,13.242068 46.294323,12.889213 46.424805,12.397848 
	C51.113499,12.317014 55.403675,12.374689 59.836143,12.721849 
	C61.343960,13.639798 62.709473,14.268261 64.391403,15.060993 
	C72.813576,18.870623 78.717888,24.659515 81.999710,33.334541 
	C82.865318,34.877789 83.739685,36.079872 84.658623,37.730865 
	C84.655167,45.017860 84.607140,51.855946 84.268646,58.838753 
	C83.350426,60.344021 82.722679,61.704567 81.951935,63.383461 
	C81.495216,64.778740 81.181488,65.855667 80.867752,66.932594 
	C77.591064,69.957184 74.440323,69.316307 71.193878,65.958405 
	C70.370697,64.848846 69.714348,64.386787 69.057999,63.924732 
	C69.057999,63.924732 68.679878,63.786633 68.377090,63.426884 
	C66.803192,62.284336 65.532074,61.501537 64.260956,60.718739 
	C62.766708,60.468716 61.272461,60.218693 59.100193,59.682457 
	C52.249359,58.587391 46.067097,57.473171 39.996468,59.966438 
	C35.757671,61.753231 30.943783,62.792179 27.416712,65.504494 
	C22.300800,69.438629 19.235697,69.025192 17.193909,62.023655 
	C15.718816,59.180855 14.462281,56.992939 13.205746,54.805027 
z"/>
<path fill="#2A2A2A" opacity="1.000000" stroke="none" 
	d="
M81.136032,67.113129 
	C81.181488,65.855667 81.495216,64.778740 82.291138,63.301796 
	C83.368599,61.499195 83.963860,60.096615 84.559120,58.694035 
	C84.607140,51.855946 84.655167,45.017860 84.766891,37.373611 
	C83.889877,35.376091 82.949173,34.184731 82.008469,32.993370 
	C78.717888,24.659515 72.813576,18.870623 64.335381,14.702362 
	C62.539909,13.597095 61.116879,13.014730 59.693848,12.432365 
	C55.403675,12.374689 51.113499,12.317014 46.049652,12.328901 
	C43.518124,12.564204 41.760273,12.729945 39.913322,12.666515 
	C39.591938,12.196140 39.318668,12.017679 39.004417,11.901963 
	C39.003025,11.474200 39.001633,11.046438 38.999252,10.297403 
	C40.651924,8.969494 42.305588,7.962854 44.039017,6.642254 
	C47.410652,6.265075 50.702534,6.201859 54.529522,6.561799 
	C57.537785,7.808930 60.010941,8.632905 62.484093,9.456879 
	C64.043396,9.602961 65.602707,9.749041 67.563751,10.370477 
	C68.713066,14.338494 70.903725,15.031960 74.004860,13.959356 
	C74.629402,14.435802 75.253952,14.912248 75.709946,15.864764 
	C78.095337,18.502043 80.649269,20.663252 83.203209,22.824459 
	C83.281799,23.210823 83.360397,23.597187 83.344376,24.647892 
	C84.538368,26.846981 85.826973,28.381729 87.115578,29.916477 
	C87.422394,31.038960 87.729218,32.161442 87.793678,33.837112 
	C87.818695,37.316486 86.770447,40.821743 90.918312,42.039909 
	C90.950974,45.705879 90.983643,49.371853 90.593658,53.549988 
	C89.323517,56.539162 88.476036,59.016171 87.628555,61.493183 
	C87.528183,62.772259 87.427811,64.051338 86.869301,65.711609 
	C85.266968,67.397072 84.122772,68.701355 82.978584,70.005630 
	C82.453827,69.101639 81.929070,68.197647 81.136032,67.113129 
z"/>
<path fill="#A4A4A4" opacity="1.000000" stroke="none" 
	d="
M58.001869,83.011871 
	C52.624729,82.994148 47.247589,82.976433 41.228935,82.681335 
	C36.841816,80.835518 33.096210,79.267090 29.305523,77.498619 
	C29.260435,77.298584 29.124430,76.911682 29.156654,76.558151 
	C29.278748,74.286705 29.368616,72.368790 29.458485,70.450882 
	C29.458485,70.450882 29.807470,70.354515 30.297028,70.243973 
	C32.031204,68.972168 33.275826,67.810905 34.520447,66.649643 
	C35.448395,66.486023 36.376347,66.322403 38.047775,66.117371 
	C46.186432,63.023697 53.610443,64.103615 61.039593,65.920746 
	C61.967258,66.103508 62.894924,66.286270 64.334869,66.771393 
	C66.096031,67.817329 67.344917,68.560913 68.593803,69.304497 
	C68.834229,69.512054 69.067917,69.726944 69.510422,70.514328 
	C69.375450,73.599709 69.024910,76.119919 68.674362,78.640137 
	C67.652039,79.008301 66.629707,79.376465 64.911011,79.796234 
	C62.143723,80.902512 60.072796,81.957191 58.001869,83.011871 
M62.291576,78.021744 
	C64.341690,76.608803 66.391808,75.195854 68.441917,73.782906 
	C68.269218,73.128044 68.096519,72.473190 67.923820,71.818329 
	C64.480865,70.515343 61.125557,68.527946 57.573975,68.073074 
	C52.507122,67.424141 47.233299,67.411903 42.169994,68.068886 
	C38.949940,68.486702 35.789219,70.358322 32.978748,72.164452 
	C32.355164,72.565186 32.945690,76.773537 33.607502,76.957184 
	C39.739948,78.658859 45.960968,80.376656 52.262890,80.984673 
	C55.222572,81.270233 58.415306,79.140350 62.291576,78.021744 
z"/>
<path fill="#575757" opacity="1.000000" stroke="none" 
	d="
M38.632565,11.956551 
	C39.318668,12.017679 39.591938,12.196140 39.755150,12.981918 
	C38.134747,14.396524 36.445236,15.089211 35.058098,16.169985 
	C30.967224,19.357347 26.996077,22.698376 22.876511,26.160933 
	C22.774946,26.342596 22.648840,26.739292 22.343964,26.827673 
	C20.953085,28.875999 19.867081,30.835943 18.736912,32.819431 
	C18.692749,32.842976 18.601419,32.802010 18.275047,32.910576 
	C17.071630,36.426632 16.194584,39.834126 15.313995,43.270775 
	C15.310452,43.299931 15.312084,43.358650 15.312084,43.358650 
	C14.839949,43.273643 14.367813,43.188637 13.536195,43.135567 
	C11.929115,32.629139 18.847788,26.029879 25.320122,19.687643 
	C28.799829,16.277882 33.894657,14.516368 38.632565,11.956551 
z"/>
<path fill="#535353" opacity="1.000000" stroke="none" 
	d="
M60.983780,65.552872 
	C53.610443,64.103615 46.186432,63.023697 38.390938,66.029213 
	C38.202106,65.367439 38.229736,64.544334 38.653664,64.169762 
	C42.643909,60.644081 56.891014,61.334476 60.983780,65.552872 
z"/>
<path fill="#262626" opacity="1.000000" stroke="none" 
	d="
M23.318542,78.827156 
	C22.999321,78.666946 22.680099,78.506729 22.152554,77.803131 
	C21.263472,76.861153 20.582712,76.462563 19.901955,76.063972 
	C19.535139,75.942863 19.168324,75.821754 18.515282,75.743217 
	C17.785498,75.354561 17.341940,74.923340 16.921396,74.291420 
	C17.000412,73.917046 17.056416,73.743370 17.182022,73.304581 
	C19.645061,72.392036 22.038500,71.744591 24.787291,71.441681 
	C25.446255,73.183189 25.749866,74.580185 25.802336,76.132515 
	C24.806976,77.134285 24.062757,77.980721 23.318542,78.827156 
z"/>
<path fill="#535353" opacity="1.000000" stroke="none" 
	d="
M40.291901,60.259781 
	C46.067097,57.473171 52.249359,58.587391 58.713253,59.674305 
	C52.865334,60.152615 46.726330,60.352871 40.291901,60.259781 
z"/>
<path fill="#535353" opacity="1.000000" stroke="none" 
	d="
M69.056747,78.728874 
	C69.024910,76.119919 69.375450,73.599709 69.674934,70.686455 
	C70.495567,70.520554 71.367249,70.747681 72.574173,71.001633 
	C72.902618,74.137177 73.494255,77.512520 69.056747,78.728874 
z"/>
<path fill="#535353" opacity="1.000000" stroke="none" 
	d="
M26.053478,75.977173 
	C25.749866,74.580185 25.446255,73.183189 25.169510,71.429977 
	C26.374123,70.789948 27.551867,70.506134 29.094048,70.336601 
	C29.368616,72.368790 29.278748,74.286705 28.826666,76.573235 
	C27.660795,76.620300 26.857136,76.298737 26.053478,75.977173 
z"/>
<path fill="#545454" opacity="1.000000" stroke="none" 
	d="
M13.129320,55.202507 
	C14.462281,56.992939 15.718816,59.180855 16.971224,61.744545 
	C16.030827,61.708248 14.563360,61.526485 14.264795,60.837902 
	C13.563634,59.220795 13.421360,57.361351 13.129320,55.202507 
z"/>
<path fill="#535353" opacity="1.000000" stroke="none" 
	d="
M11.658544,61.998169 
	C10.387409,59.806694 9.254911,57.215134 8.194906,54.249134 
	C9.443993,56.449158 10.620587,59.023621 11.658544,61.998169 
z"/>
<path fill="#535353" opacity="1.000000" stroke="none" 
	d="
M8.634008,41.044628 
	C9.147203,39.040421 9.991219,36.945198 11.128029,34.697487 
	C10.602160,36.681206 9.783494,38.817410 8.634008,41.044628 
z"/>
<path fill="#535353" opacity="1.000000" stroke="none" 
	d="
M64.235352,61.104118 
	C65.532074,61.501537 66.803192,62.284336 68.180450,63.383949 
	C66.927643,62.963673 65.568703,62.226585 64.235352,61.104118 
z"/>
<path fill="#4F4F4F" opacity="1.000000" stroke="none" 
	d="
M83.184128,70.034195 
	C84.122772,68.701355 85.266968,67.397072 86.763580,66.085144 
	C86.354027,67.295441 85.592049,68.513390 84.511536,69.962479 
	C83.923233,70.162300 83.655449,70.118683 83.184128,70.034195 
z"/>
<path fill="#535353" opacity="1.000000" stroke="none" 
	d="
M34.164291,66.480194 
	C33.275826,67.810905 32.031204,68.972168 30.450836,70.148506 
	C31.346104,68.879311 32.577122,67.595032 34.164291,66.480194 
z"/>
<path fill="#535353" opacity="1.000000" stroke="none" 
	d="
M68.777740,69.016708 
	C67.344917,68.560913 66.096031,67.817329 64.688271,66.803497 
	C66.006821,67.265137 67.484245,67.997025 68.777740,69.016708 
z"/>
<path fill="#535353" opacity="1.000000" stroke="none" 
	d="
M69.069115,64.257469 
	C69.714348,64.386787 70.370697,64.848846 71.023422,65.648575 
	C70.373268,65.520912 69.726753,65.055557 69.069115,64.257469 
z"/>
<path fill="#4F4F4F" opacity="1.000000" stroke="none" 
	d="
M90.989311,41.656265 
	C86.770447,40.821743 87.818695,37.316486 87.846375,34.182930 
	C89.114395,36.407906 90.087349,38.840263 90.989311,41.656265 
z"/>
<path fill="#535353" opacity="1.000000" stroke="none" 
	d="
M83.135109,22.495968 
	C80.649269,20.663252 78.095337,18.502043 75.795166,16.165895 
	C78.388283,18.049795 80.727646,20.108635 83.135109,22.495968 
z"/>
<path fill="#4F4F4F" opacity="1.000000" stroke="none" 
	d="
M62.329773,9.150898 
	C60.010941,8.632905 57.537785,7.808930 54.970406,6.650888 
	C57.309269,7.159520 59.742363,8.002218 62.329773,9.150898 
z"/>
<path fill="#4F4F4F" opacity="1.000000" stroke="none" 
	d="
M87.910202,61.313263 
	C88.476036,59.016171 89.323517,56.539162 90.526039,54.003166 
	C89.984673,56.340569 89.088257,58.736954 87.910202,61.313263 
z"/>
<path fill="#535353" opacity="1.000000" stroke="none" 
	d="
M73.805763,13.697306 
	C70.903725,15.031960 68.713066,14.338494 67.942963,10.484463 
	C69.815834,11.227147 71.711250,12.331202 73.805763,13.697306 
z"/>
<path fill="#535353" opacity="1.000000" stroke="none" 
	d="
M87.098129,29.574444 
	C85.826973,28.381729 84.538368,26.846981 83.378998,24.941730 
	C84.699051,26.124956 85.889862,27.678682 87.098129,29.574444 
z"/>
<path fill="#535353" opacity="1.000000" stroke="none" 
	d="
M29.350609,77.698654 
	C33.096210,79.267090 36.841816,80.835518 40.796234,82.683640 
	C38.532764,82.641754 36.022202,82.487175 33.603275,81.932770 
	C32.262585,81.625488 31.075090,80.649788 29.438007,79.586349 
	C29.155184,78.697777 29.252895,78.198212 29.350609,77.698654 
z"/>
<path fill="#2B2B2B" opacity="1.000000" stroke="none" 
	d="
M29.305521,77.498619 
	C29.252895,78.198212 29.155184,78.697777 29.067654,79.578995 
	C28.417164,80.414711 27.756491,80.868774 27.049725,81.645645 
	C25.986393,81.628319 24.969151,81.288162 23.663389,80.793167 
	C23.316664,80.236198 23.258459,79.834061 23.259398,79.129547 
	C24.062757,77.980721 24.806976,77.134285 25.802334,76.132515 
	C26.857136,76.298737 27.660795,76.620300 28.794441,76.926773 
	C29.124430,76.911682 29.260435,77.298584 29.305521,77.498619 
z"/>
<path fill="#535353" opacity="1.000000" stroke="none" 
	d="
M58.254723,83.293304 
	C60.072796,81.957191 62.143723,80.902512 64.580719,79.884338 
	C64.987366,84.992874 61.641544,84.097145 58.254723,83.293304 
z"/>
<path fill="#434343" opacity="1.000000" stroke="none" 
	d="
M43.983196,88.551155 
	C41.823685,88.148956 39.606228,87.395760 37.186687,86.362572 
	C39.298149,86.788437 41.611698,87.494293 43.983196,88.551155 
z"/>
<path fill="#434343" opacity="1.000000" stroke="none" 
	d="
M19.946026,76.387634 
	C20.582712,76.462563 21.263472,76.861153 22.001192,77.575409 
	C21.368801,77.497810 20.679449,77.104553 19.946026,76.387634 
z"/>
<path fill="#FBFBFB" opacity="1.000000" stroke="none" 
	d="
M22.648840,26.739292 
	C22.648840,26.739292 22.774946,26.342596 23.242790,26.166771 
	C24.775328,25.295496 25.838537,24.597755 26.904982,23.904989 
	C31.160990,21.140276 34.955883,17.363468 41.005608,17.756853 
	C42.258076,16.882147 43.111649,15.908407 44.256035,14.803413 
	C45.363842,14.450732 46.180836,14.229305 46.997829,14.007877 
	C49.161583,14.130635 51.325333,14.253392 53.753220,15.059124 
	C55.344700,16.497087 56.672047,17.252075 57.996902,18.267010 
	C57.991978,18.700247 57.989540,18.873537 57.521706,19.036097 
	C53.077637,19.018133 49.098953,19.013044 45.120281,19.002945 
	C42.282166,18.995741 40.264057,19.969172 39.881401,23.449512 
	C34.770702,24.867172 33.779213,29.312063 31.484560,33.028603 
	C27.957914,36.479881 28.322977,40.108917 32.349030,43.108479 
	C32.764572,43.812958 32.941441,44.353073 33.057190,45.285870 
	C33.969654,46.807915 34.943237,47.937271 36.175575,49.240986 
	C36.928646,50.105083 37.422962,50.794827 37.903450,51.851707 
	C37.585972,54.134907 37.282326,56.050972 36.978683,57.967037 
	C32.886868,59.873821 28.887381,62.040104 24.653156,63.546627 
	C23.171494,64.073799 19.608339,63.146465 19.546339,62.596031 
	C18.833946,56.271637 13.237152,51.076965 15.282690,43.774315 
	C15.312084,43.358650 15.310452,43.299931 15.663803,43.168415 
	C16.878574,39.625271 17.739998,36.213638 18.601419,32.802010 
	C18.601419,32.802010 18.692749,32.842976 19.086529,32.746807 
	C20.536488,30.680189 21.592665,28.709742 22.648840,26.739292 
z"/>
<path fill="#F9F9F9" opacity="1.000000" stroke="none" 
	d="
M57.987099,19.046827 
	C57.989540,18.873537 57.991978,18.700247 58.304283,18.239418 
	C59.083759,17.606771 59.553368,17.261667 60.022972,16.916561 
	C73.279404,18.478765 83.993576,37.168243 82.881027,48.778423 
	C82.379349,54.013836 80.633003,59.129982 79.163223,64.227310 
	C76.932739,63.755474 74.990387,63.356564 73.048042,62.957657 
	C73.048042,62.957657 72.994888,62.991089 72.980949,62.616848 
	C71.524719,59.821564 70.111725,57.351070 66.579208,58.457939 
	C63.046944,58.479763 59.657928,58.222324 58.432961,54.878220 
	C61.139980,51.232841 63.572849,47.956646 66.460495,44.329182 
	C67.927147,42.690292 70.032906,41.072266 69.761093,40.172379 
	C68.598595,36.323616 66.734772,32.686680 65.070961,28.760847 
	C65.015213,28.549200 64.936562,28.118677 64.917427,27.738113 
	C63.764725,26.652298 62.631161,25.947050 61.306236,25.197210 
	C60.867699,25.001404 60.744770,24.780920 60.809135,24.134319 
	C59.910477,22.200594 58.948788,20.623711 57.987099,19.046827 
z"/>
<path fill="#434343" opacity="1.000000" stroke="none" 
	d="
M44.680943,52.208836 
	C43.048328,51.771690 41.415718,51.334541 39.417618,50.927143 
	C39.052128,50.956890 39.054573,50.937988 39.055359,50.568878 
	C37.850220,48.958977 36.644287,47.718189 35.364754,46.086384 
	C34.912655,42.929676 34.263321,40.169350 34.208328,37.397240 
	C34.064732,30.158085 37.187923,26.140100 43.987938,24.856840 
	C46.135227,24.020006 48.111416,22.875189 50.385597,21.577232 
	C51.349079,21.459146 52.014561,21.494198 52.734299,21.869503 
	C54.863766,23.288353 56.938980,24.366955 59.141319,25.575911 
	C59.710640,25.836494 60.152824,25.966724 60.924496,26.308815 
	C61.758083,27.122238 62.262184,27.723803 62.779602,28.613426 
	C63.355385,29.359953 63.917858,29.818424 64.558517,30.615225 
	C64.940216,32.288445 65.243729,33.623333 65.233017,35.066933 
	C65.107941,37.552147 65.297081,39.928654 65.426651,42.582664 
	C65.313019,43.234478 65.258949,43.608788 65.204880,43.983093 
	C62.193905,46.416046 59.182930,48.848999 55.466797,51.236763 
	C54.154655,51.703190 53.547668,52.214809 52.940681,52.726425 
	C52.507549,52.801708 52.074413,52.876987 51.111507,52.706593 
	C48.614803,52.376888 46.647873,52.292862 44.680943,52.208836 
M46.086472,30.384344 
	C41.337975,33.626263 39.777477,37.287136 41.932957,41.606770 
	C43.715931,45.179874 46.605938,47.776970 51.068588,46.877071 
	C56.148983,45.852608 59.037346,40.566383 57.615097,35.295837 
	C56.434231,30.919798 51.618954,28.540567 46.086472,30.384344 
z"/>
<path fill="#AFAFAF" opacity="1.000000" stroke="none" 
	d="
M40.606716,17.657822 
	C34.955883,17.363468 31.160990,21.140276 26.904982,23.904989 
	C25.838537,24.597755 24.775328,25.295496 23.344353,25.985107 
	C26.996077,22.698376 30.967224,19.357347 35.058098,16.169985 
	C36.445236,15.089211 38.134747,14.396524 39.844250,13.211088 
	C41.760273,12.729945 43.518124,12.564204 45.651131,12.467409 
	C46.294323,12.889213 46.562366,13.242068 46.914116,13.801401 
	C46.180836,14.229305 45.363842,14.450732 43.920967,14.824355 
	C42.398960,15.870308 41.502838,16.764065 40.606716,17.657822 
z"/>
<path fill="#E6E6E6" opacity="1.000000" stroke="none" 
	d="
M65.547234,34.958225 
	C65.243729,33.623333 64.940216,32.288445 64.734085,30.295841 
	C64.929878,29.416252 65.028290,29.194374 65.126709,28.972494 
	C66.734772,32.686680 68.598595,36.323616 69.761093,40.172379 
	C70.032906,41.072266 67.927147,42.690292 66.543953,43.977737 
	C66.172630,43.977562 65.687973,43.884541 65.446426,43.933815 
	C65.258949,43.608788 65.313019,43.234478 65.777786,42.433632 
	C65.974731,39.657467 65.760986,37.307846 65.547234,34.958225 
z"/>
<path fill="#D2D2D2" opacity="1.000000" stroke="none" 
	d="
M37.365669,58.019211 
	C37.282326,56.050972 37.585972,54.134907 38.181885,51.702679 
	C38.667625,51.103672 38.861099,51.020832 39.054573,50.937988 
	C39.054573,50.937988 39.052128,50.956890 39.051743,50.949348 
	C40.534481,53.667355 43.672874,56.694416 37.365669,58.019211 
z"/>
<path fill="#545454" opacity="1.000000" stroke="none" 
	d="
M44.798031,52.522865 
	C46.647873,52.292862 48.614803,52.376888 50.781204,52.701420 
	C48.889629,56.902794 46.876740,56.350384 44.798031,52.522865 
z"/>
<path fill="#E6E6E6" opacity="1.000000" stroke="none" 
	d="
M59.836079,16.609613 
	C59.553368,17.261667 59.083759,17.606771 58.306770,17.979469 
	C56.672047,17.252075 55.344700,16.497087 54.015049,15.358461 
	C55.891556,15.417439 57.770370,15.860051 59.836079,16.609613 
z"/>
<path fill="#D7D7D7" opacity="1.000000" stroke="none" 
	d="
M73.145523,63.306934 
	C74.990387,63.356564 76.932739,63.755474 78.938179,64.519684 
	C76.528152,67.070145 74.677551,66.338051 73.145523,63.306934 
z"/>
<path fill="#D7D7D7" opacity="1.000000" stroke="none" 
	d="
M66.745224,58.735916 
	C70.111725,57.351070 71.524719,59.821564 73.003479,62.593819 
	C70.997040,61.634655 68.954132,60.324276 66.745224,58.735916 
z"/>
<path fill="#575757" opacity="1.000000" stroke="none" 
	d="
M59.836143,12.721850 
	C61.116879,13.014730 62.539909,13.597095 64.018967,14.538093 
	C62.709473,14.268261 61.343960,13.639798 59.836143,12.721850 
z"/>
<path fill="#575757" opacity="1.000000" stroke="none" 
	d="
M81.999710,33.334538 
	C82.949173,34.184731 83.889877,35.376091 84.722321,36.924706 
	C83.739685,36.079872 82.865318,34.877789 81.999710,33.334538 
z"/>
<path fill="#575757" opacity="1.000000" stroke="none" 
	d="
M84.268646,58.838753 
	C83.963860,60.096615 83.368599,61.499195 82.434128,62.983444 
	C82.722679,61.704567 83.350426,60.344021 84.268646,58.838753 
z"/>
<path fill="#545454" opacity="1.000000" stroke="none" 
	d="
M53.254776,52.785233 
	C53.547668,52.214809 54.154655,51.703190 55.102287,51.270756 
	C54.818249,51.847973 54.193562,52.346008 53.254776,52.785233 
z"/>
<path fill="#F7F7F7" opacity="1.000000" stroke="none" 
	d="
M61.897003,78.063408 
	C58.415306,79.140350 55.222572,81.270233 52.262890,80.984673 
	C45.960968,80.376656 39.739948,78.658859 33.607502,76.957184 
	C32.945690,76.773537 32.355164,72.565186 32.978748,72.164452 
	C35.789219,70.358322 38.949940,68.486702 42.169994,68.068886 
	C47.233299,67.411903 52.507122,67.424141 57.573975,68.073074 
	C61.125557,68.527946 64.480865,70.515343 67.923820,71.818329 
	C68.096519,72.473190 68.269218,73.128044 68.441917,73.782906 
	C66.391808,75.195854 64.341690,76.608803 61.897003,78.063408 
z"/>
<path fill="#919191" opacity="1.000000" stroke="none" 
	d="
M18.275047,32.910576 
	C17.739998,36.213638 16.878574,39.625271 15.667345,43.139259 
	C16.194584,39.834126 17.071630,36.426632 18.275047,32.910576 
z"/>
<path fill="#AFAFAF" opacity="1.000000" stroke="none" 
	d="
M22.343964,26.827673 
	C21.592665,28.709742 20.536488,30.680189 19.130693,32.723263 
	C19.867081,30.835943 20.953085,28.875999 22.343964,26.827673 
z"/>
<path fill="#919191" opacity="1.000000" stroke="none" 
	d="
M43.816833,24.548857 
	C37.187923,26.140100 34.064732,30.158085 34.208328,37.397240 
	C34.263321,40.169350 34.912655,42.929676 35.250076,46.221710 
	C35.208996,46.748055 34.984570,47.014153 34.744095,46.856422 
	C34.041847,46.096855 33.580078,45.495022 33.118309,44.893185 
	C32.941441,44.353073 32.764572,43.812958 32.335964,42.658012 
	C32.006035,39.016605 31.927849,35.990025 31.849663,32.963448 
	C33.779213,29.312063 34.770702,24.867172 40.250290,23.377525 
	C42.951977,22.488474 45.068726,21.945881 47.086884,21.698145 
	C45.931137,22.844954 44.873985,23.696905 43.816833,24.548857 
z"/>
<path fill="#E6E6E6" opacity="1.000000" stroke="none" 
	d="
M47.185478,21.403286 
	C45.068726,21.945881 42.951977,22.488474 40.466335,23.103054 
	C40.264057,19.969172 42.282166,18.995741 45.120281,19.002945 
	C49.098953,19.013044 53.077637,19.018133 57.521706,19.036097 
	C58.948788,20.623711 59.910477,22.200594 60.519875,24.138390 
	C59.787292,24.435265 59.407001,24.371223 58.883888,23.957882 
	C56.720718,22.915472 54.700382,22.222361 52.680042,21.529251 
	C52.014561,21.494198 51.349079,21.459146 50.054779,21.398209 
	C48.679134,21.382647 47.932308,21.392967 47.185478,21.403286 
z"/>
<path fill="#E6E6E6" opacity="1.000000" stroke="none" 
	d="
M31.484558,33.028603 
	C31.927849,35.990025 32.006035,39.016605 32.097290,42.493645 
	C28.322977,40.108917 27.957914,36.479881 31.484558,33.028603 
z"/>
<path fill="#919191" opacity="1.000000" stroke="none" 
	d="
M39.055359,50.568878 
	C38.861099,51.020832 38.667625,51.103672 38.195713,51.335541 
	C37.422962,50.794827 36.928646,50.105083 36.117634,48.961876 
	C35.528816,48.010323 35.256691,47.512238 34.984570,47.014153 
	C34.984570,47.014153 35.208996,46.748055 35.323677,46.612724 
	C36.644287,47.718189 37.850220,48.958977 39.055359,50.568878 
z"/>
<path fill="#E6E6E6" opacity="1.000000" stroke="none" 
	d="
M41.005608,17.756853 
	C41.502838,16.764065 42.398960,15.870308 43.630154,14.955610 
	C43.111649,15.908407 42.258076,16.882147 41.005608,17.756853 
z"/>
<path fill="#D2D2D2" opacity="1.000000" stroke="none" 
	d="
M34.744095,46.856422 
	C35.256691,47.512238 35.528816,48.010323 35.858879,48.787521 
	C34.943237,47.937271 33.969654,46.807915 33.057190,45.285870 
	C33.580078,45.495022 34.041847,46.096855 34.744095,46.856422 
z"/>
<path fill="#E6E6E6" opacity="1.000000" stroke="none" 
	d="
M62.766289,28.325369 
	C62.262184,27.723803 61.758083,27.122238 61.193626,26.139759 
	C61.254707,25.586498 61.376148,25.414150 61.497593,25.241802 
	C62.631161,25.947050 63.764725,26.652298 64.552963,27.741020 
	C63.727184,28.191450 63.246738,28.258410 62.766289,28.325369 
z"/>
<path fill="#545454" opacity="1.000000" stroke="none" 
	d="
M61.306236,25.197210 
	C61.376148,25.414150 61.254707,25.586498 60.864143,25.927900 
	C60.152824,25.966724 59.710640,25.836494 59.177795,25.290718 
	C59.066998,24.685841 59.046856,24.496510 59.026714,24.307180 
	C59.407001,24.371223 59.787292,24.435265 60.456841,24.495235 
	C60.744770,24.780920 60.867699,25.001404 61.306236,25.197210 
z"/>
<path fill="#919191" opacity="1.000000" stroke="none" 
	d="
M62.779602,28.613426 
	C63.246738,28.258410 63.727184,28.191450 64.572098,28.121584 
	C64.936562,28.118677 65.015213,28.549200 65.070961,28.760847 
	C65.028290,29.194374 64.929878,29.416252 64.655899,29.957512 
	C63.917858,29.818424 63.355385,29.359953 62.779602,28.613426 
z"/>
<path fill="#DCDCDC" opacity="1.000000" stroke="none" 
	d="
M46.383713,30.138809 
	C51.618954,28.540567 56.434231,30.919798 57.615097,35.295837 
	C59.037346,40.566383 56.148983,45.852608 51.068588,46.877071 
	C46.605938,47.776970 43.715931,45.179874 41.932957,41.606770 
	C39.777477,37.287136 41.337975,33.626263 46.383713,30.138809 
z"/>
<path fill="#919191" opacity="1.000000" stroke="none" 
	d="
M65.233017,35.066933 
	C65.760986,37.307846 65.974731,39.657467 65.837357,42.156120 
	C65.297081,39.928654 65.107941,37.552147 65.233017,35.066933 
z"/>
<path fill="#919191" opacity="1.000000" stroke="none" 
	d="
M58.883888,23.957882 
	C59.046856,24.496510 59.066998,24.685841 59.050667,25.160362 
	C56.938980,24.366955 54.863766,23.288353 52.734299,21.869503 
	C54.700382,22.222361 56.720718,22.915472 58.883888,23.957882 
z"/>
<path fill="#545454" opacity="1.000000" stroke="none" 
	d="
M47.086884,21.698147 
	C47.932308,21.392967 48.679134,21.382647 49.756783,21.551346 
	C48.111416,22.875189 46.135227,24.020006 43.987938,24.856840 
	C44.873985,23.696905 45.931137,22.844954 47.086884,21.698147 
z"/>
</svg>